<svg xmlns="http://www.w3.org/2000/svg" xmlns:xlink="http://www.w3.org/1999/xlink" width="1080" zoomAndPan="magnify" viewBox="0 0 810 809.999993" height="1080" preserveAspectRatio="xMidYMid meet" version="1.0"><defs><clipPath id="7bcc0bb9ad"><path d="M 0.746094 81.519531 L 809.332031 81.519531 L 809.332031 761.429688 L 0.746094 761.429688 Z M 0.746094 81.519531 " clip-rule="nonzero"/></clipPath><clipPath id="991a46941a"><path d="M 669.695312 674 L 730 674 L 730 761.429688 L 669.695312 761.429688 Z M 669.695312 674 " clip-rule="nonzero"/></clipPath><clipPath id="ee70f77b61"><path d="M 422.484375 48 L 472.277344 48 L 472.277344 91.632812 L 422.484375 91.632812 Z M 422.484375 48 " clip-rule="nonzero"/></clipPath><clipPath id="e288c9359d"><path d="M 422.484375 60.875 C 422.484375 74.730469 447.351562 91.632812 447.351562 91.632812 C 447.351562 91.632812 472.113281 74.613281 472.222656 60.875 C 472.222656 53.78125 466.445312 48 459.351562 48 C 453.898438 48 449.203125 51.492188 447.351562 56.289062 C 445.503906 51.492188 440.808594 48 435.355469 48 C 428.261719 48 422.484375 53.78125 422.484375 60.875 " clip-rule="nonzero"/></clipPath></defs><path fill="#fba63b" d="M 430.859375 109.800781 C 439.402344 111.695312 446.703125 117.742188 449.464844 126.167969 C 452.644531 135.855469 449.144531 144.273438 444.191406 152.5625 C 439.632812 160.179688 434.371094 169.292969 437.0625 178.511719 C 439.148438 185.660156 446.679688 191.390625 454.226562 189.105469 C 457.398438 188.144531 456.046875 183.148438 452.847656 184.117188 C 449 185.285156 445.324219 183.019531 443.269531 179.792969 C 440.847656 175.980469 441.332031 171.203125 442.640625 167.074219 C 445.382812 158.402344 451.996094 151.554688 454.664062 142.820312 C 459.746094 126.175781 449.054688 108.550781 432.238281 104.8125 C 428.996094 104.089844 427.613281 109.078125 430.859375 109.800781 " fill-opacity="1" fill-rule="nonzero"/><path fill="#fba63b" d="M 409.484375 145.359375 C 408.605469 142.363281 410.167969 139.476562 412.644531 137.75 C 415.371094 135.855469 418.988281 135.863281 421.941406 137.234375 C 424.9375 138.617188 426.976562 141.386719 427.5625 144.609375 C 428.210938 148.117188 426.78125 151.152344 424.847656 153.976562 C 421.261719 159.25 417.882812 163.917969 417.992188 170.601562 C 418.085938 176.628906 420.660156 182.5 425.203125 186.484375 C 427.695312 188.667969 431.371094 185.027344 428.859375 182.828125 C 423.257812 177.917969 421.382812 169.449219 425.058594 162.824219 C 426.984375 159.359375 429.820312 156.488281 431.464844 152.84375 C 432.988281 149.464844 433.316406 145.679688 432.273438 142.105469 C 430.136719 134.722656 422.582031 130.007812 414.996094 131.316406 C 408.03125 132.519531 402.414062 139.648438 404.496094 146.738281 C 405.429688 149.921875 410.425781 148.566406 409.484375 145.359375 " fill-opacity="1" fill-rule="nonzero"/><path fill="#fba63b" d="M 476.878906 151.160156 C 470.21875 154.902344 462.570312 156.460938 455.925781 160.199219 C 450.242188 163.40625 445.902344 169.601562 449.128906 176.109375 C 450.609375 179.089844 455.074219 176.46875 453.597656 173.496094 C 449.554688 165.335938 467.441406 160.921875 472.121094 159.039062 C 479.640625 156.015625 487.359375 151.832031 490.890625 144.125 C 493.949219 137.464844 492.925781 128.9375 486.566406 124.542969 C 481.011719 120.695312 472.3125 122.476562 469.578125 128.949219 C 468.296875 131.980469 472.75 134.621094 474.046875 131.5625 C 475.1875 128.867188 477.867188 127.300781 480.816406 127.683594 C 484.046875 128.089844 486.339844 131.011719 487.132812 133.992188 C 489.117188 141.449219 482.792969 147.828125 476.878906 151.160156 " fill-opacity="1" fill-rule="nonzero"/><g clip-path="url(#7bcc0bb9ad)"><path fill="#fba63b" d="M 771.863281 664.589844 L 716.804688 664.589844 C 697.488281 644.792969 659.085938 603.789062 628.410156 560.875 L 748.394531 560.875 Z M 589.316406 664.589844 L 604.6875 596.652344 C 630.429688 622.234375 658.3125 648.503906 675.601562 664.589844 Z M 533.320312 470.378906 C 533.234375 470.425781 533.152344 470.464844 533.070312 470.515625 C 532.441406 470.863281 532.503906 471.542969 532.871094 471.96875 C 529.84375 474.640625 526.929688 477.527344 524.113281 480.496094 L 524.113281 480.503906 C 514.339844 490.839844 502.84375 506.003906 491.4375 527.960938 C 480.929688 548.167969 469.140625 574.65625 458.339844 600.292969 L 458.339844 392.488281 L 643.132812 392.488281 C 650.214844 392.488281 655.945312 386.757812 655.945312 379.675781 C 655.945312 372.601562 650.214844 366.863281 643.132812 366.863281 L 629.167969 366.863281 C 637.511719 366.863281 644.925781 361.535156 647.59375 353.628906 L 668.519531 290.183594 C 668.519531 294.296875 658.46875 372.207031 653.597656 409.738281 C 616.148438 418.601562 527.242188 442.691406 533.320312 470.378906 Z M 407.785156 366.863281 L 407.785156 366.769531 C 414.464844 366.632812 426.875 366.398438 431.828125 366.441406 C 438.472656 366.488281 439.511719 359.148438 439.585938 353.730469 C 439.585938 353.5 439.59375 353.265625 439.59375 353.042969 C 439.59375 350.074219 440.589844 345.632812 441.507812 342.1875 C 442.28125 339.292969 442.988281 337.109375 442.988281 337.109375 C 442.988281 337.109375 445.242188 341.550781 446.558594 347.34375 C 447.097656 349.726562 447.480469 352.339844 447.480469 354.957031 C 447.480469 355.949219 447.535156 356.820312 447.621094 357.605469 C 448.023438 360.996094 449.253906 362.679688 451.019531 363.78125 C 451.648438 364.167969 452.335938 364.488281 453.085938 364.78125 C 454.207031 365.21875 455.449219 365.609375 456.757812 366.105469 C 457.644531 366.449219 459.125 366.691406 460.96875 366.863281 Z M 372.484375 263.625 C 376.714844 259.398438 389.835938 253.851562 394.371094 251.648438 C 394.875 251.402344 395.359375 251.164062 395.824219 250.933594 C 399.496094 252.714844 403.597656 253.769531 407.914062 254.058594 C 409.164062 256.171875 410.535156 258.082031 412.027344 259.761719 L 412.078125 259.761719 C 412.078125 261.042969 418.941406 262.09375 427.398438 262.09375 C 435.859375 262.09375 442.722656 261.042969 442.722656 259.761719 L 442.773438 259.761719 C 446.632812 255.421875 449.75 249.492188 451.75 242.5625 C 455.238281 250.085938 459.929688 256.171875 465.15625 260.101562 L 465.203125 260.097656 C 465.457031 261.359375 472.390625 261.03125 480.683594 259.359375 C 488.980469 257.6875 495.503906 255.3125 495.25 254.042969 L 495.300781 254.039062 C 496.425781 252.105469 497.386719 249.957031 498.191406 247.644531 C 502.523438 246.464844 506.480469 244.535156 509.8125 241.914062 C 509.84375 241.894531 509.871094 241.867188 509.898438 241.839844 C 510.207031 241.976562 510.527344 242.113281 510.867188 242.28125 C 514.867188 244.21875 525.15625 251.699219 530.441406 256.335938 L 530.429688 256.34375 L 555.671875 342.324219 C 555.050781 342.4375 554.894531 342.992188 555.050781 343.46875 L 487.890625 349.136719 C 487.890625 349.136719 485.394531 349.136719 481.785156 348.824219 C 481.742188 348.285156 481.285156 347.707031 480.582031 347.808594 C 477.117188 348.285156 475.410156 347.039062 473.472656 344.238281 C 472.082031 342.234375 470.785156 340.152344 469.449219 338.113281 C 468.261719 336.296875 467.066406 334.492188 465.878906 332.675781 C 470.710938 329.421875 471.714844 327.273438 471.78125 326.140625 C 471.871094 326.097656 471.964844 326.050781 472.0625 326.003906 C 472.742188 325.648438 472.628906 324.871094 472.175781 324.46875 C 473.636719 322.542969 472.722656 321.234375 472.292969 320.785156 C 472.421875 320.667969 472.574219 320.558594 472.695312 320.429688 C 473.910156 319.207031 475.648438 316.757812 473.917969 315.285156 C 472.375 313.96875 469.105469 313.941406 467.21875 314.125 C 462.992188 314.539062 458.640625 316.042969 454.601562 317.285156 C 451.738281 318.164062 448.898438 319.144531 446.082031 320.164062 C 441.339844 319.289062 430.601562 317.386719 423.019531 316.601562 C 415.820312 315.859375 416.382812 318.640625 417.261719 320.257812 C 416.539062 320.25 416.027344 321.050781 416.292969 321.621094 C 414.691406 322.25 414.933594 323.832031 415.253906 324.773438 C 414.503906 324.699219 413.945312 325.675781 414.390625 326.316406 C 410.382812 329.617188 418.945312 331.167969 420.394531 331.40625 C 419.683594 332.203125 419.082031 333.117188 418.667969 334.210938 C 418.320312 335.125 419.390625 335.621094 420.085938 335.234375 C 420.824219 338.503906 422.78125 342.726562 418.707031 346.257812 C 415.152344 349.34375 409.171875 349.835938 406.046875 349.863281 L 404.011719 349.8125 L 336.105469 348.164062 C 336.042969 347.882812 335.886719 347.625 335.601562 347.5 Z M 387.542969 212.515625 C 386.90625 213.148438 386.292969 213.84375 385.699219 214.601562 C 385.652344 214.65625 385.613281 214.726562 385.5625 214.78125 C 385.09375 214.867188 384.710938 214.9375 384.375 215 C 384.355469 214.890625 384.316406 214.792969 384.261719 214.699219 C 384.984375 214.246094 386.144531 213.503906 387.542969 212.515625 Z M 401.316406 214.324219 C 401.226562 214.921875 401.148438 215.53125 401.070312 216.144531 C 401.039062 215.933594 401.003906 215.742188 400.976562 215.578125 C 400.820312 214.59375 399.652344 214.078125 397.988281 213.851562 C 399.140625 213.816406 400.265625 214.003906 401.316406 214.324219 Z M 403.042969 245.808594 C 403.058594 245.789062 403.0625 245.753906 403.078125 245.734375 C 403.363281 245.589844 403.664062 245.460938 403.945312 245.3125 C 404.222656 246.117188 404.496094 246.921875 404.808594 247.699219 C 403.855469 247.515625 402.941406 247.289062 402.0625 247.023438 C 402.457031 246.628906 402.785156 246.230469 403.042969 245.808594 Z M 500.417969 206.191406 C 500.738281 206.148438 501.050781 206.128906 501.371094 206.128906 C 501.308594 206.230469 501.253906 206.339844 501.199219 206.449219 C 500.875 207.246094 500.59375 208.941406 500.382812 211.136719 C 499.316406 210.871094 498.894531 212.589844 499.992188 213.027344 C 500.070312 213.054688 500.144531 213.082031 500.21875 213.109375 C 500.089844 215.066406 500.015625 217.277344 500.007812 219.582031 C 500 219.582031 500 219.582031 500 219.582031 C 499.871094 218.777344 499.726562 217.980469 499.5625 217.167969 C 498.875 213.75 497.953125 210.476562 496.828125 207.382812 C 497.914062 206.796875 499.125 206.347656 500.417969 206.191406 Z M 499.988281 240.792969 C 500.457031 238.195312 500.765625 235.464844 500.867188 232.628906 C 501.214844 234.695312 501.683594 236.421875 502.285156 237.601562 C 501.738281 237.996094 501.683594 239.082031 502.546875 239.394531 C 502.605469 239.417969 502.679688 239.4375 502.742188 239.464844 C 502.328125 239.695312 501.898438 239.914062 501.453125 240.132812 C 500.976562 240.363281 500.492188 240.582031 499.988281 240.792969 Z M 212.691406 502.171875 L 171.480469 502.171875 C 171.480469 502.171875 171.480469 502.164062 171.480469 502.164062 C 172.367188 502 193.171875 498.261719 212.691406 502.171875 Z M 218.265625 518.414062 C 222.230469 518.414062 225.441406 515.203125 225.441406 511.238281 L 225.441406 509.339844 C 225.441406 508.003906 225.066406 506.75 224.425781 505.671875 C 234.074219 509.695312 242.101562 516.554688 245.296875 527.960938 C 245.570312 528.949219 245.875 530.054688 246.195312 531.230469 C 245.734375 531.363281 245.351562 531.789062 245.507812 532.386719 C 245.792969 533.515625 246.074219 534.648438 246.359375 535.78125 C 245.378906 579.636719 243.34375 652.542969 242.535156 681.441406 L 214.328125 521.027344 L 213.960938 521.050781 C 213.75 520.136719 213.441406 519.25 213.058594 518.414062 Z M 38.222656 664.589844 L 61.691406 560.875 L 197.304688 560.875 L 220.777344 664.589844 Z M 278.742188 663.492188 C 278.882812 663.519531 279.042969 663.519531 279.183594 663.484375 C 283.59375 681.601562 287.632812 698.308594 290.761719 711.273438 L 292.84375 720.304688 C 292.667969 720.351562 292.503906 720.433594 292.371094 720.558594 L 269.726562 699.507812 C 271.105469 694.148438 274.492188 680.925781 278.742188 663.492188 Z M 774.578125 516.15625 L 776.207031 507.199219 L 809.164062 326.5625 C 810.253906 320.558594 806.242188 314.753906 800.238281 313.660156 L 796.402344 312.957031 C 790.398438 311.867188 784.59375 315.878906 783.496094 321.882812 L 750.609375 502.171875 L 729.105469 502.171875 C 743.441406 496.335938 753.914062 468.125 757.699219 440.902344 C 778.765625 365.535156 730.511719 221.617188 717.316406 216.261719 C 711.898438 214.070312 705.539062 212.726562 699.800781 211.90625 C 698.828125 208.742188 697.824219 204.089844 697.332031 197.523438 C 698.703125 198.089844 699.535156 198.363281 699.535156 198.363281 C 730.550781 148.605469 724.8125 83.988281 699.535156 90.605469 C 674.265625 97.230469 639.667969 92.976562 623.183594 89.816406 C 606.691406 86.65625 599.324219 69.796875 599.324219 95.785156 C 599.324219 121.765625 612.976562 141.757812 612.976562 141.757812 L 613.488281 142.042969 C 613.304688 143.484375 613.148438 144.882812 612.996094 146.273438 C 612.539062 146.164062 612.046875 146.339844 611.953125 146.933594 C 611.824219 147.753906 611.742188 148.574219 611.632812 149.390625 C 609.019531 154.105469 603.539062 164.84375 607.308594 165.808594 C 608.609375 166.140625 609.921875 166.292969 611.148438 166.339844 C 611.148438 166.347656 611.148438 166.347656 611.148438 166.351562 C 611.203125 166.964844 611.695312 167.273438 612.171875 167.28125 C 613.296875 191.652344 623.082031 205.160156 643.195312 207.992188 C 652.464844 209.300781 658.84375 207.171875 663.238281 203.449219 C 663.285156 204.203125 664.222656 204.839844 664.847656 204.117188 C 664.9375 204.007812 665.027344 203.890625 665.121094 203.78125 L 667.339844 213.90625 C 667.339844 213.90625 648.011719 220.519531 641.773438 260.15625 C 641.679688 260.738281 641.585938 261.304688 641.496094 261.875 C 641.023438 261.738281 640.507812 261.917969 640.402344 262.539062 C 640.316406 263.125 640.191406 263.710938 640.097656 264.296875 L 583.578125 332.621094 L 550.578125 247.269531 C 550.578125 247.269531 536.113281 217.195312 534.050781 209.070312 C 531.992188 200.945312 526.695312 203.40625 516.785156 199.933594 C 507.675781 196.746094 495.988281 193.945312 503.738281 200.351562 C 502.386719 200.132812 501.023438 200.105469 499.644531 200.273438 C 497.777344 200.511719 496.0625 201.105469 494.535156 201.871094 C 493.578125 199.867188 492.535156 197.957031 491.425781 196.175781 L 491.210938 196.214844 C 490.953125 194.953125 480.707031 195.949219 468.308594 198.445312 C 461.027344 199.914062 454.628906 201.570312 450.644531 202.941406 C 450.5625 202.71875 450.480469 202.492188 450.398438 202.265625 C 450.398438 200.976562 440.152344 199.933594 427.507812 199.933594 C 414.867188 199.933594 404.621094 200.976562 404.621094 202.265625 L 404.402344 202.265625 C 403.664062 204.238281 403.023438 206.304688 402.484375 208.46875 C 400.832031 208.019531 399.03125 207.773438 397.15625 207.910156 C 395.039062 208.066406 393.054688 208.671875 391.199219 209.71875 C 392.296875 208.808594 393.410156 207.8125 394.472656 206.75 C 400.851562 200.371094 392.132812 203.554688 381.871094 205.828125 C 379.035156 206.449219 372.785156 206.519531 370.722656 214.644531 C 368.664062 222.769531 356.613281 253.832031 356.613281 253.832031 L 307.109375 335.636719 C 307.109375 335.636719 295.035156 308.734375 289.035156 295.839844 C 288.300781 293.984375 287.480469 292.257812 286.757812 290.511719 C 286.640625 290.226562 286.527344 289.953125 286.410156 289.664062 L 286.574219 289.570312 L 290.59375 288.234375 L 289.433594 288.921875 C 290.148438 290.667969 290.878906 292.46875 291.621094 294.324219 C 291.777344 293.199219 291.914062 292.039062 292.03125 290.824219 C 292.03125 290.824219 318.890625 293.054688 313.394531 265.777344 C 313.394531 265.777344 327.980469 270.683594 327.980469 247.269531 C 327.980469 229.257812 318.886719 222.003906 317.0625 205.332031 C 321.328125 198.855469 323.660156 190.007812 324.332031 178.238281 C 324.910156 178.585938 325.84375 178.339844 325.824219 177.460938 C 325.824219 177.371094 325.816406 177.277344 325.816406 177.179688 C 338.699219 168.277344 329.5 165.398438 325.570312 164.632812 C 325.558594 164.148438 325.550781 163.664062 325.539062 163.179688 C 325.523438 162.457031 324.871094 162.171875 324.324219 162.28125 C 323.925781 153.5 322.945312 143.53125 321.429688 132.210938 C 323.035156 130.097656 325.167969 128.007812 327.980469 125.902344 C 327.980469 125.902344 341.796875 97.292969 290.59375 88.929688 C 239.386719 80.558594 204.277344 112.871094 193.59375 150.84375 C 182.910156 188.820312 105.5 181.5 89.816406 226.214844 C 74.714844 269.230469 106.542969 276.667969 117.378906 272.976562 C 113.242188 274.804688 99.898438 281.957031 104.789062 296.304688 C 106.816406 302.261719 110.132812 305.332031 113.570312 306.816406 C 85.074219 344.027344 68.125 441.703125 68.125 441.703125 C 68.125 441.703125 51.609375 502.171875 92.992188 502.171875 L 59.472656 502.171875 L 26.589844 321.882812 C 25.492188 315.878906 19.683594 311.867188 13.679688 312.957031 L 9.847656 313.660156 C 3.84375 314.753906 -0.167969 320.558594 0.921875 326.5625 L 33.875 507.199219 L 35.507812 516.15625 L 40.515625 543.589844 C 40.542969 543.75 40.574219 543.910156 40.617188 544.070312 L 8.339844 727.660156 L 23.757812 728.511719 L 35.921875 674.769531 L 223.074219 674.769531 L 235.234375 728.511719 L 250.660156 727.660156 L 248.78125 716.996094 L 296.226562 738.277344 C 296.007812 738.691406 296.050781 739.21875 296.589844 739.496094 C 296.839844 739.621094 297.101562 739.730469 297.351562 739.851562 L 298.546875 745.015625 L 309.710938 745.332031 C 310.351562 745.632812 311 745.910156 311.625 746.238281 C 312.199219 746.523438 312.730469 746.21875 312.964844 745.78125 L 325.597656 751.445312 L 319.992188 746.230469 C 320.167969 746.066406 320.285156 745.855469 320.304688 745.632812 L 392.878906 747.664062 L 322.769531 721.15625 C 320.421875 684.398438 314.238281 594.945312 306.265625 536.523438 C 306.742188 536.523438 307.183594 536.214844 307.101562 535.601562 C 306.960938 534.503906 306.808594 533.398438 306.667969 532.300781 C 310.0625 510.910156 311.667969 493.65625 309.925781 485.558594 C 304.441406 459.933594 288.648438 424.707031 215.023438 408.238281 C 215.023438 408.238281 214.820312 408.210938 214.472656 408.1875 L 182.417969 405.363281 C 188.164062 376.394531 196.105469 349.757812 202.714844 330.128906 C 205.710938 333.671875 210.601562 336.5625 218.46875 337.566406 C 228.035156 338.789062 235.015625 336.292969 240.023438 332.648438 L 255.269531 355.871094 C 259.773438 362.734375 267.421875 366.863281 275.628906 366.863281 L 255.449219 366.863281 C 248.375 366.863281 242.636719 372.601562 242.636719 379.675781 C 242.636719 386.757812 248.375 392.488281 255.449219 392.488281 L 436.617188 392.488281 L 436.617188 653.765625 C 432.488281 664.242188 429.09375 673.066406 426.726562 679.253906 L 370.480469 639.277344 L 420.078125 707.941406 L 380.765625 707.941406 C 375.085938 707.941406 370.480469 712.546875 370.480469 718.222656 C 370.480469 723.90625 375.085938 728.511719 380.765625 728.511719 L 514.199219 728.511719 C 519.882812 728.511719 524.480469 723.90625 524.480469 718.222656 C 524.480469 712.546875 519.882812 707.941406 514.199219 707.941406 L 458.339844 707.941406 L 458.339844 678.132812 C 476.625 641.332031 503.910156 591.171875 533.007812 554.492188 C 533.429688 554.761719 534.050781 554.765625 534.425781 554.253906 C 539.164062 547.761719 544.511719 542.117188 550.015625 536.433594 C 555.34375 543.953125 561.839844 552.070312 569.796875 560.703125 C 574.707031 566.03125 580.113281 571.707031 585.816406 577.582031 L 559.433594 727.660156 L 574.851562 728.511719 L 587.007812 674.769531 L 686.578125 674.769531 C 690.351562 678.257812 692.507812 680.222656 692.507812 680.222656 L 669.714844 762.011719 L 729.105469 676.953125 C 729.105469 676.953125 728.320312 676.195312 726.886719 674.769531 L 774.167969 674.769531 L 786.328125 728.511719 L 801.746094 727.660156 L 769.476562 544.070312 C 769.507812 543.910156 769.542969 543.75 769.570312 543.589844 L 774.578125 516.15625 " fill-opacity="1" fill-rule="nonzero"/></g><path fill="#fbc4ac" d="M 477.503906 244.125 C 477.503906 244.125 487.25 232.933594 488.15625 226.871094 C 489.054688 220.796875 486 216.492188 480.207031 216.628906 C 474.410156 216.765625 473.105469 222.242188 473.105469 222.242188 C 473.105469 222.242188 469.78125 217.699219 464.378906 219.816406 C 458.980469 221.9375 457.828125 227.082031 461.015625 232.335938 C 464.195312 237.582031 477.503906 244.125 477.503906 244.125 " fill-opacity="1" fill-rule="nonzero"/><path fill="#fbc4ac" d="M 427.507812 246.527344 C 427.507812 246.527344 439.273438 237.484375 441.351562 231.714844 C 443.433594 225.941406 441.292969 221.117188 435.582031 220.109375 C 429.871094 219.097656 427.507812 224.214844 427.507812 224.214844 C 427.507812 224.214844 425.148438 219.097656 419.4375 220.109375 C 413.726562 221.117188 411.585938 225.941406 413.667969 231.714844 C 415.746094 237.484375 427.507812 246.527344 427.507812 246.527344 " fill-opacity="1" fill-rule="nonzero"/><path fill="#fbc4ac" d="M 269.726562 699.507812 C 271.132812 694.050781 274.605469 680.460938 278.964844 662.578125 C 283.457031 681.046875 287.578125 698.089844 290.761719 711.273438 L 293.046875 721.183594 Z M 322.769531 721.15625 C 320.40625 684.199219 314.179688 593.996094 306.132812 535.601562 C 309.894531 512.683594 311.757812 494.074219 309.925781 485.558594 C 304.441406 459.933594 288.648438 424.707031 215.023438 408.238281 C 215.023438 408.238281 209.039062 407.328125 206.695312 412.5 C 200.804688 419.765625 200.128906 433.855469 200.101562 434.640625 C 200.101562 434.660156 200.097656 434.679688 200.097656 434.679688 C 192.964844 436.789062 187.617188 441.972656 183.597656 448.578125 C 171.371094 468.671875 171.476562 501.945312 171.480469 502.164062 C 172.367188 502 193.171875 498.261719 212.691406 502.171875 C 216.714844 502.976562 220.695312 504.109375 224.425781 505.671875 C 234.074219 509.695312 242.101562 516.554688 245.296875 527.960938 C 245.644531 529.203125 246.027344 530.601562 246.441406 532.128906 C 245.496094 575.480469 243.371094 651.730469 242.535156 681.441406 L 243.441406 686.636719 L 244.847656 694.617188 L 248.78125 716.996094 L 297.082031 738.65625 L 298.546875 745.015625 L 312.117188 745.398438 L 325.597656 751.445312 L 319.308594 745.605469 L 392.878906 747.664062 L 322.769531 721.15625 " fill-opacity="1" fill-rule="nonzero"/><path fill="#fbc4ac" d="M 232.90625 173.425781 C 232.925781 173.78125 232.953125 174.136719 232.996094 174.476562 C 232.996094 174.503906 233.003906 174.53125 233.003906 174.554688 C 233.042969 174.902344 233.089844 175.242188 233.152344 175.578125 C 233.160156 175.605469 233.160156 175.632812 233.164062 175.660156 C 233.226562 175.992188 233.300781 176.320312 233.378906 176.640625 C 233.390625 176.6875 233.40625 176.738281 233.417969 176.785156 C 233.492188 177.097656 233.582031 177.40625 233.675781 177.707031 C 233.699219 177.753906 233.710938 177.808594 233.726562 177.855469 C 233.828125 178.15625 233.9375 178.449219 234.050781 178.742188 C 234.066406 178.777344 234.078125 178.8125 234.09375 178.851562 C 234.214844 179.152344 234.347656 179.453125 234.488281 179.746094 C 234.632812 180.039062 234.78125 180.332031 234.945312 180.613281 C 234.960938 180.632812 234.972656 180.660156 234.980469 180.679688 C 235.136719 180.953125 235.300781 181.210938 235.472656 181.472656 C 235.492188 181.5 235.511719 181.539062 235.539062 181.566406 C 235.703125 181.820312 235.882812 182.066406 236.066406 182.304688 C 236.085938 182.339844 236.113281 182.367188 236.132812 182.394531 C 236.324219 182.636719 236.515625 182.878906 236.71875 183.101562 C 236.734375 183.117188 236.742188 183.128906 236.761719 183.144531 C 237.183594 183.628906 237.632812 184.070312 238.113281 184.488281 C 238.125 184.5 238.140625 184.507812 238.152344 184.519531 C 238.386719 184.726562 238.625 184.910156 238.871094 185.101562 C 238.898438 185.113281 238.917969 185.136719 238.9375 185.148438 C 239.183594 185.332031 239.4375 185.511719 239.6875 185.679688 C 239.707031 185.6875 239.722656 185.703125 239.742188 185.714844 C 240.546875 186.242188 241.40625 186.683594 242.308594 187.050781 C 242.316406 187.058594 242.328125 187.058594 242.335938 187.066406 C 242.628906 187.183594 242.929688 187.292969 243.230469 187.394531 C 243.242188 187.402344 243.261719 187.402344 243.277344 187.414062 C 243.582031 187.507812 243.890625 187.605469 244.199219 187.679688 C 244.203125 187.6875 244.210938 187.6875 244.21875 187.6875 C 245.171875 187.941406 246.164062 188.101562 247.164062 188.179688 C 247.179688 188.179688 247.1875 188.179688 247.199219 188.179688 C 247.527344 188.207031 247.855469 188.21875 248.1875 188.21875 C 248.203125 188.21875 248.214844 188.21875 248.230469 188.21875 C 248.570312 188.226562 248.90625 188.21875 249.238281 188.199219 C 251.710938 187.78125 253.203125 187.523438 253.203125 187.523438 C 253.203125 187.523438 247.246094 210.625 243.816406 235.574219 C 243.296875 239.347656 242.832031 243.167969 242.457031 246.949219 C 242.320312 248.320312 242.199219 249.691406 242.089844 251.050781 C 241.597656 256.992188 241.359375 262.785156 241.484375 268.148438 C 241.539062 270.597656 241.660156 272.949219 241.878906 275.1875 C 241.878906 275.1875 241.878906 275.195312 241.878906 275.195312 C 242.015625 276.613281 242.191406 277.992188 242.398438 279.308594 C 242.398438 279.316406 242.402344 279.320312 242.402344 279.328125 C 242.453125 279.648438 242.511719 279.964844 242.574219 280.285156 C 242.628906 280.613281 242.683594 280.945312 242.746094 281.265625 C 243.121094 283.171875 243.582031 284.9375 244.148438 286.546875 C 247.609375 296.441406 251.015625 302.949219 252.84375 308.058594 C 253.074219 308.695312 253.273438 309.308594 253.449219 309.902344 C 254.300781 312.792969 254.515625 315.265625 253.761719 317.761719 C 252.535156 321.792969 248.769531 325.878906 241.046875 331.863281 C 240.710938 332.128906 240.378906 332.394531 240.023438 332.648438 L 255.269531 355.871094 C 259.773438 362.734375 267.421875 366.863281 275.628906 366.863281 L 407.785156 366.863281 L 407.785156 366.769531 C 414.464844 366.632812 426.875 366.398438 431.828125 366.441406 C 438.472656 366.488281 439.511719 359.148438 439.585938 353.730469 C 439.585938 353.5 439.59375 353.265625 439.59375 353.042969 C 439.59375 350.074219 440.589844 345.632812 441.507812 342.1875 C 442.28125 339.292969 442.988281 337.109375 442.988281 337.109375 C 442.988281 337.109375 445.242188 341.550781 446.558594 347.34375 C 447.097656 349.726562 447.480469 352.339844 447.480469 354.957031 C 447.480469 355.949219 447.535156 356.820312 447.621094 357.605469 C 448.023438 360.996094 449.253906 362.679688 451.019531 363.78125 C 451.648438 364.167969 452.335938 364.488281 453.085938 364.78125 C 454.207031 365.21875 455.449219 365.609375 456.757812 366.105469 C 457.644531 366.449219 459.125 366.691406 460.96875 366.863281 C 470.027344 367.722656 487.898438 366.863281 487.898438 366.863281 L 629.167969 366.863281 C 637.511719 366.863281 644.925781 361.535156 647.59375 353.628906 L 668.519531 290.183594 C 668.519531 290.183594 681.136719 306.074219 697.019531 274.585938 C 712.910156 243.101562 683.367188 210.609375 683.367188 210.609375 C 683.367188 210.609375 690.835938 210.625 699.800781 211.90625 C 698.828125 208.742188 697.824219 204.089844 697.332031 197.523438 C 697.140625 194.945312 697.023438 192.082031 697.023438 188.882812 L 677.035156 174.585938 C 687.65625 174.867188 695.933594 164.523438 689.472656 148.976562 C 685.242188 138.796875 672.613281 143.757812 668.027344 146.675781 L 667.6875 123.226562 C 643.097656 123.226562 620.214844 107.132812 620.214844 107.132812 C 617.097656 120.007812 614.832031 131.640625 613.488281 142.042969 C 613.261719 143.796875 613.066406 145.515625 612.894531 147.195312 C 612.894531 147.195312 602.46875 164.570312 607.308594 165.808594 C 608.964844 166.238281 610.628906 166.359375 612.117188 166.351562 C 613.03125 191.324219 622.820312 205.125 643.195312 207.992188 C 653.578125 209.453125 660.347656 206.613281 664.738281 202.042969 L 667.339844 213.90625 C 667.339844 213.90625 648.011719 220.519531 641.773438 260.15625 C 641.632812 261.042969 641.488281 261.925781 641.34375 262.789062 L 583.578125 332.621094 L 550.578125 247.269531 C 550.578125 247.269531 536.113281 217.195312 534.050781 209.070312 C 531.992188 200.945312 526.695312 203.40625 516.785156 199.933594 C 507.675781 196.746094 495.988281 193.945312 503.738281 200.351562 C 503.890625 200.480469 504.039062 200.601562 504.210938 200.730469 C 507.089844 203.023438 509.246094 203.980469 510.601562 204.382812 C 507.90625 204.011719 502.8125 203.679688 501.371094 206.128906 C 501.308594 206.230469 501.253906 206.339844 501.199219 206.449219 C 500.519531 208.101562 500.019531 213.570312 500.007812 219.589844 C 499.988281 224.09375 500.238281 228.894531 500.867188 232.628906 C 501.308594 235.261719 501.9375 237.363281 502.796875 238.460938 C 503.003906 238.714844 503.191406 238.925781 503.378906 239.125 C 505.109375 240.902344 506.503906 240.398438 509.898438 241.839844 C 510.207031 241.976562 510.527344 242.113281 510.867188 242.28125 C 514.867188 244.21875 525.15625 251.699219 530.441406 256.335938 L 530.429688 256.34375 L 555.988281 343.394531 L 487.890625 349.136719 C 487.890625 349.136719 483.132812 349.136719 477.265625 348.320312 C 470.109375 347.324219 465.0625 333.222656 465.0625 333.222656 C 473.65625 327.714844 471.570312 325.164062 471.570312 325.164062 C 474.394531 322.339844 472.101562 320.613281 472.101562 320.613281 C 481.394531 308.101562 448.496094 320.613281 448.496094 320.613281 C 448.496094 320.613281 433.007812 317.636719 423.019531 316.601562 C 413.023438 315.570312 417.984375 321.34375 417.984375 321.34375 C 413.289062 321.34375 415.5625 325.503906 415.5625 325.503906 C 408.453125 329.695312 420.597656 331.441406 420.597656 331.441406 C 417.65625 334.382812 424.691406 341.066406 418.707031 346.257812 C 415.152344 349.34375 409.171875 349.835938 406.046875 349.863281 L 404.011719 349.8125 L 335.316406 348.148438 L 372.484375 263.625 C 376.714844 259.398438 389.835938 253.851562 394.371094 251.648438 C 394.875 251.402344 395.359375 251.164062 395.824219 250.933594 C 398.671875 249.515625 400.75 248.328125 402.0625 247.023438 C 402.457031 246.628906 402.785156 246.230469 403.042969 245.808594 C 403.273438 245.425781 403.460938 244.941406 403.609375 244.398438 C 405.425781 237.894531 401.898438 220.851562 401.070312 216.144531 C 401.039062 215.933594 401.003906 215.742188 400.976562 215.578125 C 400.820312 214.59375 399.652344 214.078125 397.988281 213.851562 C 394.445312 213.375 388.652344 214.234375 385.5625 214.78125 C 384.28125 215.003906 383.460938 215.175781 383.460938 215.175781 C 383.460938 215.175781 385.1875 214.1875 387.542969 212.515625 C 388.660156 211.722656 389.917969 210.78125 391.199219 209.71875 C 392.296875 208.808594 393.410156 207.8125 394.472656 206.75 C 400.851562 200.371094 392.132812 203.554688 381.871094 205.828125 C 379.035156 206.449219 372.785156 206.519531 370.722656 214.644531 C 368.664062 222.769531 356.613281 253.832031 356.613281 253.832031 L 307.109375 335.636719 C 307.109375 335.636719 295.035156 308.734375 289.035156 295.839844 C 288.300781 293.984375 287.480469 292.257812 286.757812 290.511719 C 286.640625 290.226562 286.527344 289.953125 286.410156 289.664062 C 267.46875 243.96875 257.550781 233.570312 255.019531 231.488281 C 254.574219 231.125 254.355469 231.011719 254.355469 231.011719 L 254.355469 231.019531 C 254.554688 230.792969 254.753906 230.582031 254.949219 230.363281 C 255.347656 229.925781 255.742188 229.496094 256.152344 229.074219 C 256.554688 228.648438 256.964844 228.242188 257.378906 227.824219 C 261.703125 223.527344 266.417969 220.019531 271.011719 218.886719 C 271.667969 218.730469 272.3125 218.613281 272.960938 218.554688 C 273.179688 218.53125 273.398438 218.519531 273.609375 218.511719 C 274.039062 218.5 274.46875 218.503906 274.894531 218.539062 C 279.226562 220.074219 284.410156 220.660156 290.59375 219.792969 C 302.960938 218.054688 311.597656 213.632812 317.0625 205.332031 C 321.34375 198.84375 323.675781 189.980469 324.335938 178.167969 C 341.128906 167.363281 327.03125 164.804688 324.417969 164.433594 C 324.089844 155.144531 323.074219 144.457031 321.429688 132.210938 C 321.152344 130.152344 320.859375 128.050781 320.550781 125.902344 C 320.550781 125.902344 280.480469 161.796875 255.898438 161.796875 C 255.898438 161.796875 242.316406 144.964844 234.988281 162.59375 C 234.804688 163.050781 234.625 163.5 234.46875 163.945312 C 234.449219 164 234.421875 164.058594 234.402344 164.113281 C 234.25 164.539062 234.113281 164.953125 233.984375 165.371094 C 233.964844 165.4375 233.945312 165.511719 233.921875 165.589844 C 233.800781 165.992188 233.691406 166.394531 233.589844 166.796875 C 233.566406 166.863281 233.554688 166.933594 233.539062 167 C 233.4375 167.410156 233.351562 167.804688 233.273438 168.207031 C 233.269531 168.25 233.261719 168.289062 233.253906 168.332031 C 233.179688 168.734375 233.109375 169.128906 233.0625 169.523438 C 233.054688 169.546875 233.054688 169.566406 233.054688 169.585938 C 233.003906 169.980469 232.960938 170.371094 232.933594 170.753906 C 232.925781 170.808594 232.925781 170.871094 232.921875 170.921875 C 232.894531 171.292969 232.878906 171.652344 232.871094 172.015625 C 232.871094 172.078125 232.871094 172.144531 232.871094 172.207031 C 232.871094 172.566406 232.878906 172.914062 232.894531 173.265625 C 232.898438 173.320312 232.898438 173.375 232.90625 173.425781 " fill-opacity="1" fill-rule="nonzero"/><path fill="#fbc4ac" d="M 524.113281 480.503906 C 527.148438 477.308594 530.3125 474.300781 533.589844 471.457031 C 533.589844 471.441406 533.582031 471.433594 533.582031 471.421875 C 530.683594 473.925781 527.503906 476.921875 524.113281 480.503906 " fill-opacity="1" fill-rule="nonzero"/><path fill="#fbc4ac" d="M 716.804688 664.589844 C 697.488281 644.792969 659.085938 603.789062 628.410156 560.875 L 612.777344 560.875 L 604.6875 596.652344 C 630.429688 622.234375 658.3125 648.503906 675.601562 664.589844 L 716.804688 664.589844 " fill-opacity="1" fill-rule="nonzero"/><g clip-path="url(#991a46941a)"><path fill="#fbc4ac" d="M 726.886719 674.769531 L 686.578125 674.769531 C 690.351562 678.257812 692.507812 680.222656 692.507812 680.222656 L 669.714844 762.011719 L 729.105469 676.953125 C 729.105469 676.953125 728.320312 676.195312 726.886719 674.769531 " fill-opacity="1" fill-rule="nonzero"/></g><path fill="#fbc4ac" d="M 584.640625 511.238281 L 584.640625 510.78125 C 564.707031 519.425781 553.570312 531.472656 553.570312 531.472656 L 553.53125 531.40625 L 526.117188 483.980469 L 524.113281 480.503906 C 514.339844 490.839844 502.84375 506.003906 491.4375 527.960938 C 480.929688 548.167969 469.140625 574.65625 458.339844 600.292969 C 450.214844 619.617188 442.640625 638.453125 436.617188 653.765625 C 432.488281 664.242188 429.09375 673.066406 426.726562 679.261719 L 370.480469 639.277344 L 420.078125 707.941406 L 434.9375 728.511719 L 435.445312 727.105469 C 435.445312 727.105469 435.847656 726.164062 436.617188 724.40625 C 437.988281 721.273438 440.527344 715.554688 444.054688 707.941406 C 447.785156 699.863281 452.625 689.652344 458.339844 678.132812 C 480.023438 634.484375 514.382812 572.027344 549.410156 535.582031 C 554.847656 543.332031 561.539062 551.746094 569.796875 560.703125 C 574.707031 566.03125 580.113281 571.707031 585.816406 577.582031 L 595.75 521.027344 L 596.125 521.050781 C 596.335938 520.136719 596.644531 519.25 597.023438 518.414062 L 591.8125 518.414062 C 587.855469 518.414062 584.640625 515.203125 584.640625 511.238281 " fill-opacity="1" fill-rule="nonzero"/><path fill="#2ebeb4" d="M 533.675781 471.714844 C 533.664062 471.679688 533.648438 471.644531 533.644531 471.613281 C 533.648438 471.644531 533.664062 471.6875 533.675781 471.714844 Z M 533.984375 472.582031 C 533.929688 472.453125 533.875 472.300781 533.820312 472.152344 C 533.875 472.292969 533.929688 472.4375 533.984375 472.582031 Z M 753.863281 452.011719 C 753.863281 452.011719 751.0625 465.046875 708.597656 441.191406 C 692.296875 432.027344 680.03125 428.199219 671.097656 426.957031 C 656.757812 424.957031 651.011719 429.625 651.011719 429.625 C 651.011719 429.625 651.191406 428.253906 651.511719 425.796875 C 651.960938 422.351562 652.691406 416.75 653.597656 409.738281 C 615.691406 418.710938 525.054688 443.277344 533.574219 471.394531 C 533.566406 471.378906 533.5625 471.367188 533.5625 471.351562 C 530.285156 474.191406 527.140625 477.300781 524.113281 480.496094 L 524.113281 480.503906 L 526.117188 483.980469 L 553.53125 531.40625 L 553.570312 531.472656 C 553.570312 531.472656 564.707031 519.425781 584.640625 510.78125 C 588.039062 509.308594 591.695312 507.929688 595.597656 506.726562 C 604.496094 503.992188 614.660156 502.171875 625.960938 502.171875 C 671.261719 502.171875 714.765625 508.003906 729.105469 502.171875 C 743.441406 496.335938 753.914062 468.125 757.699219 440.902344 C 756.605469 444.800781 755.339844 448.511719 753.863281 452.011719 " fill-opacity="1" fill-rule="nonzero"/><path fill="#2ebeb4" d="M 178.507812 427.878906 C 178.507812 427.878906 118.613281 429.9375 86.71875 435.683594 L 68.125 441.703125 C 68.125 441.703125 51.609375 502.171875 92.992188 502.171875 L 171.480469 502.171875 C 171.480469 502.171875 171.480469 502.164062 171.480469 502.164062 C 171.476562 501.945312 171.371094 468.671875 183.597656 448.578125 C 187.617188 441.972656 192.964844 436.789062 200.097656 434.679688 C 200.097656 434.679688 200.101562 434.660156 200.101562 434.640625 C 200.128906 433.855469 200.804688 419.765625 206.695312 412.5 C 208.761719 409.949219 211.46875 408.238281 215.023438 408.238281 L 182.417969 405.363281 C 180.953125 412.746094 179.636719 420.273438 178.507812 427.878906 " fill-opacity="1" fill-rule="nonzero"/><path fill="#f2757a" d="M 198.976562 310.160156 C 198.976562 310.160156 191.800781 333.160156 158.914062 335.515625 C 126.03125 337.859375 126.65625 306.925781 126.65625 306.925781 C 126.65625 306.925781 119.894531 309.554688 113.570312 306.816406 C 85.074219 344.027344 68.125 441.703125 68.125 441.703125 C 68.125 441.703125 71.632812 451.527344 85.824219 447.160156 C 100.015625 442.785156 111.769531 432.511719 128.4375 434.640625 C 145.105469 436.769531 172.464844 433.921875 178.507812 427.878906 C 179.636719 420.273438 180.953125 412.746094 182.417969 405.363281 C 188.164062 376.394531 196.105469 349.757812 202.714844 330.128906 C 195.765625 321.910156 198.976562 310.160156 198.976562 310.160156 " fill-opacity="1" fill-rule="nonzero"/><path fill="#f2757a" d="M 717.316406 216.261719 C 711.898438 214.070312 705.539062 212.726562 699.800781 211.90625 C 681.851562 207.546875 667.339844 213.90625 667.339844 213.90625 C 667.339844 213.90625 712.910156 243.101562 697.019531 274.585938 C 681.136719 306.074219 668.519531 290.183594 668.519531 290.183594 C 668.519531 294.296875 658.46875 372.207031 653.597656 409.738281 C 652.691406 416.75 651.960938 422.351562 651.511719 425.796875 C 651.191406 428.253906 651.011719 429.625 651.011719 429.625 C 651.011719 429.625 656.757812 424.957031 671.097656 426.957031 C 680.03125 428.199219 692.296875 432.027344 708.597656 441.191406 C 751.0625 465.046875 753.863281 452.011719 753.863281 452.011719 C 755.339844 448.511719 756.605469 444.800781 757.699219 440.902344 C 778.765625 365.535156 730.511719 221.617188 717.316406 216.261719 " fill-opacity="1" fill-rule="nonzero"/><path fill="#f2757a" d="M 452.847656 184.117188 C 449 185.285156 445.324219 183.019531 443.269531 179.792969 C 440.847656 175.980469 441.332031 171.203125 442.640625 167.074219 C 445.382812 158.402344 451.996094 151.554688 454.664062 142.820312 C 459.746094 126.175781 449.054688 108.550781 432.238281 104.8125 C 428.996094 104.089844 427.605469 109.078125 430.859375 109.800781 C 439.402344 111.695312 446.703125 117.742188 449.464844 126.167969 C 452.644531 135.855469 449.144531 144.273438 444.183594 152.5625 C 439.632812 160.179688 434.371094 169.292969 437.0625 178.511719 C 439.148438 185.660156 446.679688 191.390625 454.226562 189.105469 C 457.398438 188.144531 456.046875 183.148438 452.847656 184.117188 " fill-opacity="1" fill-rule="nonzero"/><path fill="#f2757a" d="M 414.996094 131.316406 C 408.03125 132.519531 402.414062 139.648438 404.496094 146.738281 C 405.429688 149.921875 410.425781 148.566406 409.484375 145.359375 C 408.605469 142.363281 410.167969 139.476562 412.644531 137.75 C 415.371094 135.855469 418.988281 135.863281 421.941406 137.234375 C 424.9375 138.617188 426.976562 141.386719 427.5625 144.609375 C 428.210938 148.117188 426.78125 151.152344 424.847656 153.976562 C 421.261719 159.25 417.882812 163.917969 417.992188 170.601562 C 418.085938 176.628906 420.660156 182.5 425.203125 186.484375 C 427.695312 188.667969 431.371094 185.027344 428.859375 182.828125 C 423.257812 177.917969 421.382812 169.449219 425.058594 162.824219 C 426.984375 159.359375 429.820312 156.488281 431.464844 152.84375 C 432.988281 149.464844 433.316406 145.679688 432.273438 142.105469 C 430.136719 134.722656 422.582031 130.007812 414.996094 131.316406 " fill-opacity="1" fill-rule="nonzero"/><path fill="#f2757a" d="M 486.566406 124.542969 C 481.011719 120.695312 472.3125 122.476562 469.578125 128.949219 C 468.296875 131.980469 472.75 134.621094 474.046875 131.5625 C 475.1875 128.867188 477.867188 127.300781 480.816406 127.683594 C 484.046875 128.089844 486.339844 131.011719 487.132812 133.992188 C 489.117188 141.449219 482.792969 147.828125 476.878906 151.160156 C 470.21875 154.902344 462.570312 156.460938 455.925781 160.199219 C 450.242188 163.40625 445.902344 169.601562 449.128906 176.109375 C 450.609375 179.089844 455.074219 176.46875 453.597656 173.496094 C 449.554688 165.335938 467.441406 160.921875 472.121094 159.039062 C 479.640625 156.015625 487.359375 151.832031 490.890625 144.125 C 493.949219 137.464844 492.925781 128.9375 486.566406 124.542969 " fill-opacity="1" fill-rule="nonzero"/><path fill="#284779" d="M 449.539062 206.410156 C 450.289062 206.429688 451.035156 206.4375 451.777344 206.441406 C 457.769531 206.503906 463.765625 206.15625 469.667969 205.0625 C 476.285156 203.835938 482.671875 201.644531 488.785156 198.847656 C 489.289062 198.617188 489.253906 198.070312 488.96875 197.75 C 488.777344 197.53125 488.476562 197.417969 488.140625 197.566406 C 486.429688 198.351562 484.703125 199.074219 482.949219 199.75 C 478.554688 201.449219 474.03125 202.800781 469.378906 203.660156 C 465.8125 204.320312 462.203125 204.703125 458.585938 204.878906 C 456.179688 205.003906 453.757812 205.042969 451.339844 205.011719 C 450.773438 205.003906 450.207031 204.996094 449.640625 204.984375 C 449.128906 204.96875 448.871094 205.40625 448.90625 205.792969 C 448.925781 206.113281 449.136719 206.394531 449.539062 206.410156 " fill-opacity="1" fill-rule="nonzero"/><path fill="#284779" d="M 407.519531 204.367188 C 414.070312 205.910156 420.753906 206.789062 427.488281 206.6875 C 434.238281 206.585938 440.914062 205.527344 447.480469 204.035156 C 447.882812 203.945312 448.023438 203.617188 447.992188 203.3125 C 447.9375 202.921875 447.601562 202.539062 447.105469 202.65625 C 444.191406 203.316406 441.265625 203.882812 438.308594 204.328125 C 434.734375 204.859375 431.117188 205.199219 427.488281 205.253906 C 422.761719 205.332031 418.058594 204.902344 413.414062 204.101562 C 411.570312 203.789062 409.730469 203.421875 407.902344 202.992188 C 407.539062 202.902344 407.257812 203.078125 407.117188 203.324219 C 406.90625 203.699219 406.980469 204.238281 407.519531 204.367188 " fill-opacity="1" fill-rule="nonzero"/><path fill="#284779" d="M 613.488281 142.042969 C 614.832031 131.640625 617.097656 120.007812 620.214844 107.132812 C 620.214844 107.132812 643.097656 123.226562 667.6875 123.226562 L 668.027344 146.675781 C 672.613281 143.757812 685.242188 138.796875 689.472656 148.976562 C 695.933594 164.523438 687.65625 174.867188 677.035156 174.585938 L 697.023438 188.882812 C 697.023438 192.082031 697.140625 194.945312 697.332031 197.523438 C 698.703125 198.089844 699.535156 198.363281 699.535156 198.363281 C 730.550781 148.605469 724.8125 83.988281 699.535156 90.605469 C 674.265625 97.230469 639.667969 92.976562 623.183594 89.816406 C 606.691406 86.65625 599.324219 69.796875 599.324219 95.785156 C 599.324219 121.765625 612.976562 141.757812 612.976562 141.757812 L 613.488281 142.042969 " fill-opacity="1" fill-rule="nonzero"/><path fill="#284779" d="M 729.105469 502.171875 C 714.765625 508.003906 671.261719 502.171875 625.960938 502.171875 C 614.660156 502.171875 604.496094 503.992188 595.597656 506.726562 C 591.695312 507.929688 588.039062 509.308594 584.640625 510.78125 L 584.640625 511.238281 C 584.640625 515.203125 587.855469 518.414062 591.8125 518.414062 L 747.648438 518.414062 L 749.128906 510.289062 L 750.609375 502.171875 L 729.105469 502.171875 " fill-opacity="1" fill-rule="nonzero"/><path fill="#284779" d="M 212.691406 502.171875 L 59.472656 502.171875 L 60.953125 510.289062 L 62.433594 518.414062 L 218.265625 518.414062 C 222.230469 518.414062 225.441406 515.203125 225.441406 511.238281 L 225.441406 509.339844 C 225.441406 508.003906 225.066406 506.75 224.425781 505.671875 C 220.695312 504.109375 216.714844 502.976562 212.691406 502.171875 " fill-opacity="1" fill-rule="nonzero"/><path fill="#284779" d="M 380.765625 707.941406 C 375.085938 707.941406 370.480469 712.546875 370.480469 718.222656 C 370.480469 723.90625 375.085938 728.511719 380.765625 728.511719 L 434.9375 728.511719 L 420.078125 707.941406 L 380.765625 707.941406 " fill-opacity="1" fill-rule="nonzero"/><path fill="#284779" d="M 514.199219 707.941406 L 458.339844 707.941406 L 458.339844 678.132812 C 452.625 689.652344 447.785156 699.863281 444.054688 707.941406 C 440.527344 715.554688 437.988281 721.273438 436.617188 724.40625 C 435.847656 726.164062 435.445312 727.105469 435.445312 727.105469 L 434.9375 728.511719 L 514.199219 728.511719 C 519.882812 728.511719 524.480469 723.90625 524.480469 718.222656 C 524.480469 712.546875 519.882812 707.941406 514.199219 707.941406 " fill-opacity="1" fill-rule="nonzero"/><path fill="#284779" d="M 436.617188 653.765625 C 442.640625 638.453125 450.214844 619.617188 458.339844 600.292969 L 458.339844 392.488281 L 436.617188 392.488281 L 436.617188 653.765625 " fill-opacity="1" fill-rule="nonzero"/><path fill="#284779" d="M 556.207031 344.183594 C 565.574219 342.5 574.941406 340.816406 584.308594 339.128906 C 589.136719 338.257812 593.960938 337.308594 598.804688 336.542969 C 602.859375 335.910156 606.945312 335.460938 610.929688 334.449219 C 614.390625 333.570312 617.855469 332.265625 620.609375 329.917969 C 623.496094 327.457031 625.183594 323.882812 626.554688 320.421875 C 629.644531 312.609375 631.964844 304.328125 634.441406 296.296875 C 637.804688 285.394531 640.511719 274.320312 642.28125 263.050781 C 642.472656 261.828125 640.601562 261.304688 640.402344 262.539062 C 637.640625 280.183594 632.113281 296.910156 626.765625 313.878906 C 625.449219 318.054688 624.078125 322.429688 621.527344 326.03125 C 619.125 329.421875 615.359375 331.203125 611.457031 332.300781 C 607.601562 333.386719 603.621094 333.875 599.671875 334.464844 C 595.183594 335.132812 590.722656 336.011719 586.257812 336.808594 C 576.074219 338.644531 565.878906 340.480469 555.695312 342.316406 C 554.464844 342.535156 554.984375 344.402344 556.207031 344.183594 " fill-opacity="1" fill-rule="nonzero"/><path fill="#284779" d="M 434.960938 340.097656 C 434.753906 339.503906 434.542969 338.917969 434.3125 338.339844 C 435.828125 337.601562 437.347656 336.878906 438.867188 336.167969 C 437.566406 337.480469 436.261719 338.789062 434.960938 340.097656 Z M 470.503906 343.257812 C 471.78125 345.203125 473.105469 347.726562 475.132812 349.003906 C 476.898438 350.113281 479.121094 349.949219 481.09375 349.675781 C 482.328125 349.5 481.804688 347.628906 480.582031 347.808594 C 477.117188 348.285156 475.410156 347.039062 473.472656 344.238281 C 472.082031 342.234375 470.785156 340.152344 469.449219 338.113281 C 467.660156 335.382812 465.875 332.660156 464.078125 329.941406 C 466.726562 328.59375 469.429688 327.382812 472.0625 326.003906 C 473.167969 325.421875 472.183594 323.75 471.078125 324.332031 C 468.425781 325.722656 465.683594 326.945312 463.015625 328.308594 C 462.523438 327.558594 462.023438 326.808594 461.535156 326.058594 C 462.671875 325.539062 463.820312 325.035156 464.957031 324.507812 C 467.457031 323.371094 470.730469 322.414062 472.695312 320.429688 C 473.910156 319.207031 475.648438 316.757812 473.917969 315.277344 C 472.375 313.96875 469.105469 313.941406 467.21875 314.125 C 462.992188 314.539062 458.640625 316.042969 454.601562 317.285156 C 450.085938 318.667969 445.636719 320.273438 441.214844 321.929688 C 438.570312 322.925781 435.902344 323.894531 433.242188 324.882812 C 433.164062 324.855469 433.089844 324.835938 433 324.824219 C 427.679688 324.085938 422.5625 322.613281 417.683594 320.355469 C 416.558594 319.835938 415.570312 321.507812 416.703125 322.023438 C 420.882812 323.964844 425.210938 325.367188 429.707031 326.222656 C 428.5 326.691406 427.304688 327.164062 426.109375 327.660156 C 425.648438 327.851562 425.191406 328.054688 424.746094 328.269531 C 424.691406 328.253906 424.636719 328.246094 424.574219 328.242188 C 421.210938 327.988281 418.503906 326.65625 415.671875 324.917969 C 414.601562 324.261719 413.625 325.941406 414.691406 326.589844 C 417.113281 328.078125 419.464844 329.230469 422.121094 329.816406 C 420.613281 330.914062 419.390625 332.320312 418.667969 334.210938 C 418.222656 335.378906 420.101562 335.882812 420.535156 334.722656 C 422.230469 330.289062 427.925781 329.03125 431.902344 327.539062 C 436.652344 325.742188 441.386719 323.886719 446.167969 322.167969 C 450.917969 320.457031 455.714844 318.867188 460.597656 317.589844 C 462.859375 317.003906 465.253906 316.234375 467.578125 316.042969 C 468.644531 315.953125 471.105469 315.808594 471.953125 316.476562 C 472.394531 316.472656 472.632812 316.667969 472.667969 317.066406 C 472.445312 317.632812 472.128906 318.148438 471.726562 318.613281 C 471.1875 319.277344 470.59375 319.679688 469.851562 320.082031 C 468.355469 320.871094 466.78125 321.546875 465.246094 322.25 C 461.601562 323.9375 457.929688 325.558594 454.261719 327.183594 C 447.328125 330.253906 440.355469 333.242188 433.546875 336.5625 C 433.308594 336.046875 433.0625 335.535156 432.796875 335.027344 C 432.21875 333.925781 430.539062 334.90625 431.117188 336.011719 C 434.105469 341.707031 435.265625 347.972656 434.597656 354.371094 C 434.46875 355.613281 436.414062 355.601562 436.542969 354.371094 C 436.972656 350.230469 436.636719 346.136719 435.59375 342.207031 C 437.960938 339.824219 440.328125 337.453125 442.695312 335.078125 C 442.75 335.023438 442.800781 334.960938 442.832031 334.90625 C 444.285156 336.238281 445.738281 337.558594 447.1875 338.890625 C 448.105469 339.738281 449.484375 338.367188 448.5625 337.519531 C 447.160156 336.238281 445.761719 334.953125 444.355469 333.671875 C 444.675781 333.527344 444.996094 333.386719 445.308594 333.242188 C 445.34375 333.277344 445.371094 333.304688 445.40625 333.332031 C 446.917969 334.46875 448.433594 335.609375 449.949219 336.75 C 449.765625 344.261719 450.25 351.75 451.390625 359.1875 C 451.574219 360.417969 453.441406 359.898438 453.257812 358.675781 C 451.933594 350.039062 451.550781 341.328125 452.050781 332.613281 C 452.125 331.367188 450.179688 331.367188 450.113281 332.613281 C 450.078125 333.207031 450.058594 333.800781 450.03125 334.402344 C 449.125 333.71875 448.214844 333.035156 447.316406 332.355469 C 449.585938 331.34375 451.875 330.347656 454.144531 329.347656 C 456.015625 328.519531 457.882812 327.695312 459.746094 326.863281 C 463.335938 332.328125 466.917969 337.792969 470.503906 343.257812 " fill-opacity="1" fill-rule="nonzero"/><path fill="#284779" d="M 323.601562 163.179688 C 323.695312 167.941406 323.792969 172.699219 323.886719 177.460938 C 323.90625 178.707031 325.851562 178.714844 325.824219 177.460938 C 325.730469 172.699219 325.632812 167.941406 325.539062 163.179688 C 325.515625 161.929688 323.574219 161.929688 323.601562 163.179688 " fill-opacity="1" fill-rule="nonzero"/><path fill="#284779" d="M 304.613281 154.847656 C 305.710938 149.078125 311.484375 145.808594 316.960938 148.238281 C 318.09375 148.738281 319.082031 147.066406 317.945312 146.558594 C 311.414062 143.667969 304.101562 147.195312 302.742188 154.332031 C 302.511719 155.550781 304.378906 156.070312 304.613281 154.847656 " fill-opacity="1" fill-rule="nonzero"/><path fill="#284779" d="M 248.351562 176.792969 C 248.953125 177.140625 249.855469 176.703125 249.804688 175.953125 C 249.636719 173.046875 249.152344 170.1875 248.203125 167.421875 C 247.582031 165.617188 246.824219 163.371094 245.105469 162.292969 C 241.027344 159.734375 238.957031 165.097656 238.644531 168.152344 C 238.523438 169.394531 240.460938 169.386719 240.589844 168.152344 C 240.71875 166.878906 241.304688 161.890625 244.445312 164.238281 C 245.472656 165.007812 245.945312 166.816406 246.332031 167.933594 C 247.078125 170.078125 247.519531 172.273438 247.753906 174.511719 C 245.195312 173.980469 242.539062 175.414062 242.15625 178.347656 C 241.714844 181.757812 244.832031 183.859375 247.929688 183.339844 C 249.15625 183.128906 248.640625 181.261719 247.417969 181.464844 C 242.507812 182.296875 243.78125 174.144531 248.351562 176.792969 " fill-opacity="1" fill-rule="nonzero"/><path fill="#284779" d="M 317.601562 196.542969 C 318.703125 195.949219 317.71875 194.277344 316.621094 194.871094 C 312.289062 197.203125 307.335938 195.839844 304.832031 191.617188 C 304.195312 190.546875 302.519531 191.515625 303.160156 192.59375 C 306.210938 197.742188 312.34375 199.382812 317.601562 196.542969 " fill-opacity="1" fill-rule="nonzero"/><path fill="#284779" d="M 611.953125 146.933594 C 610.929688 153.390625 610.59375 159.84375 611.148438 166.351562 C 611.25 167.585938 613.195312 167.601562 613.085938 166.351562 C 612.546875 160.019531 612.828125 153.730469 613.828125 147.453125 C 614.019531 146.234375 612.152344 145.707031 611.953125 146.933594 " fill-opacity="1" fill-rule="nonzero"/><path fill="#284779" d="M 683.398438 151.316406 C 684.226562 152.25 685.597656 150.878906 684.773438 149.945312 C 681.941406 146.710938 677.074219 146.851562 673.894531 149.515625 C 669.441406 153.261719 669.269531 159.476562 669.386719 164.824219 C 669.398438 165.628906 670.457031 166.15625 671.042969 165.511719 C 672.6875 163.707031 674.933594 161.097656 677.691406 161.953125 C 680.882812 162.933594 679.027344 166.277344 676.695312 166.878906 C 675.371094 167.21875 673.921875 167.046875 672.578125 166.945312 C 671.335938 166.851562 671.335938 168.789062 672.578125 168.882812 C 675.179688 169.089844 678.058594 169.171875 680.042969 167.183594 C 681.433594 165.785156 682 163.617188 680.835938 161.890625 C 678.261719 158.097656 674.109375 160.15625 671.289062 162.566406 C 671.28125 159.1875 671.578125 155.730469 673.492188 152.871094 C 675.71875 149.554688 680.4375 147.9375 683.398438 151.316406 " fill-opacity="1" fill-rule="nonzero"/><path fill="#284779" d="M 664.847656 204.117188 C 670.683594 197.335938 675.050781 189.542969 677.773438 181.019531 C 678.152344 179.828125 676.285156 179.324219 675.902344 180.507812 C 673.28125 188.703125 669.085938 196.222656 663.476562 202.746094 C 662.667969 203.6875 664.03125 205.0625 664.847656 204.117188 " fill-opacity="1" fill-rule="nonzero"/><path fill="#284779" d="M 635.820312 137.425781 C 636.332031 138.558594 638.003906 137.574219 637.492188 136.441406 C 634.707031 130.265625 628.621094 126.289062 621.875 126.078125 C 620.625 126.039062 620.625 127.976562 621.875 128.015625 C 627.988281 128.207031 633.316406 131.863281 635.820312 137.425781 " fill-opacity="1" fill-rule="nonzero"/><path fill="#284779" d="M 641.1875 180.25 C 639.277344 182.578125 637.117188 184.726562 634.277344 185.8125 C 630.941406 187.09375 627.371094 186.671875 623.933594 185.898438 C 629.683594 184.015625 635.4375 182.132812 641.1875 180.25 Z M 620.214844 186.976562 C 625.011719 188.21875 630.285156 189.488281 635.089844 187.589844 C 639.269531 185.941406 642.097656 182.289062 644.742188 178.832031 C 645.261719 178.148438 644.402344 177.160156 643.644531 177.40625 C 636.363281 179.792969 629.078125 182.175781 621.796875 184.554688 C 621.4375 184.671875 621.238281 184.929688 621.164062 185.21875 C 621.019531 185.175781 620.878906 185.140625 620.734375 185.101562 C 619.519531 184.792969 619.007812 186.65625 620.214844 186.976562 " fill-opacity="1" fill-rule="nonzero"/><path fill="#284779" d="M 255.011719 562.191406 C 252.496094 552.078125 249.949219 541.972656 247.378906 531.871094 C 247.0625 530.664062 245.195312 531.175781 245.507812 532.386719 C 254.003906 565.710938 262.082031 599.140625 270.390625 632.519531 C 272.90625 642.628906 275.453125 652.734375 278.03125 662.832031 C 278.339844 664.039062 280.207031 663.527344 279.902344 662.320312 C 271.40625 628.992188 263.328125 595.558594 255.011719 562.191406 " fill-opacity="1" fill-rule="nonzero"/><path fill="#284779" d="M 293.730469 720.503906 C 292.789062 719.699219 291.410156 721.0625 292.359375 721.875 C 301.46875 729.625 309.519531 738.527344 318.625 746.285156 C 319.566406 747.089844 320.945312 745.726562 319.996094 744.914062 C 310.890625 737.164062 302.839844 728.253906 293.730469 720.503906 " fill-opacity="1" fill-rule="nonzero"/><path fill="#284779" d="M 312.609375 744.558594 C 307.703125 742.054688 302.46875 740.324219 297.566406 737.820312 C 296.460938 737.253906 295.476562 738.925781 296.589844 739.496094 C 301.496094 741.996094 306.722656 743.734375 311.625 746.238281 C 312.738281 746.804688 313.722656 745.125 312.609375 744.558594 " fill-opacity="1" fill-rule="nonzero"/><path fill="#284779" d="M 552.847656 530.722656 C 549.457031 534.238281 545.902344 537.601562 542.554688 541.15625 C 538.984375 544.941406 535.820312 549.070312 532.753906 553.273438 C 532.019531 554.289062 533.699219 555.25 534.425781 554.253906 C 540.355469 546.117188 547.253906 539.3125 554.21875 532.09375 C 555.085938 531.195312 553.714844 529.824219 552.847656 530.722656 " fill-opacity="1" fill-rule="nonzero"/><path fill="#284779" d="M 534.050781 472.191406 C 562.507812 456.519531 593.109375 445.535156 624.4375 437.179688 C 633.34375 434.796875 642.292969 432.621094 651.265625 430.558594 C 652.488281 430.28125 651.96875 428.402344 650.753906 428.683594 C 619.152344 435.957031 587.820312 444.792969 558.148438 458.035156 C 549.621094 461.84375 541.257812 466.011719 533.070312 470.515625 C 531.972656 471.113281 532.953125 472.792969 534.050781 472.191406 " fill-opacity="1" fill-rule="nonzero"/><path fill="#284779" d="M 199.890625 434.996094 C 199.980469 435.042969 200.097656 435.070312 200.21875 435.082031 C 200.316406 435.089844 200.410156 435.097656 200.492188 435.082031 C 222.179688 434.503906 245.011719 442.289062 262.484375 454.992188 C 279.667969 467.5 291.804688 485.761719 298.992188 505.625 C 302.476562 515.277344 303.8125 525.476562 305.164062 535.601562 C 305.328125 536.816406 307.273438 536.835938 307.101562 535.601562 C 305.839844 526.144531 304.660156 516.582031 301.679688 507.484375 C 298.609375 498.117188 294.097656 488.859375 288.871094 480.523438 C 277.0625 461.664062 259.171875 447.863281 238.433594 440.097656 C 226.363281 435.574219 213.394531 432.796875 200.472656 433.144531 C 193.464844 431.121094 186.695312 428.390625 179.695312 426.378906 C 178.496094 426.03125 177.976562 427.898438 179.179688 428.246094 C 186.15625 430.253906 192.910156 432.976562 199.890625 434.996094 " fill-opacity="1" fill-rule="nonzero"/><path fill="#284779" d="M 335.207031 347.417969 C 329.644531 347.40625 324.085938 347.363281 318.523438 347.335938 C 309.410156 347.304688 299.269531 348.222656 291.65625 342.234375 C 284.027344 336.230469 280.390625 326.652344 276.859375 317.90625 C 268.835938 298.015625 261.125 277.992188 253.410156 257.980469 C 251.285156 252.488281 249.152344 247.003906 247.0625 241.496094 C 249.34375 237.832031 252.152344 234.601562 255.460938 231.871094 C 258.574219 234.707031 268.425781 246.265625 286.410156 289.664062 L 286.574219 289.570312 L 290.59375 288.234375 L 289.433594 288.921875 C 290.148438 290.667969 290.878906 292.46875 291.621094 294.324219 C 291.777344 293.199219 291.914062 292.039062 292.03125 290.824219 C 292.03125 290.824219 318.890625 293.054688 313.394531 265.777344 C 313.394531 265.777344 327.980469 270.683594 327.980469 247.269531 C 327.980469 229.257812 318.886719 222.003906 317.0625 205.332031 C 311.597656 213.632812 302.960938 218.054688 290.59375 219.792969 C 284.410156 220.660156 279.226562 220.074219 274.894531 218.539062 C 274.46875 218.503906 274.039062 218.5 273.609375 218.511719 C 273.398438 218.519531 273.179688 218.53125 272.960938 218.554688 C 272.3125 218.613281 271.667969 218.730469 271.011719 218.886719 C 269.578125 219.242188 268.132812 219.828125 266.683594 220.597656 C 263.800781 222.132812 260.925781 224.40625 258.191406 227.035156 C 257.917969 227.292969 257.644531 227.558594 257.378906 227.824219 C 257.148438 228.058594 256.921875 228.289062 256.691406 228.519531 C 256.617188 228.554688 256.539062 228.589844 256.464844 228.644531 C 252.417969 231.578125 248.980469 235.113281 246.210938 239.230469 C 245.71875 237.929688 245.226562 236.625 244.75 235.324219 C 244.601562 234.921875 244.28125 234.722656 243.9375 234.675781 C 247.390625 210.070312 253.203125 187.523438 253.203125 187.523438 C 253.203125 187.523438 251.710938 187.78125 249.238281 188.199219 C 248.90625 188.21875 248.570312 188.226562 248.230469 188.21875 C 248.214844 188.21875 248.203125 188.21875 248.1875 188.21875 C 247.855469 188.21875 247.527344 188.207031 247.199219 188.179688 C 247.1875 188.179688 247.179688 188.179688 247.164062 188.179688 C 246.164062 188.101562 245.171875 187.941406 244.21875 187.6875 C 244.210938 187.6875 244.203125 187.6875 244.199219 187.679688 C 243.890625 187.605469 243.582031 187.507812 243.277344 187.414062 C 243.261719 187.402344 243.242188 187.402344 243.230469 187.394531 C 242.929688 187.292969 242.628906 187.183594 242.335938 187.066406 C 242.328125 187.058594 242.316406 187.058594 242.308594 187.050781 C 241.859375 186.867188 241.421875 186.664062 240.992188 186.4375 C 240.5625 186.21875 240.144531 185.972656 239.742188 185.714844 C 239.722656 185.703125 239.707031 185.6875 239.6875 185.679688 C 239.4375 185.511719 239.183594 185.332031 238.9375 185.148438 C 238.917969 185.136719 238.890625 185.113281 238.871094 185.101562 C 238.625 184.910156 238.386719 184.726562 238.152344 184.519531 C 238.140625 184.507812 238.125 184.5 238.113281 184.488281 C 237.632812 184.070312 237.183594 183.628906 236.761719 183.144531 C 236.742188 183.128906 236.734375 183.117188 236.71875 183.101562 C 236.515625 182.878906 236.324219 182.636719 236.132812 182.394531 C 236.113281 182.367188 236.085938 182.339844 236.066406 182.304688 C 235.882812 182.066406 235.703125 181.820312 235.539062 181.566406 C 235.511719 181.539062 235.492188 181.5 235.472656 181.472656 C 235.300781 181.210938 235.136719 180.953125 234.980469 180.679688 C 234.972656 180.660156 234.960938 180.632812 234.945312 180.613281 C 234.78125 180.332031 234.632812 180.039062 234.488281 179.746094 C 234.347656 179.453125 234.214844 179.152344 234.09375 178.851562 C 234.078125 178.8125 234.066406 178.777344 234.050781 178.742188 C 233.9375 178.449219 233.828125 178.15625 233.726562 177.855469 C 233.710938 177.808594 233.699219 177.753906 233.675781 177.707031 C 233.582031 177.40625 233.492188 177.097656 233.417969 176.785156 C 233.40625 176.738281 233.390625 176.6875 233.378906 176.640625 C 233.300781 176.320312 233.226562 175.992188 233.164062 175.660156 C 233.160156 175.632812 233.160156 175.605469 233.152344 175.578125 C 233.089844 175.242188 233.042969 174.902344 233.003906 174.554688 C 233.003906 174.53125 232.996094 174.503906 232.996094 174.476562 C 232.953125 174.136719 232.925781 173.78125 232.90625 173.425781 C 232.898438 173.375 232.898438 173.320312 232.894531 173.265625 C 232.878906 172.914062 232.871094 172.566406 232.871094 172.207031 C 232.871094 172.144531 232.871094 172.078125 232.871094 172.015625 C 232.878906 171.652344 232.894531 171.292969 232.921875 170.921875 C 232.925781 170.871094 232.925781 170.808594 232.933594 170.753906 C 232.960938 170.371094 233.003906 169.980469 233.054688 169.585938 C 233.054688 169.566406 233.054688 169.546875 233.0625 169.523438 C 233.109375 169.128906 233.179688 168.734375 233.253906 168.332031 C 233.261719 168.289062 233.269531 168.25 233.273438 168.207031 C 233.351562 167.804688 233.4375 167.410156 233.539062 167 C 233.554688 166.933594 233.566406 166.863281 233.589844 166.796875 C 233.691406 166.394531 233.800781 165.992188 233.921875 165.589844 C 233.945312 165.511719 233.964844 165.4375 233.984375 165.371094 C 234.113281 164.953125 234.25 164.539062 234.402344 164.113281 C 234.421875 164.058594 234.449219 164 234.46875 163.945312 C 234.625 163.5 234.804688 163.050781 234.988281 162.59375 C 242.316406 144.964844 255.898438 161.796875 255.898438 161.796875 C 280.480469 161.796875 320.550781 125.902344 320.550781 125.902344 C 320.859375 128.050781 321.152344 130.152344 321.429688 132.210938 C 323.035156 130.097656 325.167969 128.007812 327.980469 125.902344 C 327.980469 125.902344 341.796875 97.292969 290.59375 88.929688 C 239.386719 80.558594 204.277344 112.871094 193.59375 150.84375 C 182.910156 188.820312 105.5 181.5 89.816406 226.214844 C 74.714844 269.230469 106.542969 276.667969 117.378906 272.976562 C 113.242188 274.804688 99.898438 281.957031 104.789062 296.304688 C 106.816406 302.261719 110.132812 305.332031 113.570312 306.816406 C 119.894531 309.554688 126.65625 306.925781 126.65625 306.925781 C 126.65625 306.925781 126.03125 337.859375 158.914062 335.515625 C 191.800781 333.160156 198.976562 310.160156 198.976562 310.160156 C 198.976562 310.160156 195.765625 321.910156 202.714844 330.128906 C 205.710938 333.671875 210.601562 336.5625 218.46875 337.566406 C 228.035156 338.789062 235.015625 336.292969 240.023438 332.648438 C 240.378906 332.394531 240.710938 332.128906 241.046875 331.863281 C 248.769531 325.878906 252.535156 321.792969 253.761719 317.761719 C 254.515625 315.265625 254.300781 312.792969 253.449219 309.902344 C 253.273438 309.308594 253.074219 308.695312 252.84375 308.058594 C 251.015625 302.949219 247.609375 296.441406 244.148438 286.546875 C 243.582031 284.9375 243.121094 283.171875 242.746094 281.265625 C 242.683594 280.945312 242.628906 280.613281 242.574219 280.285156 C 242.511719 279.964844 242.453125 279.648438 242.402344 279.328125 C 242.402344 279.320312 242.398438 279.316406 242.398438 279.308594 C 242.191406 277.992188 242.015625 276.613281 241.878906 275.195312 C 241.878906 275.195312 241.878906 275.1875 241.878906 275.1875 C 241.660156 272.949219 241.539062 270.597656 241.484375 268.148438 C 241.359375 262.785156 241.597656 256.992188 242.089844 251.050781 C 242.199219 249.691406 242.320312 248.320312 242.457031 246.949219 C 242.765625 243.84375 243.132812 240.726562 243.542969 237.617188 C 244.007812 238.878906 244.476562 240.140625 244.949219 241.394531 C 244.921875 241.660156 245.03125 241.90625 245.207031 242.089844 C 251.042969 257.652344 257.175781 273.113281 263.21875 288.601562 C 267.011719 298.324219 270.8125 308.046875 274.714844 317.734375 C 278.121094 326.195312 281.503906 335.125 288.101562 341.675781 C 295.4375 348.949219 304.996094 349.234375 314.738281 349.269531 C 321.558594 349.289062 328.382812 349.34375 335.207031 349.363281 C 336.453125 349.363281 336.460938 347.425781 335.207031 347.417969 " fill-opacity="1" fill-rule="nonzero"/><path fill="#284779" d="M 444.339844 207.664062 C 443.363281 219.609375 445.371094 231.488281 450.121094 242.488281 C 450.609375 243.632812 452.28125 242.644531 451.796875 241.511719 C 447.1875 230.832031 445.335938 219.242188 446.277344 207.664062 C 446.378906 206.421875 444.441406 206.429688 444.339844 207.664062 " fill-opacity="1" fill-rule="nonzero"/><path fill="#284779" d="M 382.21875 231.917969 C 383.257812 236.960938 383.972656 242.21875 385.367188 247.175781 C 386.367188 250.75 389.480469 250.136719 392.449219 249.464844 C 396.480469 248.558594 400.472656 247.214844 404.101562 245.234375 C 405.199219 244.636719 404.222656 242.957031 403.125 243.558594 C 399.980469 245.269531 396.570312 246.445312 393.109375 247.316406 C 392.25 247.527344 391.316406 247.84375 390.433594 247.910156 C 390.195312 247.953125 389.957031 248 389.71875 248.039062 C 388.089844 248.117188 387.226562 247.527344 387.144531 246.285156 C 386.613281 245.222656 386.410156 243.714844 386.226562 242.300781 C 386.339844 242.316406 386.472656 242.308594 386.609375 242.269531 C 392.53125 240.515625 398.453125 238.769531 404.378906 237.015625 C 405.574219 236.660156 405.0625 234.789062 403.863281 235.144531 C 397.941406 236.898438 392.011719 238.644531 386.089844 240.398438 C 386.035156 240.414062 385.992188 240.433594 385.945312 240.453125 C 385.9375 240.414062 385.933594 240.371094 385.925781 240.332031 C 385.371094 237.640625 384.820312 234.949219 384.265625 232.257812 C 384.316406 232.257812 384.355469 232.257812 384.402344 232.246094 C 390.714844 231.058594 397.019531 229.871094 403.328125 228.691406 C 404.550781 228.460938 404.03125 226.589844 402.8125 226.816406 C 396.507812 228.003906 390.195312 229.1875 383.886719 230.375 C 383.414062 228.097656 382.945312 225.820312 382.480469 223.539062 C 388.898438 222.128906 395.257812 220.4375 401.6875 219.039062 C 402.90625 218.769531 402.386719 216.902344 401.175781 217.167969 C 394.789062 218.558594 388.46875 220.230469 382.089844 221.644531 C 381.742188 219.945312 381.394531 218.246094 381.039062 216.546875 C 381.933594 216.402344 382.839844 216.34375 383.722656 216.109375 C 384.929688 215.804688 384.417969 213.925781 383.210938 214.242188 C 382.035156 214.542969 380.816406 214.554688 379.640625 214.855469 C 379.109375 215 378.855469 215.542969 378.964844 216.050781 C 380.050781 221.34375 381.136719 226.628906 382.21875 231.917969 " fill-opacity="1" fill-rule="nonzero"/><path fill="#284779" d="M 521.714844 207.1875 C 518.109375 205.929688 514.476562 204.710938 510.863281 203.449219 C 509.679688 203.03125 509.175781 204.90625 510.34375 205.316406 C 513.25 206.332031 516.164062 207.324219 519.078125 208.324219 C 520.542969 208.832031 522.199219 209.21875 523.578125 209.9375 C 525.777344 211.082031 524.976562 213.59375 524.363281 215.632812 C 524.261719 215.597656 524.152344 215.578125 524.03125 215.578125 C 515.957031 215.625 508.011719 214.125 500.511719 211.15625 C 499.351562 210.699219 498.847656 212.570312 499.992188 213.027344 C 507.59375 216.035156 515.683594 217.542969 523.851562 217.515625 C 523.394531 219.269531 522.9375 221.015625 522.480469 222.769531 C 514.90625 222.503906 507.429688 221.4375 500.074219 219.582031 C 498.859375 219.277344 498.347656 221.144531 499.558594 221.453125 C 506.910156 223.316406 514.410156 224.386719 521.984375 224.6875 C 521.300781 227.304688 520.617188 229.925781 519.9375 232.554688 C 513.242188 232.144531 506.78125 230.4375 500.742188 227.46875 C 499.625 226.925781 498.640625 228.597656 499.761719 229.148438 C 505.964844 232.191406 512.574219 233.980469 519.4375 234.457031 C 518.96875 236.269531 518.496094 238.078125 518.027344 239.886719 C 512.964844 240.039062 507.8125 239.273438 503.058594 237.527344 C 501.882812 237.089844 501.378906 238.964844 502.546875 239.394531 C 507.667969 241.277344 513.332031 242.070312 518.78125 241.8125 C 519.207031 241.789062 519.601562 241.523438 519.71875 241.09375 C 520.289062 238.882812 520.871094 236.667969 521.445312 234.457031 C 521.929688 234.21875 522.042969 233.5625 521.796875 233.097656 C 522.378906 230.859375 522.964844 228.617188 523.546875 226.378906 C 524.226562 223.757812 524.910156 221.144531 525.59375 218.527344 C 526.082031 216.640625 526.820312 214.683594 526.984375 212.734375 C 527.277344 209.210938 524.574219 208.183594 521.714844 207.1875 " fill-opacity="1" fill-rule="nonzero"/><path fill="#284779" d="M 320.167969 167.511719 C 318.75 161.378906 310.746094 160.265625 307.648438 165.710938 C 307.027344 166.804688 308.707031 167.777344 309.320312 166.695312 C 311.632812 162.632812 317.253906 163.519531 318.300781 168.03125 C 318.578125 169.246094 320.453125 168.734375 320.167969 167.511719 " fill-opacity="1" fill-rule="nonzero"/><path fill="#284779" d="M 622.277344 150.980469 C 625.503906 147.582031 630.785156 148.914062 631.964844 153.449219 C 632.269531 154.652344 634.148438 154.140625 633.832031 152.933594 C 632.292969 147.011719 625.121094 145.175781 620.90625 149.609375 C 620.046875 150.515625 621.410156 151.886719 622.277344 150.980469 " fill-opacity="1" fill-rule="nonzero"/><g clip-path="url(#ee70f77b61)"><g clip-path="url(#e288c9359d)"><path fill="#f2757a" d="M 422.484375 48 L 472.179688 48 L 472.179688 91.632812 L 422.484375 91.632812 Z M 422.484375 48 " fill-opacity="1" fill-rule="nonzero"/></g></g></svg>