<svg xmlns="http://www.w3.org/2000/svg" xmlns:xlink="http://www.w3.org/1999/xlink" width="500" zoomAndPan="magnify" viewBox="0 0 375 374.999991" height="500" preserveAspectRatio="xMidYMid meet" version="1.0"><defs><clipPath id="5a2946d1f6"><path d="M 0 135 L 375 135 L 375 343.921875 L 0 343.921875 Z M 0 135 " clip-rule="nonzero"/></clipPath><clipPath id="ace490d773"><path d="M 41 31.171875 L 334 31.171875 L 334 194 L 41 194 Z M 41 31.171875 " clip-rule="nonzero"/></clipPath></defs><g clip-path="url(#5a2946d1f6)"><path fill="#929497" d="M 375 239.636719 C 375 241.339844 374.925781 243.042969 374.773438 244.75 C 374.625 246.453125 374.398438 248.152344 374.097656 249.847656 C 373.796875 251.546875 373.421875 253.238281 372.96875 254.925781 C 372.519531 256.609375 371.996094 258.289062 371.398438 259.964844 C 370.796875 261.636719 370.125 263.300781 369.378906 264.953125 C 368.636719 266.609375 367.816406 268.25 366.925781 269.882812 C 366.035156 271.515625 365.074219 273.132812 364.039062 274.738281 C 363.003906 276.34375 361.902344 277.933594 360.726562 279.511719 C 359.554688 281.085938 358.308594 282.644531 356.996094 284.1875 C 355.6875 285.726562 354.308594 287.25 352.859375 288.753906 C 351.414062 290.257812 349.902344 291.742188 348.324219 293.203125 C 346.746094 294.667969 345.105469 296.105469 343.402344 297.523438 C 341.695312 298.941406 339.929688 300.335938 338.101562 301.707031 C 336.273438 303.074219 334.386719 304.417969 332.4375 305.738281 C 330.492188 307.054688 328.488281 308.347656 326.429688 309.609375 C 324.367188 310.875 322.253906 312.109375 320.082031 313.3125 C 317.914062 314.519531 315.691406 315.695312 313.417969 316.839844 C 311.144531 317.984375 308.820312 319.101562 306.449219 320.179688 C 304.078125 321.261719 301.660156 322.3125 299.195312 323.328125 C 296.730469 324.34375 294.222656 325.324219 291.667969 326.273438 C 289.117188 327.21875 286.527344 328.132812 283.894531 329.007812 C 281.261719 329.886719 278.59375 330.726562 275.886719 331.53125 C 273.179688 332.332031 270.441406 333.101562 267.667969 333.828125 C 264.890625 334.558594 262.089844 335.25 259.253906 335.902344 C 256.417969 336.554688 253.554688 337.167969 250.667969 337.742188 C 247.777344 338.316406 244.863281 338.851562 241.929688 339.347656 C 238.992188 339.839844 236.035156 340.296875 233.058594 340.710938 C 230.082031 341.125 227.089844 341.5 224.078125 341.832031 C 221.070312 342.164062 218.046875 342.457031 215.011719 342.707031 C 211.976562 342.957031 208.933594 343.164062 205.878906 343.332031 C 202.824219 343.5 199.765625 343.625 196.699219 343.707031 C 193.636719 343.792969 190.570312 343.832031 187.5 343.832031 C 184.429688 343.832031 181.363281 343.792969 178.300781 343.707031 C 175.234375 343.625 172.175781 343.5 169.121094 343.332031 C 166.066406 343.164062 163.023438 342.957031 159.988281 342.707031 C 156.953125 342.457031 153.929688 342.164062 150.921875 341.832031 C 147.910156 341.5 144.917969 341.125 141.941406 340.710938 C 138.964844 340.296875 136.007812 339.839844 133.070312 339.347656 C 130.136719 338.851562 127.222656 338.316406 124.332031 337.742188 C 121.445312 337.167969 118.582031 336.554688 115.746094 335.902344 C 112.910156 335.25 110.105469 334.558594 107.332031 333.828125 C 104.558594 333.101562 101.820312 332.332031 99.113281 331.53125 C 96.40625 330.726562 93.738281 329.886719 91.105469 329.007812 C 88.472656 328.132812 85.882812 327.21875 83.332031 326.273438 C 80.777344 325.324219 78.269531 324.34375 75.804688 323.328125 C 73.339844 322.3125 70.921875 321.261719 68.550781 320.179688 C 66.179688 319.101562 63.855469 317.984375 61.582031 316.839844 C 59.308594 315.695312 57.085938 314.519531 54.917969 313.3125 C 52.746094 312.109375 50.632812 310.875 48.570312 309.609375 C 46.511719 308.347656 44.507812 307.054688 42.558594 305.738281 C 40.613281 304.417969 38.726562 303.074219 36.898438 301.707031 C 35.070312 300.335938 33.304688 298.941406 31.597656 297.523438 C 29.894531 296.105469 28.253906 294.667969 26.675781 293.203125 C 25.097656 291.742188 23.585938 290.257812 22.140625 288.753906 C 20.691406 287.25 19.3125 285.726562 18.003906 284.1875 C 16.691406 282.644531 15.445312 281.085938 14.273438 279.511719 C 13.097656 277.933594 11.996094 276.34375 10.960938 274.738281 C 9.925781 273.132812 8.964844 271.515625 8.074219 269.882812 C 7.183594 268.25 6.363281 266.609375 5.621094 264.953125 C 4.875 263.300781 4.203125 261.636719 3.601562 259.964844 C 3.003906 258.289062 2.480469 256.609375 2.03125 254.925781 C 1.578125 253.238281 1.203125 251.546875 0.902344 249.847656 C 0.601562 248.152344 0.375 246.453125 0.226562 244.75 C 0.0742188 243.042969 0 241.339844 0 239.636719 C 0 237.929688 0.0742188 236.226562 0.226562 234.523438 C 0.375 232.820312 0.601562 231.121094 0.902344 229.421875 C 1.203125 227.726562 1.578125 226.035156 2.03125 224.347656 C 2.480469 222.660156 3.003906 220.980469 3.601562 219.308594 C 4.203125 217.636719 4.875 215.972656 5.621094 214.316406 C 6.363281 212.664062 7.183594 211.019531 8.074219 209.386719 C 8.964844 207.757812 9.925781 206.136719 10.960938 204.53125 C 11.996094 202.925781 13.097656 201.335938 14.273438 199.761719 C 15.445312 198.183594 16.691406 196.625 18.003906 195.085938 C 19.3125 193.542969 20.691406 192.019531 22.140625 190.515625 C 23.585938 189.011719 25.097656 187.53125 26.675781 186.066406 C 28.253906 184.605469 29.894531 183.164062 31.597656 181.746094 C 33.304688 180.328125 35.070312 178.933594 36.898438 177.566406 C 38.726562 176.195312 40.613281 174.851562 42.558594 173.53125 C 44.507812 172.214844 46.511719 170.925781 48.570312 169.660156 C 50.632812 168.398438 52.746094 167.164062 54.917969 165.957031 C 57.085938 164.75 59.308594 163.574219 61.582031 162.429688 C 63.855469 161.285156 66.179688 160.171875 68.550781 159.089844 C 70.921875 158.007812 73.339844 156.957031 75.804688 155.941406 C 78.269531 154.925781 80.777344 153.945312 83.332031 152.996094 C 85.882812 152.050781 88.472656 151.136719 91.105469 150.261719 C 93.738281 149.386719 96.40625 148.542969 99.113281 147.742188 C 101.820312 146.9375 104.558594 146.171875 107.332031 145.441406 C 110.105469 144.710938 112.910156 144.023438 115.746094 143.367188 C 118.582031 142.714844 121.445312 142.101562 124.332031 141.527344 C 127.222656 140.953125 130.136719 140.417969 133.070312 139.925781 C 136.007812 139.429688 138.964844 138.972656 141.941406 138.558594 C 144.917969 138.144531 147.910156 137.773438 150.921875 137.441406 C 153.929688 137.105469 156.953125 136.816406 159.988281 136.566406 C 163.023438 136.316406 166.066406 136.105469 169.121094 135.9375 C 172.175781 135.773438 175.234375 135.648438 178.300781 135.5625 C 181.363281 135.480469 184.429688 135.4375 187.5 135.4375 C 190.570312 135.4375 193.636719 135.480469 196.699219 135.5625 C 199.765625 135.648438 202.824219 135.773438 205.878906 135.9375 C 208.933594 136.105469 211.976562 136.316406 215.011719 136.566406 C 218.046875 136.816406 221.070312 137.105469 224.078125 137.441406 C 227.089844 137.773438 230.082031 138.144531 233.058594 138.558594 C 236.035156 138.972656 238.992188 139.429688 241.929688 139.925781 C 244.863281 140.417969 247.777344 140.953125 250.667969 141.527344 C 253.554688 142.101562 256.417969 142.714844 259.253906 143.367188 C 262.089844 144.023438 264.890625 144.710938 267.667969 145.441406 C 270.441406 146.171875 273.179688 146.9375 275.886719 147.742188 C 278.59375 148.542969 281.261719 149.386719 283.894531 150.261719 C 286.527344 151.136719 289.117188 152.050781 291.667969 152.996094 C 294.222656 153.945312 296.730469 154.925781 299.195312 155.941406 C 301.660156 156.957031 304.078125 158.007812 306.449219 159.089844 C 308.820312 160.171875 311.144531 161.285156 313.417969 162.429688 C 315.691406 163.574219 317.914062 164.75 320.082031 165.957031 C 322.253906 167.164062 324.367188 168.398438 326.429688 169.660156 C 328.488281 170.925781 330.492188 172.214844 332.4375 173.53125 C 334.386719 174.851562 336.273438 176.195312 338.101562 177.566406 C 339.929688 178.933594 341.695312 180.328125 343.402344 181.746094 C 345.105469 183.164062 346.746094 184.605469 348.324219 186.066406 C 349.902344 187.53125 351.414062 189.011719 352.859375 190.515625 C 354.308594 192.019531 355.6875 193.542969 356.996094 195.085938 C 358.308594 196.625 359.554688 198.183594 360.726562 199.761719 C 361.902344 201.335938 363.003906 202.925781 364.039062 204.53125 C 365.074219 206.136719 366.035156 207.757812 366.925781 209.386719 C 367.816406 211.019531 368.636719 212.664062 369.378906 214.316406 C 370.125 215.972656 370.796875 217.636719 371.398438 219.308594 C 371.996094 220.980469 372.519531 222.660156 372.96875 224.347656 C 373.421875 226.035156 373.796875 227.726562 374.097656 229.421875 C 374.398438 231.121094 374.625 232.820312 374.773438 234.523438 C 374.925781 236.226562 375 237.929688 375 239.636719 Z M 375 239.636719 " fill-opacity="1" fill-rule="nonzero"/></g><path fill="#ccd6dc" d="M 375 221.402344 C 375 223.105469 374.925781 224.808594 374.773438 226.511719 C 374.625 228.214844 374.398438 229.917969 374.097656 231.613281 C 373.796875 233.3125 373.421875 235.003906 372.96875 236.691406 C 372.519531 238.375 371.996094 240.054688 371.398438 241.730469 C 370.796875 243.402344 370.125 245.066406 369.378906 246.71875 C 368.636719 248.371094 367.816406 250.015625 366.925781 251.648438 C 366.035156 253.28125 365.074219 254.898438 364.039062 256.503906 C 363.003906 258.109375 361.902344 259.699219 360.726562 261.277344 C 359.554688 262.851562 358.308594 264.410156 356.996094 265.949219 C 355.6875 267.492188 354.308594 269.015625 352.859375 270.519531 C 351.414062 272.023438 349.902344 273.507812 348.324219 274.96875 C 346.746094 276.433594 345.105469 277.871094 343.402344 279.289062 C 341.695312 280.707031 339.929688 282.101562 338.101562 283.472656 C 336.273438 284.839844 334.386719 286.183594 332.4375 287.503906 C 330.492188 288.820312 328.488281 290.113281 326.429688 291.375 C 324.367188 292.640625 322.253906 293.875 320.082031 295.078125 C 317.914062 296.285156 315.691406 297.460938 313.417969 298.605469 C 311.144531 299.75 308.820312 300.863281 306.449219 301.945312 C 304.078125 303.027344 301.660156 304.078125 299.195312 305.09375 C 296.730469 306.109375 294.222656 307.089844 291.667969 308.039062 C 289.117188 308.984375 286.527344 309.898438 283.894531 310.773438 C 281.261719 311.652344 278.59375 312.492188 275.886719 313.296875 C 273.179688 314.097656 270.441406 314.867188 267.667969 315.59375 C 264.890625 316.324219 262.089844 317.015625 259.253906 317.667969 C 256.417969 318.320312 253.554688 318.933594 250.667969 319.507812 C 247.777344 320.082031 244.863281 320.617188 241.929688 321.113281 C 238.992188 321.605469 236.035156 322.0625 233.058594 322.476562 C 230.082031 322.890625 227.089844 323.265625 224.078125 323.597656 C 221.070312 323.929688 218.046875 324.21875 215.011719 324.472656 C 211.976562 324.722656 208.933594 324.929688 205.878906 325.097656 C 202.824219 325.265625 199.765625 325.390625 196.699219 325.472656 C 193.636719 325.558594 190.570312 325.597656 187.5 325.597656 C 184.429688 325.597656 181.363281 325.558594 178.300781 325.472656 C 175.234375 325.390625 172.175781 325.265625 169.121094 325.097656 C 166.066406 324.929688 163.023438 324.722656 159.988281 324.472656 C 156.953125 324.21875 153.929688 323.929688 150.921875 323.597656 C 147.910156 323.265625 144.917969 322.890625 141.941406 322.476562 C 138.964844 322.0625 136.007812 321.605469 133.070312 321.113281 C 130.136719 320.617188 127.222656 320.082031 124.332031 319.507812 C 121.445312 318.933594 118.582031 318.320312 115.746094 317.667969 C 112.910156 317.015625 110.105469 316.324219 107.332031 315.59375 C 104.558594 314.867188 101.820312 314.097656 99.113281 313.296875 C 96.40625 312.492188 93.738281 311.652344 91.105469 310.773438 C 88.472656 309.898438 85.882812 308.984375 83.332031 308.039062 C 80.777344 307.089844 78.269531 306.109375 75.804688 305.09375 C 73.339844 304.078125 70.921875 303.027344 68.550781 301.945312 C 66.179688 300.863281 63.855469 299.75 61.582031 298.605469 C 59.308594 297.460938 57.085938 296.285156 54.917969 295.078125 C 52.746094 293.875 50.632812 292.640625 48.570312 291.375 C 46.511719 290.113281 44.507812 288.820312 42.558594 287.503906 C 40.613281 286.183594 38.726562 284.839844 36.898438 283.472656 C 35.070312 282.101562 33.304688 280.707031 31.597656 279.289062 C 29.894531 277.871094 28.253906 276.433594 26.675781 274.96875 C 25.097656 273.507812 23.585938 272.023438 22.140625 270.519531 C 20.691406 269.015625 19.3125 267.492188 18.003906 265.949219 C 16.691406 264.410156 15.445312 262.851562 14.273438 261.277344 C 13.097656 259.699219 11.996094 258.109375 10.960938 256.503906 C 9.925781 254.898438 8.964844 253.28125 8.074219 251.648438 C 7.183594 250.015625 6.363281 248.371094 5.621094 246.71875 C 4.875 245.066406 4.203125 243.402344 3.601562 241.730469 C 3.003906 240.054688 2.480469 238.375 2.03125 236.691406 C 1.578125 235.003906 1.203125 233.3125 0.902344 231.613281 C 0.601562 229.917969 0.375 228.214844 0.226562 226.511719 C 0.0742188 224.808594 0 223.105469 0 221.402344 C 0 219.695312 0.0742188 217.992188 0.226562 216.289062 C 0.375 214.585938 0.601562 212.882812 0.902344 211.1875 C 1.203125 209.492188 1.578125 207.796875 2.03125 206.113281 C 2.480469 204.425781 3.003906 202.746094 3.601562 201.074219 C 4.203125 199.398438 4.875 197.738281 5.621094 196.082031 C 6.363281 194.429688 7.183594 192.785156 8.074219 191.152344 C 8.964844 189.523438 9.925781 187.902344 10.960938 186.296875 C 11.996094 184.691406 13.097656 183.101562 14.273438 181.527344 C 15.445312 179.949219 16.691406 178.390625 18.003906 176.851562 C 19.3125 175.308594 20.691406 173.785156 22.140625 172.28125 C 23.585938 170.777344 25.097656 169.296875 26.675781 167.832031 C 28.253906 166.371094 29.894531 164.929688 31.597656 163.511719 C 33.304688 162.09375 35.070312 160.699219 36.898438 159.332031 C 38.726562 157.960938 40.613281 156.617188 42.558594 155.296875 C 44.507812 153.980469 46.511719 152.6875 48.570312 151.425781 C 50.632812 150.164062 52.746094 148.925781 54.917969 147.722656 C 57.085938 146.515625 59.308594 145.339844 61.582031 144.195312 C 63.855469 143.050781 66.179688 141.9375 68.550781 140.855469 C 70.921875 139.773438 73.339844 138.722656 75.804688 137.707031 C 78.269531 136.691406 80.777344 135.710938 83.332031 134.761719 C 85.882812 133.816406 88.472656 132.902344 91.105469 132.027344 C 93.738281 131.152344 96.40625 130.308594 99.113281 129.507812 C 101.820312 128.703125 104.558594 127.9375 107.332031 127.207031 C 110.105469 126.476562 112.910156 125.785156 115.746094 125.132812 C 118.582031 124.480469 121.445312 123.867188 124.332031 123.292969 C 127.222656 122.71875 130.136719 122.183594 133.070312 121.691406 C 136.007812 121.195312 138.964844 120.738281 141.941406 120.324219 C 144.917969 119.910156 147.910156 119.539062 150.921875 119.203125 C 153.929688 118.871094 156.953125 118.582031 159.988281 118.332031 C 163.023438 118.082031 166.066406 117.871094 169.121094 117.703125 C 172.175781 117.539062 175.234375 117.410156 178.300781 117.328125 C 181.363281 117.246094 184.429688 117.203125 187.5 117.203125 C 190.570312 117.203125 193.636719 117.246094 196.699219 117.328125 C 199.765625 117.410156 202.824219 117.539062 205.878906 117.703125 C 208.933594 117.871094 211.976562 118.082031 215.011719 118.332031 C 218.046875 118.582031 221.070312 118.871094 224.078125 119.203125 C 227.089844 119.539062 230.082031 119.910156 233.058594 120.324219 C 236.035156 120.738281 238.992188 121.195312 241.929688 121.691406 C 244.863281 122.183594 247.777344 122.71875 250.667969 123.292969 C 253.554688 123.867188 256.417969 124.480469 259.253906 125.132812 C 262.089844 125.785156 264.890625 126.476562 267.667969 127.207031 C 270.441406 127.9375 273.179688 128.703125 275.886719 129.507812 C 278.59375 130.308594 281.261719 131.152344 283.894531 132.027344 C 286.527344 132.902344 289.117188 133.816406 291.667969 134.761719 C 294.222656 135.710938 296.730469 136.691406 299.195312 137.707031 C 301.660156 138.722656 304.078125 139.773438 306.449219 140.855469 C 308.820312 141.9375 311.144531 143.050781 313.417969 144.195312 C 315.691406 145.339844 317.914062 146.515625 320.082031 147.722656 C 322.253906 148.925781 324.367188 150.164062 326.429688 151.425781 C 328.488281 152.6875 330.492188 153.980469 332.4375 155.296875 C 334.386719 156.617188 336.273438 157.960938 338.101562 159.332031 C 339.929688 160.699219 341.695312 162.09375 343.402344 163.511719 C 345.105469 164.929688 346.746094 166.371094 348.324219 167.832031 C 349.902344 169.296875 351.414062 170.777344 352.859375 172.28125 C 354.308594 173.785156 355.6875 175.308594 356.996094 176.851562 C 358.308594 178.390625 359.554688 179.949219 360.726562 181.527344 C 361.902344 183.101562 363.003906 184.691406 364.039062 186.296875 C 365.074219 187.902344 366.035156 189.523438 366.925781 191.152344 C 367.816406 192.785156 368.636719 194.429688 369.378906 196.082031 C 370.125 197.738281 370.796875 199.398438 371.398438 201.074219 C 371.996094 202.746094 372.519531 204.425781 372.96875 206.113281 C 373.421875 207.796875 373.796875 209.492188 374.097656 211.1875 C 374.398438 212.882812 374.625 214.585938 374.773438 216.289062 C 374.925781 217.992188 375 219.695312 375 221.402344 Z M 375 221.402344 " fill-opacity="1" fill-rule="nonzero"/><path fill="#f19020" d="M 333.332031 202.582031 C 333.332031 247.335938 268.042969 283.628906 187.5 283.628906 C 106.957031 283.628906 41.667969 247.335938 41.667969 202.582031 C 41.667969 157.828125 106.957031 121.539062 187.5 121.539062 C 268.042969 121.539062 333.332031 157.828125 333.332031 202.582031 Z M 333.332031 202.582031 " fill-opacity="1" fill-rule="nonzero"/><path fill="#faaa35" d="M 333.332031 180.136719 C 333.332031 224.890625 268.042969 261.183594 187.5 261.183594 C 106.957031 261.183594 41.667969 224.890625 41.667969 180.136719 C 41.667969 135.386719 106.957031 99.09375 187.5 99.09375 C 268.042969 99.09375 333.332031 135.386719 333.332031 180.136719 Z M 333.332031 180.136719 " fill-opacity="1" fill-rule="nonzero"/><path fill="#f19020" d="M 333.332031 157.695312 C 333.332031 202.445312 268.042969 238.738281 187.5 238.738281 C 106.957031 238.738281 41.667969 202.457031 41.667969 157.695312 C 41.667969 112.929688 106.957031 76.648438 187.5 76.648438 C 268.042969 76.648438 333.332031 112.941406 333.332031 157.695312 Z M 333.332031 157.695312 " fill-opacity="1" fill-rule="nonzero"/><path fill="#faaa35" d="M 333.332031 135.261719 C 333.332031 180.011719 268.042969 216.304688 187.5 216.304688 C 106.957031 216.304688 41.667969 180.011719 41.667969 135.261719 C 41.667969 90.507812 106.957031 54.214844 187.5 54.214844 C 268.042969 54.214844 333.332031 90.496094 333.332031 135.261719 Z M 333.332031 135.261719 " fill-opacity="1" fill-rule="nonzero"/><g clip-path="url(#ace490d773)"><path fill="#f19020" d="M 333.332031 112.816406 C 333.332031 157.570312 268.042969 193.859375 187.5 193.859375 C 106.957031 193.859375 41.667969 157.570312 41.667969 112.816406 C 41.667969 68.0625 106.957031 31.769531 187.5 31.769531 C 268.042969 31.769531 333.332031 68.0625 333.332031 112.816406 Z M 333.332031 112.816406 " fill-opacity="1" fill-rule="nonzero"/></g><path fill="#e18524" d="M 294.957031 234.9375 C 287.394531 239.511719 278.894531 243.605469 269.636719 247.128906 C 270.875 252.929688 274.511719 255.941406 278.699219 255.941406 C 284.957031 255.941406 292.449219 249.199219 294.957031 234.9375 " fill-opacity="1" fill-rule="nonzero"/><path fill="#e5922e" d="M 295.84375 211.949219 C 287.875 216.859375 278.84375 221.222656 268.9375 224.945312 C 269.074219 232.320312 269.1875 238.09375 269.1875 242.5625 C 269.1875 244.242188 269.34375 245.761719 269.636719 247.128906 C 278.894531 243.617188 287.394531 239.519531 294.957031 234.9375 C 295.511719 231.769531 295.824219 228.234375 295.824219 224.328125 L 295.84375 211.949219 " fill-opacity="1" fill-rule="nonzero"/><path fill="#e18524" d="M 295.9375 189.441406 C 287.855469 194.433594 278.667969 198.875 268.59375 202.625 C 268.6875 211.3125 268.8125 218.703125 268.925781 224.945312 C 278.824219 221.234375 287.863281 216.867188 295.832031 211.949219 C 295.863281 203.3125 295.894531 195.769531 295.9375 189.441406 " fill-opacity="1" fill-rule="nonzero"/><path fill="#e5922e" d="M 296.175781 166.757812 L 268.488281 180.136719 C 268.488281 188.464844 268.542969 195.933594 268.605469 202.625 C 278.675781 198.875 287.863281 194.433594 295.949219 189.441406 C 296.042969 174.84375 296.175781 166.757812 296.175781 166.757812 " fill-opacity="1" fill-rule="nonzero"/><path fill="#d17a28" d="M 159.800781 56.351562 C 118.4375 43.734375 101 50.097656 103.71875 82.652344 C 104.417969 91.070312 92.855469 105.09375 81.28125 113.160156 C 54.375 131.914062 65.9375 163.269531 112.136719 140.15625 C 135.269531 128.589844 169.011719 129.375 209.9375 141.910156 C 244.292969 152.433594 265.675781 164.695312 268.480469 180.128906 C 277.59375 177.042969 288.707031 172.21875 296.175781 166.75 C 293.355469 160.351562 280.75 141.554688 260.769531 132.789062 C 222.980469 116.214844 259.480469 92.320312 287.761719 86.507812 C 313.355469 81.246094 288.113281 61.957031 249.199219 62.664062 C 210.292969 63.375 220.074219 74.753906 159.800781 56.351562 Z M 159.800781 56.351562 " fill-opacity="1" fill-rule="nonzero"/><path fill="#faaa35" d="M 230.4375 79.398438 C 230.4375 79.398438 231.550781 92.394531 227.15625 94.894531 L 195.425781 112.984375 C 191.042969 115.484375 183.949219 115.484375 179.5625 112.984375 L 147.832031 94.894531 C 143.449219 92.394531 144.542969 79.148438 144.542969 79.148438 Z M 230.4375 79.398438 " fill-opacity="1" fill-rule="nonzero"/><path fill="#ffd882" d="M 227.15625 74.628906 C 229.457031 75.941406 230.550781 77.679688 230.4375 79.398438 C 230.332031 80.953125 229.238281 82.484375 227.15625 83.671875 L 195.425781 101.761719 C 191.042969 104.261719 183.949219 104.261719 179.5625 101.761719 L 147.832031 83.671875 C 145.644531 82.421875 144.542969 80.785156 144.542969 79.148438 C 144.542969 77.515625 145.636719 75.878906 147.832031 74.628906 L 179.5625 56.539062 C 183.949219 54.039062 191.042969 54.039062 195.425781 56.539062 Z M 227.15625 74.628906 " fill-opacity="1" fill-rule="nonzero"/></svg>