<svg xmlns="http://www.w3.org/2000/svg" xmlns:xlink="http://www.w3.org/1999/xlink" width="500" zoomAndPan="magnify" viewBox="0 0 375 374.999991" height="500" preserveAspectRatio="xMidYMid meet" version="1.0"><defs><clipPath id="fda091ee71"><path d="M 246 225 L 303.828125 225 L 303.828125 263 L 246 263 Z M 246 225 " clip-rule="nonzero"/></clipPath><clipPath id="44915c22d3"><path d="M 71.328125 106 L 165 106 L 165 151 L 71.328125 151 Z M 71.328125 106 " clip-rule="nonzero"/></clipPath><clipPath id="a6c77d0f6b"><path d="M 71.328125 106 L 165 106 L 165 151 L 71.328125 151 Z M 71.328125 106 " clip-rule="nonzero"/></clipPath><clipPath id="09e2e635c0"><path d="M 297 124 L 330 124 L 330 159 L 297 159 Z M 297 124 " clip-rule="nonzero"/></clipPath><clipPath id="d636243759"><path d="M 248.578125 166.183594 L 316.636719 114.429688 L 368.390625 182.488281 L 300.332031 234.242188 Z M 248.578125 166.183594 " clip-rule="nonzero"/></clipPath><clipPath id="954355a658"><path d="M 248.578125 166.183594 L 316.636719 114.429688 L 368.390625 182.488281 L 300.332031 234.242188 Z M 248.578125 166.183594 " clip-rule="nonzero"/></clipPath><clipPath id="468c42c3fb"><path d="M 248.578125 166.183594 L 316.636719 114.429688 L 368.390625 182.488281 L 300.332031 234.242188 Z M 248.578125 166.183594 " clip-rule="nonzero"/></clipPath><clipPath id="057219096f"><path d="M 290 148 L 325 148 L 325 229 L 290 229 Z M 290 148 " clip-rule="nonzero"/></clipPath><clipPath id="1634036c95"><path d="M 248.578125 166.183594 L 316.636719 114.429688 L 368.390625 182.488281 L 300.332031 234.242188 Z M 248.578125 166.183594 " clip-rule="nonzero"/></clipPath><clipPath id="de347fe1d9"><path d="M 248.578125 166.183594 L 316.636719 114.429688 L 368.390625 182.488281 L 300.332031 234.242188 Z M 248.578125 166.183594 " clip-rule="nonzero"/></clipPath><clipPath id="673ecc7056"><path d="M 248.578125 166.183594 L 316.636719 114.429688 L 368.390625 182.488281 L 300.332031 234.242188 Z M 248.578125 166.183594 " clip-rule="nonzero"/></clipPath><clipPath id="81335fd5b9"><path d="M 290 160 L 325 160 L 325 209 L 290 209 Z M 290 160 " clip-rule="nonzero"/></clipPath><clipPath id="2cf2fa1d53"><path d="M 248.578125 166.183594 L 316.636719 114.429688 L 368.390625 182.488281 L 300.332031 234.242188 Z M 248.578125 166.183594 " clip-rule="nonzero"/></clipPath><clipPath id="94b256fadf"><path d="M 248.578125 166.183594 L 316.636719 114.429688 L 368.390625 182.488281 L 300.332031 234.242188 Z M 248.578125 166.183594 " clip-rule="nonzero"/></clipPath><clipPath id="6cfb5ccae7"><path d="M 248.578125 166.183594 L 316.636719 114.429688 L 368.390625 182.488281 L 300.332031 234.242188 Z M 248.578125 166.183594 " clip-rule="nonzero"/></clipPath></defs><path fill="#5f2914" d="M 127.832031 239.480469 C 129.46875 239.683594 131.234375 239.082031 132.621094 238.160156 C 148.855469 245.648438 163.789062 255.570312 177.546875 266.988281 C 179.878906 268.925781 183.410156 265.800781 181.066406 263.679688 C 167.566406 251.449219 151.546875 242.15625 134.546875 235.664062 C 134.558594 235.535156 134.554688 235.40625 134.527344 235.273438 C 134.195312 233.628906 132.492188 232.214844 131.300781 231.136719 C 130.820312 230.707031 130.289062 230.636719 129.703125 230.882812 C 129.53125 230.953125 129.328125 231.105469 129.246094 231.269531 C 129.234375 231.296875 129.222656 231.320312 129.207031 231.34375 C 128.917969 231.933594 128.980469 232.441406 129.367188 232.957031 C 129.378906 232.976562 129.390625 232.996094 129.40625 233.015625 C 129.125 232.996094 128.839844 232.992188 128.5625 233.011719 C 126.769531 233.125 124.414062 233.820312 124.292969 235.957031 C 124.175781 237.996094 125.996094 239.25 127.832031 239.480469 " fill-opacity="1" fill-rule="nonzero"/><g clip-path="url(#fda091ee71)"><path fill="#5f2914" d="M 300.167969 234.035156 C 298.53125 234.234375 296.765625 233.632812 295.378906 232.710938 C 279.144531 240.199219 264.210938 250.121094 250.453125 261.542969 C 248.121094 263.480469 244.59375 260.355469 246.933594 258.234375 C 260.433594 246.003906 276.453125 236.707031 293.453125 230.214844 C 293.441406 230.085938 293.445312 229.957031 293.472656 229.824219 C 293.804688 228.183594 295.511719 226.765625 296.699219 225.691406 C 297.179688 225.257812 297.710938 225.1875 298.296875 225.433594 C 298.46875 225.503906 298.671875 225.65625 298.757812 225.820312 C 298.769531 225.847656 298.777344 225.871094 298.792969 225.898438 C 299.085938 226.484375 299.023438 226.996094 298.632812 227.511719 C 298.621094 227.527344 298.609375 227.550781 298.59375 227.566406 C 298.875 227.546875 299.160156 227.546875 299.441406 227.5625 C 301.234375 227.679688 303.585938 228.375 303.707031 230.507812 C 303.820312 232.546875 302.003906 233.804688 300.167969 234.035156 " fill-opacity="1" fill-rule="nonzero"/></g><path fill="#5f2914" d="M 202.652344 342.90625 C 202.855469 338.414062 202.617188 333.726562 201.28125 329.414062 C 200.554688 327.074219 197.097656 327.613281 197.46875 330.140625 C 197.976562 333.601562 198.65625 337.039062 198.9375 340.53125 C 199.183594 343.535156 199.476562 347.421875 197.019531 349.660156 C 194.628906 351.832031 190.792969 349.90625 188.289062 348.820312 C 184.796875 347.304688 181.5 345.195312 178.667969 342.65625 C 178.535156 342.539062 178.386719 342.460938 178.242188 342.414062 C 177.878906 341.941406 177.265625 341.664062 176.65625 341.789062 C 174.546875 342.214844 172.589844 343.359375 171.199219 345.007812 C 170.398438 345.953125 171.695312 347.128906 172.667969 346.71875 C 174.191406 346.074219 175.683594 345.464844 177.261719 344.953125 C 177.449219 344.894531 177.621094 344.808594 177.78125 344.710938 C 180.632812 347.660156 183.886719 350.066406 187.613281 351.851562 C 190.925781 353.4375 194.949219 355.0625 198.34375 352.828125 C 201.679688 350.632812 202.480469 346.628906 202.652344 342.90625 " fill-opacity="1" fill-rule="nonzero"/><path fill="#5f2914" d="M 226.03125 325.726562 C 223.886719 333.367188 222.058594 341.085938 219.664062 348.660156 C 217.273438 356.21875 214.390625 363.574219 211.511719 370.957031 C 211.441406 371.144531 211.433594 371.324219 211.460938 371.488281 C 211.125 371.878906 210.953125 372.402344 211.035156 373.03125 C 211.214844 374.335938 212.382812 374.941406 213.601562 374.738281 C 214.382812 374.609375 215.238281 374.589844 216.027344 374.625 C 216.859375 374.664062 217.710938 374.808594 218.433594 374.265625 C 218.859375 373.949219 219.035156 373.554688 218.9375 373.027344 C 218.597656 371.199219 216.136719 370.679688 214.265625 370.648438 C 217.664062 363.972656 220.503906 356.988281 223.09375 349.96875 C 225.882812 342.421875 228.476562 334.726562 230 326.820312 C 230.492188 324.25 226.757812 323.148438 226.03125 325.726562 " fill-opacity="1" fill-rule="nonzero"/><path fill="#807f1e" d="M 193.964844 120.785156 C 195.296875 115.328125 196.117188 109.746094 196.398438 104.136719 C 196.527344 101.578125 196.265625 98.5 194.019531 97.269531 C 191.269531 95.761719 187.953125 98.386719 186.710938 101.261719 C 185.46875 104.136719 185.199219 107.492188 183.234375 109.933594 C 187.234375 100.929688 188.988281 90.945312 188.304688 81.125 C 188.042969 77.414062 187.042969 73.15625 183.6875 71.542969 C 180.324219 69.925781 176.113281 71.988281 174.082031 75.125 C 172.585938 77.433594 171.976562 80.152344 171.621094 82.910156 C 172.355469 74.425781 171.535156 65.804688 169.195312 57.617188 C 168.621094 55.613281 167.914062 53.550781 166.179688 52.257812 C 165.40625 51.675781 164.46875 51.335938 163.507812 51.394531 C 161.265625 51.53125 160.253906 53.515625 159.566406 55.347656 C 157.882812 59.839844 157.003906 64.636719 156.988281 69.433594 C 156.996094 57.988281 154.222656 46.546875 148.976562 36.367188 C 147.761719 34.015625 146.339844 31.640625 143.882812 30.4375 C 142.722656 29.871094 141.402344 29.660156 140.152344 29.988281 C 137.433594 30.699219 136.597656 33.335938 136.132812 35.746094 C 135.40625 39.515625 135.167969 43.375 135.421875 47.203125 C 133.636719 38.265625 128.765625 29.941406 121.742188 24.113281 C 119.199219 22 114.882812 20.378906 113.152344 23.558594 C 112.628906 24.519531 112.519531 25.648438 112.753906 26.714844 C 114.007812 32.46875 115.265625 38.21875 116.519531 43.96875 C 113.671875 34.503906 105.375 26.890625 95.691406 24.863281 C 92.609375 24.214844 88.835938 24.363281 87.03125 26.941406 C 85.40625 29.253906 86.136719 32.4375 87.207031 35.050781 C 91.476562 45.488281 100.375 53.9375 111.023438 57.667969 C 107.507812 56.417969 103.652344 56.175781 99.996094 56.90625 C 96.875 57.523438 95.796875 61.472656 98.222656 63.527344 C 107.179688 71.132812 119.398438 74.894531 131.078125 73.363281 C 128.261719 73.6875 125.339844 74.042969 122.925781 75.523438 C 120.507812 77.003906 118.746094 79.953125 119.554688 82.667969 C 120.152344 84.660156 121.929688 86.046875 123.691406 87.144531 C 130.546875 91.417969 138.792969 93.390625 146.84375 92.769531 C 144.777344 93.222656 142.820312 93.996094 141.199219 95.511719 C 139.980469 96.652344 139.15625 98.175781 139.058594 99.84375 C 138.855469 103.355469 141.71875 105.316406 144.457031 106.691406 C 150.640625 109.808594 157.511719 111.546875 164.433594 111.765625 C 162.542969 111.8125 160.675781 112.101562 159.050781 113.246094 C 158.078125 113.933594 157.339844 114.933594 157.097656 116.101562 C 156.535156 118.789062 158.679688 120.695312 160.6875 122.148438 C 165.257812 125.460938 170.167969 128.296875 175.308594 130.621094 C 178.164062 131.910156 185.535156 136.199219 188.703125 134.660156 C 191.863281 133.125 193.199219 123.910156 193.964844 120.785156 " fill-opacity="1" fill-rule="nonzero"/><path fill="#5f2914" d="M 146.84375 92.007812 C 147.21875 92.007812 147.542969 92.285156 147.597656 92.660156 C 147.65625 93.058594 147.398438 93.429688 147.007812 93.515625 C 144.726562 94.015625 143.046875 94.828125 141.71875 96.070312 C 140.578125 97.136719 139.902344 98.492188 139.820312 99.886719 C 139.640625 102.988281 142.234375 104.722656 144.796875 106.015625 C 150.847656 109.0625 157.648438 110.789062 164.457031 111.003906 C 164.871094 111.019531 165.199219 111.359375 165.199219 111.769531 C 165.195312 112.183594 164.867188 112.519531 164.453125 112.527344 C 162.976562 112.566406 161.082031 112.746094 159.492188 113.867188 C 158.621094 114.484375 158.035156 115.328125 157.839844 116.257812 C 157.382812 118.464844 159.152344 120.097656 161.136719 121.535156 C 165.640625 124.796875 170.515625 127.621094 175.621094 129.925781 C 176.117188 130.148438 176.730469 130.453125 177.4375 130.804688 C 180.457031 132.304688 186.074219 135.089844 188.367188 133.976562 C 190.660156 132.859375 192.039062 126.21875 192.777344 122.652344 C 192.945312 121.839844 193.089844 121.144531 193.222656 120.605469 C 194.542969 115.191406 195.355469 109.640625 195.636719 104.097656 C 195.804688 100.777344 195.15625 98.761719 193.652344 97.9375 C 192.914062 97.53125 192.089844 97.484375 191.195312 97.789062 C 189.679688 98.308594 188.160156 99.828125 187.410156 101.566406 C 186.980469 102.5625 186.660156 103.65625 186.351562 104.714844 C 185.773438 106.691406 185.179688 108.734375 183.828125 110.410156 C 183.589844 110.707031 183.164062 110.78125 182.839844 110.582031 C 182.511719 110.382812 182.382812 109.972656 182.539062 109.621094 C 186.492188 100.722656 188.222656 90.886719 187.539062 81.175781 C 187.207031 76.414062 185.800781 73.40625 183.355469 72.230469 C 180.300781 70.761719 176.496094 72.804688 174.722656 75.539062 C 173.195312 77.902344 172.664062 80.769531 172.375 83.007812 C 172.324219 83.417969 171.953125 83.710938 171.539062 83.667969 C 171.125 83.625 170.824219 83.257812 170.859375 82.847656 C 171.59375 74.375 170.785156 65.957031 168.460938 57.824219 C 167.925781 55.953125 167.273438 54.027344 165.722656 52.867188 C 165.050781 52.363281 164.28125 52.113281 163.550781 52.15625 C 161.777344 52.265625 160.929688 53.882812 160.28125 55.613281 C 158.621094 60.050781 157.769531 64.703125 157.75 69.4375 C 157.75 69.859375 157.417969 70.199219 156.988281 70.199219 C 156.566406 70.195312 156.226562 69.855469 156.226562 69.4375 L 156.226562 69.433594 C 156.230469 58.101562 153.488281 46.792969 148.296875 36.71875 C 147.207031 34.605469 145.847656 32.25 143.542969 31.125 C 142.484375 30.605469 141.347656 30.460938 140.34375 30.726562 C 138.058594 31.324219 137.328125 33.5625 136.878906 35.890625 C 136.167969 39.582031 135.933594 43.371094 136.183594 47.152344 C 136.207031 47.554688 135.917969 47.90625 135.523438 47.960938 C 135.121094 48.011719 134.753906 47.746094 134.675781 47.351562 C 132.898438 38.453125 128.132812 30.410156 121.257812 24.699219 C 119.699219 23.40625 117.347656 22.257812 115.59375 22.59375 C 114.808594 22.742188 114.230469 23.179688 113.820312 23.921875 C 113.40625 24.6875 113.292969 25.621094 113.496094 26.554688 L 117.265625 43.8125 C 117.351562 44.210938 117.109375 44.609375 116.710938 44.710938 C 116.316406 44.816406 115.910156 44.582031 115.789062 44.191406 C 113.035156 35.039062 104.894531 27.570312 95.535156 25.609375 C 94.175781 25.324219 89.59375 24.609375 87.652344 27.378906 C 86.496094 29.027344 86.585938 31.511719 87.914062 34.761719 C 92.082031 44.953125 100.757812 53.21875 111.140625 56.902344 C 111.1875 56.921875 111.230469 56.9375 111.28125 56.953125 C 111.675781 57.09375 111.882812 57.527344 111.742188 57.925781 C 111.605469 58.324219 111.167969 58.53125 110.773438 58.390625 C 110.726562 58.375 110.679688 58.359375 110.632812 58.34375 C 107.316406 57.1875 103.691406 56.949219 100.140625 57.652344 C 98.972656 57.886719 98.058594 58.75 97.757812 59.902344 C 97.460938 61.050781 97.816406 62.1875 98.714844 62.949219 C 107.308594 70.242188 118.890625 73.859375 129.902344 72.734375 C 130.269531 72.691406 130.632812 72.648438 130.988281 72.609375 C 131.40625 72.5625 131.78125 72.859375 131.832031 73.273438 C 131.882812 73.6875 131.589844 74.066406 131.175781 74.121094 C 130.8125 74.171875 130.445312 74.210938 130.082031 74.25 C 127.78125 74.527344 125.320312 74.945312 123.324219 76.171875 C 121.308594 77.40625 119.5625 80.027344 120.285156 82.453125 C 120.832031 84.273438 122.609375 85.574219 124.09375 86.5 C 130.773438 90.667969 138.832031 92.625 146.785156 92.011719 C 146.804688 92.007812 146.824219 92.007812 146.84375 92.007812 M 187.046875 135.746094 C 183.964844 135.746094 179.746094 133.652344 176.757812 132.171875 C 176.0625 131.824219 175.464844 131.527344 174.996094 131.316406 C 169.792969 128.964844 164.832031 126.089844 160.242188 122.765625 C 157.957031 121.113281 155.710938 119.011719 156.347656 115.945312 C 156.621094 114.640625 157.425781 113.460938 158.613281 112.625 C 158.886719 112.429688 159.164062 112.261719 159.445312 112.109375 C 154.109375 111.386719 148.886719 109.777344 144.113281 107.375 C 141.285156 105.949219 138.066406 103.800781 138.296875 99.796875 C 138.402344 98.011719 139.246094 96.292969 140.675781 94.953125 C 141.222656 94.449219 141.808594 94.007812 142.457031 93.617188 C 135.671875 93.363281 128.996094 91.351562 123.289062 87.792969 C 121.574219 86.722656 119.515625 85.199219 118.824219 82.886719 C 117.875 79.699219 119.964844 76.441406 122.527344 74.875 C 122.816406 74.695312 123.113281 74.535156 123.414062 74.386719 C 114.121094 73.832031 104.914062 70.210938 97.726562 64.113281 C 96.394531 62.980469 95.839844 61.222656 96.28125 59.523438 C 96.730469 57.792969 98.097656 56.503906 99.84375 56.15625 C 101.503906 55.828125 103.183594 55.691406 104.839844 55.742188 C 96.667969 51.265625 90.03125 43.964844 86.5 35.339844 C 84.964844 31.578125 84.929688 28.605469 86.40625 26.503906 C 88.816406 23.066406 93.8125 23.691406 95.847656 24.117188 C 103.382812 25.695312 110.167969 30.648438 114.257812 37.195312 L 112.003906 26.878906 C 111.722656 25.589844 111.894531 24.28125 112.480469 23.195312 C 113.101562 22.058594 114.078125 21.332031 115.304688 21.09375 C 117.703125 20.636719 120.535156 22.117188 122.230469 23.527344 C 127.902344 28.238281 132.195312 34.476562 134.644531 41.476562 C 134.761719 39.5 135.007812 37.539062 135.382812 35.601562 C 135.871094 33.074219 136.832031 30.070312 139.957031 29.253906 C 141.316406 28.894531 142.828125 29.074219 144.214844 29.753906 C 146.9375 31.085938 148.449219 33.6875 149.652344 36.019531 C 153.605469 43.683594 156.164062 52.042969 157.210938 60.59375 C 157.628906 58.726562 158.175781 56.886719 158.851562 55.082031 C 159.332031 53.804688 160.449219 50.820312 163.460938 50.636719 C 164.546875 50.570312 165.675781 50.929688 166.636719 51.644531 C 168.566406 53.09375 169.320312 55.285156 169.925781 57.40625 C 171.675781 63.527344 172.585938 69.800781 172.644531 76.136719 C 172.878906 75.652344 173.144531 75.171875 173.441406 74.710938 C 175.613281 71.359375 180.164062 69.003906 184.019531 70.855469 C 186.992188 72.289062 188.6875 75.722656 189.0625 81.070312 C 189.464844 86.824219 189.042969 92.617188 187.832031 98.25 C 188.683594 97.371094 189.679688 96.699219 190.703125 96.347656 C 191.996094 95.90625 193.269531 95.992188 194.386719 96.601562 C 196.453125 97.734375 197.359375 100.210938 197.160156 104.175781 C 196.875 109.8125 196.046875 115.460938 194.703125 120.964844 C 194.578125 121.476562 194.4375 122.164062 194.269531 122.960938 C 193.125 128.5 191.773438 134.015625 189.035156 135.347656 C 188.460938 135.625 187.785156 135.746094 187.046875 135.746094 " fill-opacity="1" fill-rule="nonzero"/><path fill="#9fa31d" d="M 227.664062 105.316406 C 228.042969 103.933594 228.328125 102.472656 228.011719 101.082031 C 227.691406 99.683594 226.617188 98.375 225.195312 98.1875 C 223.71875 97.996094 222.378906 99.003906 221.265625 99.988281 C 217.742188 103.085938 214.535156 106.542969 211.707031 110.28125 C 216.929688 100.683594 221.1875 90.132812 223.609375 79.476562 C 224.078125 77.402344 224.054688 74.527344 222.003906 73.949219 C 220.457031 73.515625 219.015625 74.855469 218.027344 76.125 C 216.585938 77.988281 215.300781 79.972656 214.191406 82.046875 C 218.097656 71.753906 218.839844 60.261719 216.175781 49.574219 C 215.542969 47.03125 213.839844 43.957031 211.265625 44.449219 C 209.828125 44.726562 208.871094 46.058594 208.144531 47.328125 C 206.53125 50.140625 205.273438 53.160156 204.414062 56.285156 C 206.097656 46.597656 205.785156 36.160156 203.796875 26.683594 C 203.410156 24.847656 202.921875 22.949219 201.710938 21.515625 C 200.5 20.078125 198.367188 19.25 196.679688 20.082031 C 195.308594 20.761719 194.605469 22.292969 194.101562 23.738281 C 192.625 27.964844 191.933594 32.460938 192.078125 36.9375 C 191.476562 25.34375 187.058594 13.980469 179.675781 5.019531 C 178.355469 3.417969 176.648438 1.761719 174.574219 1.863281 C 171.226562 2.023438 169.921875 6.445312 170.535156 9.738281 C 171.148438 13.03125 172.722656 16.429688 171.601562 19.585938 C 169.261719 13.339844 165.046875 7.808594 159.640625 3.894531 C 157.171875 2.105469 153.28125 0.847656 151.433594 3.273438 C 150.355469 4.691406 150.617188 6.683594 151.03125 8.414062 C 153.414062 18.3125 159.378906 27.308594 167.574219 33.355469 C 162.269531 29.71875 155.125 27.476562 148.691406 27.289062 C 146.996094 27.238281 144.914062 27.570312 144.324219 29.160156 C 143.964844 30.128906 144.324219 31.199219 144.722656 32.148438 C 149.253906 42.925781 159.683594 50.953125 171.207031 52.792969 C 169.34375 52.777344 167.335938 53.082031 165.742188 53.402344 C 163.320312 53.886719 161.011719 55.882812 161.054688 58.351562 C 161.082031 59.867188 161.960938 61.226562 162.878906 62.4375 C 168.578125 69.945312 177.164062 75.199219 186.429688 76.914062 C 182.988281 76.546875 179.445312 77.167969 176.347656 78.710938 C 175.394531 79.183594 174.382812 79.898438 174.300781 80.957031 C 174.222656 81.949219 174.996094 82.78125 175.726562 83.453125 C 180.570312 87.914062 186.105469 91.617188 192.070312 94.410156 C 191.125 94.160156 190.148438 93.984375 189.15625 93.785156 C 186.851562 93.324219 184.144531 94.019531 182.941406 96.039062 C 181.339844 98.714844 183.011719 102.117188 184.851562 104.632812 C 187.117188 107.734375 189.703125 110.605469 192.539062 113.195312 C 192.355469 113.109375 192.164062 113.027344 191.96875 112.960938 C 190.398438 112.421875 188.34375 112.90625 187.695312 114.433594 C 187.007812 116.050781 188.148438 117.828125 189.265625 119.191406 C 194.269531 125.316406 199.625 129.175781 205.828125 134.085938 C 214.910156 125.917969 224.414062 117.085938 227.664062 105.316406 " fill-opacity="1" fill-rule="nonzero"/><path fill="#5f2914" d="M 227.660156 105.316406 L 227.664062 105.316406 L 227.660156 105.316406 M 190.671875 113.515625 C 189.714844 113.515625 188.746094 113.914062 188.398438 114.730469 C 187.976562 115.714844 188.441406 116.980469 189.855469 118.710938 C 194.144531 123.964844 198.660156 127.5 203.890625 131.59375 C 204.519531 132.082031 205.152344 132.582031 205.796875 133.085938 C 213.871094 125.820312 223.699219 116.8125 226.925781 105.113281 C 227.257812 103.914062 227.558594 102.515625 227.269531 101.25 C 227.027344 100.214844 226.207031 99.089844 225.097656 98.945312 C 223.953125 98.796875 222.816406 99.632812 221.765625 100.558594 C 218.289062 103.621094 215.109375 107.046875 212.316406 110.742188 C 212.074219 111.0625 211.628906 111.140625 211.292969 110.925781 C 210.957031 110.707031 210.847656 110.269531 211.035156 109.917969 C 216.511719 99.855469 220.601562 89.269531 222.863281 79.308594 C 223.207031 77.796875 223.367188 75.128906 221.796875 74.6875 C 220.65625 74.367188 219.445312 75.546875 218.628906 76.59375 C 217.230469 78.390625 215.964844 80.347656 214.859375 82.40625 C 214.671875 82.761719 214.238281 82.90625 213.871094 82.738281 C 213.507812 82.574219 213.332031 82.152344 213.476562 81.773438 C 217.347656 71.589844 218.042969 60.21875 215.433594 49.757812 C 214.996094 48 213.589844 44.785156 211.40625 45.199219 C 210.25 45.421875 209.410156 46.652344 208.808594 47.707031 C 207.226562 50.453125 205.996094 53.410156 205.148438 56.488281 C 205.039062 56.882812 204.644531 57.121094 204.246094 57.03125 C 203.847656 56.941406 203.59375 56.554688 203.660156 56.15625 C 205.28125 46.847656 205.0625 36.4375 203.050781 26.84375 C 202.691406 25.121094 202.246094 23.332031 201.125 22.007812 C 200.183594 20.886719 198.425781 20.074219 197.019531 20.769531 C 195.878906 21.332031 195.265625 22.710938 194.820312 23.988281 C 193.363281 28.15625 192.699219 32.503906 192.839844 36.914062 C 192.851562 37.332031 192.523438 37.683594 192.105469 37.699219 C 191.6875 37.714844 191.335938 37.394531 191.3125 36.980469 C 190.71875 25.53125 186.378906 14.351562 179.085938 5.503906 C 177.941406 4.117188 176.398438 2.535156 174.609375 2.621094 C 173.75 2.667969 173.015625 3.066406 172.425781 3.808594 C 171.367188 5.144531 170.898438 7.527344 171.285156 9.601562 C 171.4375 10.4375 171.667969 11.3125 171.886719 12.160156 C 172.542969 14.683594 173.226562 17.292969 172.316406 19.84375 C 172.210938 20.144531 171.925781 20.347656 171.605469 20.347656 C 171.28125 20.347656 170.996094 20.15625 170.886719 19.855469 C 168.609375 13.773438 164.457031 8.324219 159.195312 4.511719 C 157.1875 3.058594 153.625 1.65625 152.042969 3.734375 C 151.128906 4.929688 151.417969 6.769531 151.773438 8.238281 C 154.097656 17.90625 160.019531 26.835938 168.023438 32.746094 C 168.359375 32.988281 168.433594 33.460938 168.191406 33.796875 C 167.953125 34.136719 167.484375 34.21875 167.140625 33.984375 C 161.996094 30.457031 155.089844 28.242188 148.671875 28.050781 C 147.742188 28.023438 145.53125 28.101562 145.035156 29.429688 C 144.773438 30.128906 145.070312 31.007812 145.425781 31.855469 C 149.820312 42.308594 159.988281 50.230469 171.328125 52.039062 C 171.722656 52.105469 172 52.457031 171.964844 52.855469 C 171.933594 53.253906 171.597656 53.566406 171.199219 53.554688 C 169.710938 53.542969 167.925781 53.742188 165.890625 54.152344 C 163.855469 54.554688 161.777344 56.234375 161.816406 58.339844 C 161.839844 59.636719 162.632812 60.855469 163.488281 61.976562 C 169.050781 69.308594 177.464844 74.480469 186.570312 76.164062 C 186.972656 76.238281 187.242188 76.621094 187.183594 77.027344 C 187.125 77.429688 186.753906 77.714844 186.347656 77.671875 C 183.050781 77.320312 179.617188 77.929688 176.6875 79.390625 C 175.652344 79.910156 175.105469 80.453125 175.058594 81.019531 C 175.007812 81.664062 175.628906 82.332031 176.242188 82.898438 C 181.027344 87.304688 186.460938 90.945312 192.390625 93.71875 C 192.75 93.890625 192.917969 94.300781 192.785156 94.667969 C 192.652344 95.039062 192.257812 95.25 191.875 95.148438 C 191.117188 94.953125 190.34375 94.796875 189.527344 94.636719 L 189.007812 94.535156 C 187.164062 94.167969 184.683594 94.601562 183.59375 96.429688 C 182.183594 98.796875 183.832031 101.953125 185.464844 104.1875 C 187.6875 107.222656 190.242188 110.070312 193.054688 112.636719 C 193.332031 112.890625 193.382812 113.3125 193.167969 113.625 C 192.957031 113.9375 192.546875 114.050781 192.207031 113.882812 C 192.046875 113.808594 191.882812 113.738281 191.71875 113.6875 C 191.394531 113.570312 191.035156 113.515625 190.671875 113.515625 M 205.828125 134.847656 C 205.660156 134.847656 205.496094 134.792969 205.355469 134.683594 C 204.539062 134.035156 203.738281 133.40625 202.949219 132.792969 C 197.648438 128.644531 193.074219 125.058594 188.671875 119.671875 C 187.53125 118.28125 186.121094 116.1875 186.992188 114.136719 C 187.554688 112.820312 188.84375 112.140625 190.1875 112.011719 C 188.019531 109.851562 186.023438 107.53125 184.234375 105.082031 C 181.503906 101.351562 180.828125 98.085938 182.285156 95.648438 C 183.394531 93.789062 185.488281 92.984375 187.460938 92.902344 C 183.039062 90.421875 178.933594 87.449219 175.210938 84.015625 C 174.324219 83.203125 173.433594 82.195312 173.539062 80.894531 C 173.628906 79.765625 174.457031 78.800781 176.003906 78.027344 C 177.617188 77.226562 179.367188 76.65625 181.167969 76.34375 C 173.707031 73.859375 167 69.128906 162.269531 62.898438 C 161.308594 61.632812 160.324219 60.105469 160.292969 58.367188 C 160.238281 55.355469 162.980469 53.175781 165.589844 52.65625 C 165.902344 52.59375 166.207031 52.535156 166.511719 52.484375 C 156.5625 49.441406 148.011719 41.941406 144.019531 32.445312 C 143.566406 31.367188 143.160156 30.097656 143.609375 28.898438 C 144.207031 27.289062 146.023438 26.449219 148.714844 26.527344 C 153.121094 26.65625 157.75 27.703125 161.929688 29.453125 C 156.289062 23.703125 152.164062 16.378906 150.289062 8.59375 C 149.859375 6.796875 149.527344 4.519531 150.828125 2.8125 C 152.933594 0.0507812 157.101562 1.117188 160.089844 3.28125 C 164.832031 6.714844 168.714844 11.425781 171.222656 16.734375 C 171.152344 15.390625 170.789062 13.988281 170.414062 12.539062 C 170.183594 11.671875 169.949219 10.769531 169.785156 9.878906 C 169.320312 7.363281 169.898438 4.546875 171.230469 2.863281 C 172.09375 1.773438 173.234375 1.164062 174.535156 1.101562 C 177 0.980469 178.894531 2.875 180.265625 4.535156 C 186.109375 11.632812 190.113281 20.179688 191.882812 29.183594 C 192.230469 27.257812 192.730469 25.355469 193.382812 23.488281 C 193.929688 21.921875 194.707031 20.210938 196.34375 19.398438 C 198.464844 18.351562 200.941406 19.425781 202.292969 21.023438 C 203.640625 22.621094 204.160156 24.703125 204.542969 26.53125 C 206.128906 34.089844 206.621094 42.148438 206 49.800781 C 206.453125 48.828125 206.949219 47.875 207.484375 46.949219 C 208.25 45.613281 209.355469 44.039062 211.121094 43.703125 C 214.003906 43.152344 216.113281 46.164062 216.917969 49.390625 C 219.117188 58.222656 219.027344 67.691406 216.722656 76.589844 C 216.953125 76.277344 217.1875 75.964844 217.421875 75.660156 C 219.421875 73.089844 221.132812 72.914062 222.210938 73.21875 C 224.707031 73.921875 224.925781 77.121094 224.351562 79.644531 C 222.511719 87.75 219.480469 96.257812 215.488281 104.566406 C 217.15625 102.757812 218.917969 101.039062 220.757812 99.417969 C 222.019531 98.308594 223.542969 97.207031 225.292969 97.433594 C 226.910156 97.644531 228.332031 99.074219 228.753906 100.910156 C 229.117188 102.503906 228.78125 104.132812 228.394531 105.519531 C 224.984375 117.882812 214.648438 127.179688 206.339844 134.652344 C 206.195312 134.78125 206.011719 134.847656 205.828125 134.847656 " fill-opacity="1" fill-rule="nonzero"/><path fill="#5f2914" d="M 227.660156 105.316406 L 227.664062 105.316406 L 227.660156 105.316406 M 190.671875 113.515625 C 189.714844 113.515625 188.746094 113.914062 188.398438 114.730469 C 187.976562 115.714844 188.441406 116.980469 189.855469 118.710938 C 194.144531 123.964844 198.660156 127.5 203.890625 131.59375 C 204.519531 132.082031 205.152344 132.582031 205.796875 133.085938 C 213.871094 125.820312 223.699219 116.8125 226.925781 105.113281 C 227.257812 103.914062 227.558594 102.515625 227.269531 101.25 C 227.027344 100.214844 226.207031 99.089844 225.097656 98.945312 C 223.953125 98.796875 222.816406 99.632812 221.765625 100.558594 C 218.289062 103.621094 215.109375 107.046875 212.316406 110.742188 C 212.074219 111.0625 211.628906 111.140625 211.292969 110.925781 C 210.957031 110.707031 210.847656 110.269531 211.035156 109.917969 C 216.511719 99.855469 220.601562 89.269531 222.863281 79.308594 C 223.207031 77.796875 223.367188 75.128906 221.796875 74.6875 C 220.65625 74.367188 219.445312 75.546875 218.628906 76.59375 C 217.230469 78.390625 215.964844 80.347656 214.859375 82.40625 C 214.671875 82.761719 214.238281 82.90625 213.871094 82.738281 C 213.507812 82.574219 213.332031 82.152344 213.476562 81.773438 C 217.347656 71.589844 218.042969 60.21875 215.433594 49.757812 C 214.996094 48 213.589844 44.785156 211.40625 45.199219 C 210.25 45.421875 209.410156 46.652344 208.808594 47.707031 C 207.226562 50.453125 205.996094 53.410156 205.148438 56.488281 C 205.039062 56.882812 204.644531 57.121094 204.246094 57.03125 C 203.847656 56.941406 203.59375 56.554688 203.660156 56.15625 C 205.28125 46.847656 205.0625 36.4375 203.050781 26.84375 C 202.691406 25.121094 202.246094 23.332031 201.125 22.007812 C 200.183594 20.886719 198.425781 20.074219 197.019531 20.769531 C 195.878906 21.332031 195.265625 22.710938 194.820312 23.988281 C 193.363281 28.15625 192.699219 32.503906 192.839844 36.914062 C 192.851562 37.332031 192.523438 37.683594 192.105469 37.699219 C 191.6875 37.714844 191.335938 37.394531 191.3125 36.980469 C 190.71875 25.53125 186.378906 14.351562 179.085938 5.503906 C 177.941406 4.117188 176.398438 2.535156 174.609375 2.621094 C 173.75 2.667969 173.015625 3.066406 172.425781 3.808594 C 171.367188 5.144531 170.898438 7.527344 171.285156 9.601562 C 171.4375 10.4375 171.667969 11.3125 171.886719 12.160156 C 172.542969 14.683594 173.226562 17.292969 172.316406 19.84375 C 172.210938 20.144531 171.925781 20.347656 171.605469 20.347656 C 171.28125 20.347656 170.996094 20.15625 170.886719 19.855469 C 168.609375 13.773438 164.457031 8.324219 159.195312 4.511719 C 157.1875 3.058594 153.625 1.65625 152.042969 3.734375 C 151.128906 4.929688 151.417969 6.769531 151.773438 8.238281 C 154.097656 17.90625 160.019531 26.835938 168.023438 32.746094 C 168.359375 32.988281 168.433594 33.460938 168.191406 33.796875 C 167.953125 34.136719 167.484375 34.21875 167.140625 33.984375 C 161.996094 30.457031 155.089844 28.242188 148.671875 28.050781 C 147.742188 28.023438 145.53125 28.101562 145.035156 29.429688 C 144.773438 30.128906 145.070312 31.007812 145.425781 31.855469 C 149.820312 42.308594 159.988281 50.230469 171.328125 52.039062 C 171.722656 52.105469 172 52.457031 171.964844 52.855469 C 171.933594 53.253906 171.597656 53.566406 171.199219 53.554688 C 169.710938 53.542969 167.925781 53.742188 165.890625 54.152344 C 163.855469 54.554688 161.777344 56.234375 161.816406 58.339844 C 161.839844 59.636719 162.632812 60.855469 163.488281 61.976562 C 169.050781 69.308594 177.464844 74.480469 186.570312 76.164062 C 186.972656 76.238281 187.242188 76.621094 187.183594 77.027344 C 187.125 77.429688 186.753906 77.714844 186.347656 77.671875 C 183.050781 77.320312 179.617188 77.929688 176.6875 79.390625 C 175.652344 79.910156 175.105469 80.453125 175.058594 81.019531 C 175.007812 81.664062 175.628906 82.332031 176.242188 82.898438 C 181.027344 87.304688 186.460938 90.945312 192.390625 93.71875 C 192.75 93.890625 192.917969 94.300781 192.785156 94.667969 C 192.652344 95.039062 192.257812 95.25 191.875 95.148438 C 191.117188 94.953125 190.34375 94.796875 189.527344 94.636719 L 189.007812 94.535156 C 187.164062 94.167969 184.683594 94.601562 183.59375 96.429688 C 182.183594 98.796875 183.832031 101.953125 185.464844 104.1875 C 187.6875 107.222656 190.242188 110.070312 193.054688 112.636719 C 193.332031 112.890625 193.382812 113.3125 193.167969 113.625 C 192.957031 113.9375 192.546875 114.050781 192.207031 113.882812 C 192.046875 113.808594 191.882812 113.738281 191.71875 113.6875 C 191.394531 113.570312 191.035156 113.515625 190.671875 113.515625 M 205.828125 134.847656 C 205.660156 134.847656 205.496094 134.792969 205.355469 134.683594 C 204.539062 134.035156 203.738281 133.40625 202.949219 132.792969 C 197.648438 128.644531 193.074219 125.058594 188.671875 119.671875 C 187.53125 118.28125 186.121094 116.1875 186.992188 114.136719 C 187.554688 112.820312 188.84375 112.140625 190.1875 112.011719 C 188.019531 109.851562 186.023438 107.53125 184.234375 105.082031 C 181.503906 101.351562 180.828125 98.085938 182.285156 95.648438 C 183.394531 93.789062 185.488281 92.984375 187.460938 92.902344 C 183.039062 90.421875 178.933594 87.449219 175.210938 84.015625 C 174.324219 83.203125 173.433594 82.195312 173.539062 80.894531 C 173.628906 79.765625 174.457031 78.800781 176.003906 78.027344 C 177.617188 77.226562 179.367188 76.65625 181.167969 76.34375 C 173.707031 73.859375 167 69.128906 162.269531 62.898438 C 161.308594 61.632812 160.324219 60.105469 160.292969 58.367188 C 160.238281 55.355469 162.980469 53.175781 165.589844 52.65625 C 165.902344 52.59375 166.207031 52.535156 166.511719 52.484375 C 156.5625 49.441406 148.011719 41.941406 144.019531 32.445312 C 143.566406 31.367188 143.160156 30.097656 143.609375 28.898438 C 144.207031 27.289062 146.023438 26.449219 148.714844 26.527344 C 153.121094 26.65625 157.75 27.703125 161.929688 29.453125 C 156.289062 23.703125 152.164062 16.378906 150.289062 8.59375 C 149.859375 6.796875 149.527344 4.519531 150.828125 2.8125 C 152.933594 0.0507812 157.101562 1.117188 160.089844 3.28125 C 164.832031 6.714844 168.714844 11.425781 171.222656 16.734375 C 171.152344 15.390625 170.789062 13.988281 170.414062 12.539062 C 170.183594 11.671875 169.949219 10.769531 169.785156 9.878906 C 169.320312 7.363281 169.898438 4.546875 171.230469 2.863281 C 172.09375 1.773438 173.234375 1.164062 174.535156 1.101562 C 177 0.980469 178.894531 2.875 180.265625 4.535156 C 186.109375 11.632812 190.113281 20.179688 191.882812 29.183594 C 192.230469 27.257812 192.730469 25.355469 193.382812 23.488281 C 193.929688 21.921875 194.707031 20.210938 196.34375 19.398438 C 198.464844 18.351562 200.941406 19.425781 202.292969 21.023438 C 203.640625 22.621094 204.160156 24.703125 204.542969 26.53125 C 206.128906 34.089844 206.621094 42.148438 206 49.800781 C 206.453125 48.828125 206.949219 47.875 207.484375 46.949219 C 208.25 45.613281 209.355469 44.039062 211.121094 43.703125 C 214.003906 43.152344 216.113281 46.164062 216.917969 49.390625 C 219.117188 58.222656 219.027344 67.691406 216.722656 76.589844 C 216.953125 76.277344 217.1875 75.964844 217.421875 75.660156 C 219.421875 73.089844 221.132812 72.914062 222.210938 73.21875 C 224.707031 73.921875 224.925781 77.121094 224.351562 79.644531 C 222.511719 87.75 219.480469 96.257812 215.488281 104.566406 C 217.15625 102.757812 218.917969 101.039062 220.757812 99.417969 C 222.019531 98.308594 223.542969 97.207031 225.292969 97.433594 C 226.910156 97.644531 228.332031 99.074219 228.753906 100.910156 C 229.117188 102.503906 228.78125 104.132812 228.394531 105.519531 C 224.984375 117.882812 214.648438 127.179688 206.339844 134.652344 C 206.195312 134.78125 206.011719 134.847656 205.828125 134.847656 " fill-opacity="1" fill-rule="nonzero"/><path fill="#9fa31d" d="M 163.0625 131.488281 C 160.878906 125.039062 157.554688 119.089844 152.523438 114.425781 C 151.03125 113.035156 148.800781 111.722656 147.085938 112.828125 C 146.027344 113.519531 145.644531 114.945312 145.84375 116.195312 C 145.894531 116.5 145.96875 116.796875 146.066406 117.089844 C 143.203125 112.328125 138.339844 108.777344 132.894531 107.621094 C 130.734375 107.160156 128.03125 107.289062 126.90625 109.1875 C 126.230469 110.328125 126.371094 111.816406 126.941406 113.015625 C 127.511719 114.21875 128.453125 115.199219 129.378906 116.15625 C 124.160156 110.855469 116.691406 107.847656 109.253906 108.054688 C 107.878906 108.09375 106.34375 108.324219 105.515625 109.417969 C 104.652344 110.558594 104.933594 112.257812 105.78125 113.410156 C 106.632812 114.5625 107.921875 115.292969 109.171875 115.992188 C 102.960938 113.921875 96.042969 114.050781 89.914062 116.351562 C 88.957031 116.707031 87.976562 117.152344 87.351562 117.960938 C 86.039062 119.664062 86.941406 122.316406 88.664062 123.605469 C 90.390625 124.894531 92.640625 125.179688 94.78125 125.425781 C 87.78125 126.296875 80.988281 128.792969 75.089844 132.664062 C 73.632812 133.621094 72.050781 135.1875 72.648438 136.820312 C 73.0625 137.953125 74.347656 138.476562 75.515625 138.769531 C 81.488281 140.265625 88.097656 139.003906 93.089844 135.40625 C 89.789062 137.648438 86.765625 140.300781 84.121094 143.289062 C 83.433594 144.058594 82.730469 145.03125 82.992188 146.03125 C 83.285156 147.160156 84.617188 147.628906 85.773438 147.785156 C 90.511719 148.429688 95.335938 146.84375 99.398438 144.320312 C 103.460938 141.800781 106.878906 138.386719 110.257812 135.007812 C 107.753906 137.484375 106.363281 141.050781 106.53125 144.570312 C 106.617188 146.40625 107.257812 148.417969 108.875 149.289062 C 110.558594 150.199219 112.632812 149.566406 114.394531 148.816406 C 121.621094 145.726562 128.078125 140.84375 133.019531 134.726562 C 131.179688 137.746094 129.765625 141.015625 128.828125 144.417969 C 128.535156 145.476562 128.308594 146.675781 128.882812 147.613281 C 129.792969 149.09375 131.976562 148.917969 133.652344 148.457031 C 140.019531 146.695312 145.953125 143.402344 150.820312 138.9375 C 150.085938 139.664062 149.421875 140.453125 149.035156 141.402344 C 148.496094 142.734375 148.691406 144.480469 149.867188 145.3125 C 151.242188 146.285156 153.152344 145.601562 154.621094 144.769531 C 159.660156 141.921875 165.195312 137.773438 163.0625 131.488281 " fill-opacity="1" fill-rule="nonzero"/><g clip-path="url(#44915c22d3)"><path fill="#5f2914" d="M 110.707031 135.632812 C 108.414062 137.957031 107.136719 141.273438 107.292969 144.53125 C 107.335938 145.46875 107.617188 147.738281 109.242188 148.621094 C 110.675781 149.394531 112.589844 148.757812 114.09375 148.113281 C 121.21875 145.070312 127.558594 140.277344 132.425781 134.25 C 132.675781 133.9375 133.128906 133.875 133.457031 134.105469 C 133.785156 134.335938 133.878906 134.78125 133.667969 135.125 C 131.867188 138.082031 130.484375 141.277344 129.5625 144.621094 C 129.316406 145.519531 129.117188 146.53125 129.53125 147.210938 C 130.285156 148.441406 132.523438 147.976562 133.449219 147.71875 C 139.691406 145.992188 145.519531 142.761719 150.304688 138.375 C 150.613281 138.09375 151.085938 138.109375 151.371094 138.410156 C 151.660156 138.710938 151.652344 139.1875 151.355469 139.476562 C 150.796875 140.03125 150.109375 140.78125 149.746094 141.683594 C 149.34375 142.679688 149.445312 144.078125 150.308594 144.6875 C 151.375 145.445312 153.039062 144.789062 154.246094 144.105469 C 159.046875 141.390625 164.308594 137.53125 162.34375 131.730469 C 159.992188 124.800781 156.515625 119.164062 152.007812 114.980469 C 151.347656 114.367188 149.074219 112.449219 147.503906 113.46875 C 146.675781 114.003906 146.453125 115.164062 146.597656 116.074219 C 146.636719 116.320312 146.703125 116.574219 146.789062 116.847656 C 146.914062 117.214844 146.742188 117.617188 146.386719 117.777344 C 146.035156 117.941406 145.613281 117.8125 145.414062 117.480469 C 142.640625 112.867188 137.902344 109.460938 132.738281 108.363281 C 130.824219 107.957031 128.460938 108.058594 127.5625 109.574219 C 126.984375 110.546875 127.21875 111.820312 127.632812 112.691406 C 128.152344 113.792969 129.054688 114.722656 129.929688 115.625 C 130.21875 115.921875 130.214844 116.40625 129.914062 116.695312 C 129.613281 116.992188 129.132812 116.984375 128.835938 116.6875 C 123.785156 111.554688 116.472656 108.613281 109.273438 108.816406 C 107.640625 108.863281 106.636719 109.199219 106.125 109.875 C 105.46875 110.746094 105.773438 112.113281 106.398438 112.957031 C 107.164062 114 108.429688 114.703125 109.542969 115.324219 C 109.886719 115.515625 110.027344 115.9375 109.871094 116.296875 C 109.710938 116.660156 109.304688 116.839844 108.929688 116.710938 C 102.84375 114.6875 96.1875 114.808594 90.183594 117.0625 C 89.324219 117.382812 88.460938 117.773438 87.957031 118.421875 C 87.46875 119.058594 87.449219 119.796875 87.519531 120.304688 C 87.660156 121.328125 88.273438 122.359375 89.121094 122.996094 C 90.730469 124.195312 92.925781 124.445312 94.867188 124.667969 C 95.253906 124.710938 95.542969 125.03125 95.542969 125.417969 C 95.546875 125.804688 95.257812 126.132812 94.875 126.179688 C 88 127.035156 81.300781 129.5 75.507812 133.300781 C 74.875 133.710938 72.855469 135.171875 73.363281 136.558594 C 73.605469 137.214844 74.371094 137.695312 75.703125 138.027344 C 81.226562 139.414062 87.257812 138.367188 92 135.234375 C 92.21875 135.078125 92.441406 134.925781 92.664062 134.773438 C 93.007812 134.539062 93.476562 134.628906 93.71875 134.96875 C 93.957031 135.308594 93.875 135.78125 93.539062 136.023438 C 93.316406 136.183594 93.089844 136.339844 92.859375 136.492188 C 89.863281 138.597656 87.121094 141.050781 84.691406 143.792969 C 84.152344 144.398438 83.558594 145.179688 83.730469 145.835938 C 83.949219 146.679688 85.304688 146.949219 85.878906 147.027344 C 91.109375 147.738281 95.898438 145.597656 99 143.671875 C 102.96875 141.210938 106.351562 137.835938 109.625 134.5625 C 109.65625 134.527344 109.6875 134.496094 109.722656 134.464844 C 110.019531 134.167969 110.503906 134.167969 110.796875 134.46875 C 111.09375 134.761719 111.09375 135.246094 110.796875 135.542969 C 110.765625 135.574219 110.734375 135.605469 110.707031 135.632812 M 110.769531 150.503906 C 110 150.503906 109.234375 150.347656 108.515625 149.960938 C 106.890625 149.082031 105.890625 147.128906 105.769531 144.605469 C 105.691406 142.972656 105.933594 141.332031 106.445312 139.777344 C 104.386719 141.679688 102.210938 143.472656 99.804688 144.96875 C 96.492188 147.023438 91.351562 149.3125 85.671875 148.539062 C 83.789062 148.285156 82.574219 147.460938 82.253906 146.21875 C 81.902344 144.867188 82.761719 143.671875 83.550781 142.78125 C 84.660156 141.527344 85.835938 140.328125 87.070312 139.195312 C 83.28125 140.335938 79.191406 140.476562 75.332031 139.507812 C 73.472656 139.039062 72.359375 138.246094 71.933594 137.082031 C 71.320312 135.410156 72.320312 133.566406 74.671875 132.023438 C 79.476562 128.875 84.878906 126.613281 90.5 125.386719 C 89.691406 125.113281 88.914062 124.742188 88.207031 124.214844 C 87.042969 123.347656 86.199219 121.925781 86.007812 120.511719 C 85.851562 119.371094 86.109375 118.324219 86.75 117.492188 C 87.484375 116.539062 88.578125 116.035156 89.644531 115.636719 C 94.707031 113.734375 100.207031 113.273438 105.484375 114.253906 C 105.375 114.125 105.269531 114 105.167969 113.863281 C 104.226562 112.578125 103.742188 110.496094 104.910156 108.957031 C 105.980469 107.542969 107.886719 107.328125 109.230469 107.292969 C 115.082031 107.128906 121 108.925781 125.851562 112.230469 C 125.542969 110.996094 125.675781 109.765625 126.25 108.796875 C 127.363281 106.921875 129.90625 106.203125 133.050781 106.875 C 137.746094 107.867188 142.109375 110.628906 145.15625 114.445312 C 145.382812 113.496094 145.910156 112.683594 146.671875 112.191406 C 148.382812 111.082031 150.703125 111.691406 153.042969 113.863281 C 157.738281 118.21875 161.355469 124.066406 163.789062 131.242188 C 166.140625 138.175781 159.894531 142.664062 154.996094 145.433594 C 152.117188 147.0625 150.378906 146.601562 149.425781 145.929688 C 148.222656 145.078125 147.847656 143.585938 148.035156 142.230469 C 143.789062 145.398438 138.953125 147.777344 133.855469 149.1875 C 131.15625 149.933594 129.160156 149.515625 128.234375 148.007812 C 127.511719 146.835938 127.757812 145.433594 128.09375 144.214844 C 128.539062 142.59375 129.09375 141.003906 129.742188 139.457031 C 125.402344 143.695312 120.28125 147.125 114.695312 149.515625 C 113.527344 150.011719 112.140625 150.503906 110.769531 150.503906 " fill-opacity="1" fill-rule="nonzero"/></g><path fill="#5f2914" d="M 207.503906 166.949219 C 208.921875 147.082031 208.832031 126.816406 206.589844 107.015625 C 204.597656 89.453125 200.042969 72.066406 192.667969 55.976562 C 190.652344 51.585938 188.398438 47.300781 185.871094 43.1875 C 183.277344 38.96875 180.527344 34.765625 177.113281 31.171875 C 175.980469 29.984375 174.320312 31.460938 175.199219 32.78125 C 177.609375 36.40625 180.195312 39.898438 182.453125 43.625 C 184.632812 47.21875 186.625 50.921875 188.429688 54.714844 C 192.117188 62.46875 194.964844 70.53125 197.070312 78.851562 C 201.589844 96.757812 203.199219 115.367188 203.355469 133.792969 C 203.429688 142.65625 203.105469 151.515625 202.902344 160.375 C 200.496094 152.085938 196.851562 144.007812 193.105469 136.285156 C 188.941406 127.703125 184.109375 119.433594 178.808594 111.507812 C 168.148438 95.566406 155.328125 81.230469 140.707031 68.820312 C 132.449219 61.816406 123.667969 55.335938 114.261719 49.953125 C 112.886719 49.167969 111.472656 51.085938 112.828125 52 C 128.488281 62.582031 142.957031 74.5 155.550781 88.632812 C 168.074219 102.6875 178.851562 118.144531 187.304688 134.976562 C 189.695312 139.742188 191.9375 144.582031 193.972656 149.507812 C 195.171875 152.421875 196.253906 155.378906 197.34375 158.328125 C 190.539062 150.003906 182.140625 142.859375 173.097656 137.21875 C 160.796875 129.542969 146.953125 124.679688 132.570312 122.851562 C 124.40625 121.816406 116.109375 121.941406 108.015625 123.445312 C 106.699219 123.691406 106.730469 125.914062 108.152344 125.867188 C 122.136719 125.414062 136.191406 126.648438 149.507812 131.128906 C 162.46875 135.484375 174.460938 142.488281 184.554688 151.71875 C 190.1875 156.867188 195.035156 162.75 199.574219 168.871094 C 200.621094 170.289062 202.738281 169.554688 203.363281 168.246094 C 204.589844 169.621094 207.332031 169.320312 207.503906 166.949219 " fill-opacity="1" fill-rule="nonzero"/><g clip-path="url(#a6c77d0f6b)"><path fill="#5f2914" d="M 110.707031 135.632812 C 108.414062 137.957031 107.136719 141.273438 107.292969 144.53125 C 107.335938 145.46875 107.617188 147.738281 109.242188 148.621094 C 110.675781 149.394531 112.589844 148.757812 114.09375 148.113281 C 121.21875 145.070312 127.558594 140.277344 132.425781 134.25 C 132.675781 133.9375 133.128906 133.875 133.457031 134.105469 C 133.785156 134.335938 133.878906 134.78125 133.667969 135.125 C 131.867188 138.082031 130.484375 141.277344 129.5625 144.621094 C 129.316406 145.519531 129.117188 146.53125 129.53125 147.210938 C 130.285156 148.441406 132.523438 147.976562 133.449219 147.71875 C 139.691406 145.992188 145.519531 142.761719 150.304688 138.375 C 150.613281 138.09375 151.085938 138.109375 151.371094 138.410156 C 151.660156 138.710938 151.652344 139.1875 151.355469 139.476562 C 150.796875 140.03125 150.109375 140.78125 149.746094 141.683594 C 149.34375 142.679688 149.445312 144.078125 150.308594 144.6875 C 151.375 145.445312 153.039062 144.789062 154.246094 144.105469 C 159.046875 141.390625 164.308594 137.53125 162.34375 131.730469 C 159.992188 124.800781 156.515625 119.164062 152.007812 114.980469 C 151.347656 114.367188 149.074219 112.449219 147.503906 113.46875 C 146.675781 114.003906 146.453125 115.164062 146.597656 116.074219 C 146.636719 116.320312 146.703125 116.574219 146.789062 116.847656 C 146.914062 117.214844 146.742188 117.617188 146.386719 117.777344 C 146.035156 117.941406 145.613281 117.8125 145.414062 117.480469 C 142.640625 112.867188 137.902344 109.460938 132.738281 108.363281 C 130.824219 107.957031 128.460938 108.058594 127.5625 109.574219 C 126.984375 110.546875 127.21875 111.820312 127.632812 112.691406 C 128.152344 113.792969 129.054688 114.722656 129.929688 115.625 C 130.21875 115.921875 130.214844 116.40625 129.914062 116.695312 C 129.613281 116.992188 129.132812 116.984375 128.835938 116.6875 C 123.785156 111.554688 116.472656 108.613281 109.273438 108.816406 C 107.640625 108.863281 106.636719 109.199219 106.125 109.875 C 105.46875 110.746094 105.773438 112.113281 106.398438 112.957031 C 107.164062 114 108.429688 114.703125 109.542969 115.324219 C 109.886719 115.515625 110.027344 115.9375 109.871094 116.296875 C 109.710938 116.660156 109.304688 116.839844 108.929688 116.710938 C 102.84375 114.6875 96.1875 114.808594 90.183594 117.0625 C 89.324219 117.382812 88.460938 117.773438 87.957031 118.421875 C 87.46875 119.058594 87.449219 119.796875 87.519531 120.304688 C 87.660156 121.328125 88.273438 122.359375 89.121094 122.996094 C 90.730469 124.195312 92.925781 124.445312 94.867188 124.667969 C 95.253906 124.710938 95.542969 125.03125 95.542969 125.417969 C 95.546875 125.804688 95.257812 126.132812 94.875 126.179688 C 88 127.035156 81.300781 129.5 75.507812 133.300781 C 74.875 133.710938 72.855469 135.171875 73.363281 136.558594 C 73.605469 137.214844 74.371094 137.695312 75.703125 138.027344 C 81.226562 139.414062 87.257812 138.367188 92 135.234375 C 92.21875 135.078125 92.441406 134.925781 92.664062 134.773438 C 93.007812 134.539062 93.476562 134.628906 93.71875 134.96875 C 93.957031 135.308594 93.875 135.78125 93.539062 136.023438 C 93.316406 136.183594 93.089844 136.339844 92.859375 136.492188 C 89.863281 138.597656 87.121094 141.050781 84.691406 143.792969 C 84.152344 144.398438 83.558594 145.179688 83.730469 145.835938 C 83.949219 146.679688 85.304688 146.949219 85.878906 147.027344 C 91.109375 147.738281 95.898438 145.597656 99 143.671875 C 102.96875 141.210938 106.351562 137.835938 109.625 134.5625 C 109.65625 134.527344 109.6875 134.496094 109.722656 134.464844 C 110.019531 134.167969 110.503906 134.167969 110.796875 134.46875 C 111.09375 134.761719 111.09375 135.246094 110.796875 135.542969 C 110.765625 135.574219 110.734375 135.605469 110.707031 135.632812 M 110.769531 150.503906 C 110 150.503906 109.234375 150.347656 108.515625 149.960938 C 106.890625 149.082031 105.890625 147.128906 105.769531 144.605469 C 105.691406 142.972656 105.933594 141.332031 106.445312 139.777344 C 104.386719 141.679688 102.210938 143.472656 99.804688 144.96875 C 96.492188 147.023438 91.351562 149.3125 85.671875 148.539062 C 83.789062 148.285156 82.574219 147.460938 82.253906 146.21875 C 81.902344 144.867188 82.761719 143.671875 83.550781 142.78125 C 84.660156 141.527344 85.835938 140.328125 87.070312 139.195312 C 83.28125 140.335938 79.191406 140.476562 75.332031 139.507812 C 73.472656 139.039062 72.359375 138.246094 71.933594 137.082031 C 71.320312 135.410156 72.320312 133.566406 74.671875 132.023438 C 79.476562 128.875 84.878906 126.613281 90.5 125.386719 C 89.691406 125.113281 88.914062 124.742188 88.207031 124.214844 C 87.042969 123.347656 86.199219 121.925781 86.007812 120.511719 C 85.851562 119.371094 86.109375 118.324219 86.75 117.492188 C 87.484375 116.539062 88.578125 116.035156 89.644531 115.636719 C 94.707031 113.734375 100.207031 113.273438 105.484375 114.253906 C 105.375 114.125 105.269531 114 105.167969 113.863281 C 104.226562 112.578125 103.742188 110.496094 104.910156 108.957031 C 105.980469 107.542969 107.886719 107.328125 109.230469 107.292969 C 115.082031 107.128906 121 108.925781 125.851562 112.230469 C 125.542969 110.996094 125.675781 109.765625 126.25 108.796875 C 127.363281 106.921875 129.90625 106.203125 133.050781 106.875 C 137.746094 107.867188 142.109375 110.628906 145.15625 114.445312 C 145.382812 113.496094 145.910156 112.683594 146.671875 112.191406 C 148.382812 111.082031 150.703125 111.691406 153.042969 113.863281 C 157.738281 118.21875 161.355469 124.066406 163.789062 131.242188 C 166.140625 138.175781 159.894531 142.664062 154.996094 145.433594 C 152.117188 147.0625 150.378906 146.601562 149.425781 145.929688 C 148.222656 145.078125 147.847656 143.585938 148.035156 142.230469 C 143.789062 145.398438 138.953125 147.777344 133.855469 149.1875 C 131.15625 149.933594 129.160156 149.515625 128.234375 148.007812 C 127.511719 146.835938 127.757812 145.433594 128.09375 144.214844 C 128.539062 142.59375 129.09375 141.003906 129.742188 139.457031 C 125.402344 143.695312 120.28125 147.125 114.695312 149.515625 C 113.527344 150.011719 112.140625 150.503906 110.769531 150.503906 " fill-opacity="1" fill-rule="nonzero"/></g><path fill="#f46d25" d="M 259.425781 221.65625 C 259.378906 223.441406 259.304688 225.222656 259.210938 227.007812 C 258.601562 238.613281 257.121094 250.167969 254.832031 261.476562 C 254.484375 263.191406 254.125 264.902344 253.738281 266.609375 C 253.167969 269.152344 252.558594 271.671875 251.90625 274.183594 C 248.261719 288.238281 243.359375 301.835938 237.277344 314.625 C 235.445312 318.476562 233.402344 322.996094 231.097656 327.496094 C 230.050781 329.527344 228.957031 331.554688 227.808594 333.507812 C 224.550781 339.039062 220.84375 343.992188 216.582031 346.886719 C 206.472656 353.765625 201.449219 340.429688 198.238281 331.019531 C 195.441406 322.824219 192.640625 314.625 189.84375 306.429688 C 189.238281 304.660156 188.632812 302.882812 188.027344 301.109375 C 183.714844 288.484375 179.398438 275.851562 175.082031 263.21875 C 174.808594 262.414062 174.535156 261.605469 174.261719 260.804688 C 174.003906 260.058594 173.746094 259.3125 173.480469 258.574219 C 167.367188 241.304688 159.148438 224.945312 154.714844 206.898438 C 154.289062 205.175781 153.902344 203.441406 153.554688 201.6875 L 153.550781 201.671875 C 151.578125 191.730469 151.035156 183.386719 156.410156 174.882812 C 160.894531 167.800781 167.738281 163.035156 174.453125 159.582031 C 191.980469 150.554688 213.097656 145.753906 231.800781 151.703125 C 245.792969 156.15625 253.738281 166.539062 256.902344 182.125 C 257 182.617188 257.09375 183.113281 257.183594 183.613281 C 257.398438 184.78125 257.582031 185.976562 257.742188 187.199219 L 257.742188 187.207031 C 259.226562 198.597656 259.765625 210.140625 259.425781 221.65625 " fill-opacity="1" fill-rule="nonzero"/><path fill="#de511e" d="M 180.484375 197.015625 C 174.050781 198.832031 167.617188 200.863281 161.496094 203.574219 C 159.199219 204.589844 156.9375 205.707031 154.714844 206.898438 C 154.289062 205.175781 153.902344 203.4375 153.554688 201.6875 L 153.550781 201.671875 C 161.859375 197.535156 170.992188 194.902344 180.121094 194.296875 C 181.722656 194.1875 181.945312 196.605469 180.484375 197.015625 " fill-opacity="1" fill-rule="nonzero"/><path fill="#de511e" d="M 217.351562 201.402344 C 216.960938 199.921875 215.550781 199.410156 214.183594 199.605469 C 210.246094 200.175781 206.386719 200.929688 202.53125 201.894531 C 199.003906 202.78125 194.640625 203.738281 191.667969 205.921875 C 190.484375 206.789062 190.859375 208.632812 192.425781 208.710938 C 196.144531 208.90625 200.257812 207.558594 203.882812 206.796875 C 207.753906 205.980469 211.65625 205.25 215.550781 204.566406 C 216.933594 204.328125 217.679688 202.652344 217.351562 201.402344 " fill-opacity="1" fill-rule="nonzero"/><path fill="#de511e" d="M 257.742188 187.199219 L 257.742188 187.207031 C 249.148438 186.570312 240.492188 186.765625 231.964844 187.992188 C 229.863281 188.292969 228.886719 185.226562 231.066406 184.71875 C 239.5625 182.730469 248.242188 181.8125 256.902344 182.125 C 257 182.617188 257.09375 183.109375 257.183594 183.613281 C 257.398438 184.78125 257.582031 185.976562 257.742188 187.199219 " fill-opacity="1" fill-rule="nonzero"/><path fill="#de511e" d="M 259.425781 221.65625 C 259.378906 223.441406 259.304688 225.226562 259.207031 227.007812 C 250.085938 226.542969 240.945312 226.683594 231.824219 227.441406 C 230.023438 227.59375 229.6875 224.71875 231.40625 224.332031 C 240.59375 222.261719 250.023438 221.355469 259.425781 221.65625 " fill-opacity="1" fill-rule="nonzero"/><path fill="#de511e" d="M 207.613281 230.5 C 204.0625 231.324219 200.335938 232.003906 196.964844 233.417969 C 195.539062 234.015625 195.511719 236.433594 197.363281 236.359375 C 201.167969 236.210938 204.984375 235.214844 208.695312 234.425781 C 211.25 233.886719 210.175781 229.90625 207.613281 230.5 " fill-opacity="1" fill-rule="nonzero"/><path fill="#de511e" d="M 206.113281 170.484375 C 205.742188 169.078125 204.417969 168.605469 203.121094 168.785156 C 194.941406 169.917969 186.382812 171.738281 179.125 175.800781 C 177.679688 176.609375 178.742188 178.496094 180.171875 178.28125 C 188.308594 177.078125 196.285156 174.820312 204.414062 173.476562 C 205.722656 173.257812 206.421875 171.65625 206.113281 170.484375 " fill-opacity="1" fill-rule="nonzero"/><path fill="#de511e" d="M 193.058594 260 C 187.949219 260.914062 182.824219 261.78125 177.71875 262.730469 C 176.839844 262.894531 175.960938 263.058594 175.082031 263.21875 C 174.808594 262.414062 174.535156 261.605469 174.261719 260.804688 C 174.003906 260.058594 173.746094 259.3125 173.480469 258.574219 C 174.566406 258.308594 175.652344 258.050781 176.742188 257.808594 C 181.933594 256.644531 187.113281 255.707031 192.386719 255.003906 C 195.234375 254.621094 195.851562 259.5 193.058594 260 " fill-opacity="1" fill-rule="nonzero"/><path fill="#de511e" d="M 182.546875 222.515625 C 178.335938 223.46875 174.226562 224.585938 170.144531 225.992188 C 168.824219 226.445312 168.921875 228.804688 170.496094 228.601562 C 174.917969 228.035156 179.222656 227.214844 183.554688 226.167969 C 185.929688 225.597656 184.925781 221.976562 182.546875 222.515625 " fill-opacity="1" fill-rule="nonzero"/><path fill="#de511e" d="M 224.246094 211.480469 C 221.378906 212.039062 218.460938 212.601562 215.847656 213.945312 C 214.410156 214.6875 215.171875 216.789062 216.632812 216.84375 C 219.566406 216.953125 222.519531 216.175781 225.34375 215.464844 C 227.945312 214.808594 226.832031 210.980469 224.246094 211.480469 " fill-opacity="1" fill-rule="nonzero"/><path fill="#de511e" d="M 233.273438 168.785156 C 229.246094 168.511719 225.347656 168.886719 221.496094 170.097656 C 219.914062 170.589844 220.152344 173.058594 221.894531 173.039062 C 225.679688 173.003906 229.484375 172.957031 233.273438 173.082031 C 236.058594 173.175781 236.011719 168.96875 233.273438 168.785156 " fill-opacity="1" fill-rule="nonzero"/><path fill="#de511e" d="M 251.085938 197.296875 C 248.613281 197.222656 246.359375 197.433594 243.964844 198.058594 C 242.269531 198.503906 242.613281 201.125 244.378906 201.113281 C 246.605469 201.097656 248.859375 201.074219 251.085938 201.140625 C 253.5625 201.21875 253.5625 197.371094 251.085938 197.296875 " fill-opacity="1" fill-rule="nonzero"/><path fill="#de511e" d="M 254.832031 261.472656 C 254.488281 263.191406 254.125 264.902344 253.738281 266.609375 C 248.011719 266.457031 242.285156 266.792969 236.578125 267.734375 C 234.691406 268.042969 233.929688 265.472656 235.78125 264.84375 C 241.890625 262.757812 248.355469 261.589844 254.832031 261.472656 " fill-opacity="1" fill-rule="nonzero"/><path fill="#de511e" d="M 230.359375 244.273438 C 225.375 244.574219 220.921875 245.847656 216.496094 248.140625 C 215.167969 248.828125 216.09375 250.890625 217.496094 250.519531 C 221.675781 249.410156 226.054688 248.679688 230.359375 248.289062 C 232.894531 248.058594 232.964844 244.117188 230.359375 244.273438 " fill-opacity="1" fill-rule="nonzero"/><path fill="#de511e" d="M 217.210938 278.011719 C 212.851562 278.222656 208.65625 278.839844 204.558594 280.402344 C 203.136719 280.949219 203.164062 283.441406 204.949219 283.292969 C 209.042969 282.953125 213.117188 282.433594 217.210938 282.140625 C 219.839844 281.957031 219.886719 277.886719 217.210938 278.011719 " fill-opacity="1" fill-rule="nonzero"/><path fill="#de511e" d="M 203.015625 304.269531 C 199.535156 305.683594 195.773438 305.878906 192.078125 306.210938 C 191.328125 306.273438 190.585938 306.351562 189.84375 306.429688 C 189.238281 304.660156 188.632812 302.882812 188.027344 301.109375 C 189.132812 301.035156 190.238281 300.984375 191.339844 300.957031 C 193.085938 300.914062 194.828125 301.082031 196.570312 301.246094 C 198.59375 301.4375 200.621094 301.628906 202.640625 301.492188 C 204.378906 301.375 204.359375 303.722656 203.015625 304.269531 " fill-opacity="1" fill-rule="nonzero"/><path fill="#de511e" d="M 239.976562 296.199219 C 233.144531 295.382812 226.4375 294.902344 219.65625 296.4375 C 217.585938 296.90625 218.519531 299.832031 220.515625 299.546875 C 226.9375 298.625 233.585938 299.617188 239.976562 300.382812 C 242.648438 300.699219 242.625 296.515625 239.976562 296.199219 " fill-opacity="1" fill-rule="nonzero"/><path fill="#de511e" d="M 220.421875 313.960938 C 217.007812 314.058594 213.703125 314.539062 210.339844 315.125 C 208.386719 315.464844 209.011719 318.285156 210.78125 318.402344 C 214.019531 318.621094 217.1875 318.730469 220.421875 318.484375 C 223.292969 318.265625 223.371094 313.871094 220.421875 313.960938 " fill-opacity="1" fill-rule="nonzero"/><path fill="#de511e" d="M 231.097656 327.496094 C 230.054688 329.527344 228.960938 331.554688 227.808594 333.507812 C 221.542969 333.03125 215.28125 332.523438 209.035156 331.949219 C 207.15625 331.777344 206.390625 328.71875 208.550781 328.394531 C 215.949219 327.277344 223.558594 327 231.097656 327.496094 " fill-opacity="1" fill-rule="nonzero"/><path fill="#f25626" d="M 211.304688 348.027344 C 210.683594 348.027344 210.082031 347.925781 209.488281 347.730469 C 204.144531 345.945312 200.773438 336.078125 198.964844 330.773438 C 196.183594 322.632812 193.40625 314.488281 190.625 306.347656 C 191.109375 306.296875 191.589844 306.25 192.078125 306.207031 C 195.773438 305.878906 199.539062 305.683594 203.015625 304.269531 C 204.328125 303.734375 204.378906 301.488281 202.765625 301.488281 C 202.722656 301.488281 202.683594 301.488281 202.640625 301.492188 C 202.164062 301.523438 201.6875 301.539062 201.210938 301.539062 C 199.664062 301.539062 198.117188 301.390625 196.570312 301.246094 C 195.023438 301.097656 193.476562 300.953125 191.921875 300.953125 C 191.730469 300.953125 191.535156 300.953125 191.34375 300.957031 C 190.503906 300.980469 189.660156 301.011719 188.820312 301.0625 C 186.878906 295.390625 184.941406 289.71875 183.007812 284.050781 L 175.84375 263.078125 C 176.46875 262.964844 177.09375 262.847656 177.71875 262.730469 C 182.824219 261.78125 187.949219 260.914062 193.058594 260 C 194.289062 259.78125 194.859375 258.710938 194.867188 257.613281 C 197.035156 269.894531 199.742188 282.234375 202.847656 294.796875 C 204.539062 301.746094 206.695312 308.976562 210.042969 315.203125 C 208.460938 315.765625 209.109375 318.292969 210.785156 318.402344 C 211.183594 318.429688 211.585938 318.453125 211.984375 318.476562 C 214.257812 321.953125 217 324.992188 220.375 327.316406 C 216.402344 327.449219 212.449219 327.804688 208.550781 328.394531 C 206.394531 328.714844 207.15625 331.777344 209.035156 331.945312 C 215 332.496094 220.984375 332.988281 226.96875 333.445312 C 223.808594 338.765625 220.242188 343.476562 216.15625 346.257812 C 214.414062 347.441406 212.816406 348.027344 211.304688 348.027344 M 174.230469 258.394531 C 172.03125 252.1875 169.542969 246.039062 167.125 240.078125 C 162.761719 229.304688 158.269531 218.210938 155.410156 206.527344 C 157.410156 205.472656 159.4375 204.484375 161.496094 203.574219 C 167.621094 200.863281 174.050781 198.832031 180.488281 197.015625 C 181.914062 196.613281 181.730469 194.292969 180.222656 194.292969 C 180.1875 194.292969 180.15625 194.292969 180.121094 194.296875 C 171.253906 194.882812 162.378906 197.386719 154.261719 201.320312 C 152.253906 191.140625 152.042969 183.21875 157.054688 175.292969 C 160.777344 169.410156 166.582031 164.492188 174.804688 160.257812 C 183.371094 155.847656 198.042969 149.804688 214.128906 149.804688 C 219.1875 149.804688 224.386719 150.402344 229.578125 151.835938 C 218.1875 154.550781 207.605469 160.632812 200.121094 169.234375 C 192.878906 170.394531 185.5 172.234375 179.125 175.800781 C 177.757812 176.566406 178.636719 178.300781 179.949219 178.300781 C 180.023438 178.300781 180.097656 178.292969 180.171875 178.28125 C 185.390625 177.511719 190.539062 176.304688 195.707031 175.1875 C 191.394531 182.089844 188.917969 190.191406 189.121094 199.171875 C 189.351562 218.601562 191.363281 237.484375 194.667969 256.472656 C 194.351562 255.632812 193.675781 254.980469 192.699219 254.980469 C 192.597656 254.980469 192.492188 254.984375 192.386719 255 C 187.113281 255.707031 181.933594 256.644531 176.742188 257.808594 C 175.902344 257.996094 175.0625 258.191406 174.230469 258.394531 M 183.019531 222.460938 C 182.867188 222.460938 182.710938 222.476562 182.546875 222.515625 C 178.335938 223.46875 174.230469 224.585938 170.144531 225.992188 C 168.882812 226.425781 168.914062 228.613281 170.3125 228.613281 C 170.371094 228.613281 170.433594 228.609375 170.5 228.601562 C 174.917969 228.035156 179.222656 227.214844 183.554688 226.167969 C 185.769531 225.636719 185.046875 222.460938 183.019531 222.460938 " fill-opacity="1" fill-rule="nonzero"/><path fill="#d74220" d="M 155.410156 206.527344 C 155.007812 204.875 154.636719 203.214844 154.304688 201.539062 C 154.289062 201.464844 154.277344 201.394531 154.261719 201.324219 C 162.378906 197.386719 171.253906 194.882812 180.121094 194.296875 C 180.15625 194.292969 180.1875 194.292969 180.222656 194.292969 C 181.730469 194.292969 181.914062 196.613281 180.484375 197.015625 C 174.050781 198.832031 167.617188 200.863281 161.496094 203.574219 C 159.4375 204.484375 157.410156 205.472656 155.410156 206.527344 " fill-opacity="1" fill-rule="nonzero"/><path fill="#d74220" d="M 179.949219 178.300781 C 178.636719 178.300781 177.757812 176.566406 179.125 175.800781 C 185.5 172.234375 192.878906 170.394531 200.121094 169.234375 C 198.492188 171.101562 197.015625 173.085938 195.707031 175.1875 C 190.539062 176.304688 185.390625 177.511719 180.171875 178.28125 C 180.097656 178.292969 180.019531 178.300781 179.949219 178.300781 " fill-opacity="1" fill-rule="nonzero"/><path fill="#d74220" d="M 175.84375 263.082031 L 174.984375 260.558594 C 174.734375 259.835938 174.484375 259.113281 174.226562 258.394531 C 175.0625 258.191406 175.902344 257.996094 176.742188 257.808594 C 181.933594 256.644531 187.113281 255.707031 192.386719 255.003906 C 192.492188 254.988281 192.59375 254.980469 192.695312 254.980469 C 193.675781 254.980469 194.351562 255.632812 194.664062 256.472656 C 194.730469 256.851562 194.796875 257.230469 194.867188 257.613281 C 194.859375 258.710938 194.289062 259.78125 193.058594 260 C 187.949219 260.914062 182.824219 261.78125 177.71875 262.730469 C 177.09375 262.847656 176.46875 262.964844 175.84375 263.082031 " fill-opacity="1" fill-rule="nonzero"/><path fill="#d74220" d="M 170.3125 228.613281 C 168.914062 228.613281 168.882812 226.425781 170.144531 225.992188 C 174.226562 224.585938 178.335938 223.46875 182.546875 222.515625 C 182.710938 222.476562 182.867188 222.460938 183.019531 222.460938 C 185.046875 222.460938 185.765625 225.636719 183.554688 226.167969 C 179.222656 227.214844 174.917969 228.035156 170.496094 228.601562 C 170.433594 228.609375 170.371094 228.613281 170.3125 228.613281 " fill-opacity="1" fill-rule="nonzero"/><path fill="#d74220" d="M 190.621094 306.347656 C 190.019531 304.585938 189.417969 302.824219 188.816406 301.0625 C 189.660156 301.011719 190.5 300.980469 191.339844 300.957031 C 191.535156 300.953125 191.730469 300.953125 191.921875 300.953125 C 193.476562 300.953125 195.023438 301.097656 196.570312 301.246094 C 198.117188 301.390625 199.664062 301.539062 201.207031 301.539062 C 201.683594 301.539062 202.164062 301.523438 202.640625 301.492188 C 202.683594 301.488281 202.722656 301.488281 202.765625 301.488281 C 204.378906 301.488281 204.328125 303.734375 203.015625 304.269531 C 199.535156 305.683594 195.773438 305.878906 192.078125 306.210938 C 191.589844 306.25 191.105469 306.296875 190.621094 306.347656 " fill-opacity="1" fill-rule="nonzero"/><path fill="#d74220" d="M 211.980469 318.476562 C 211.582031 318.457031 211.183594 318.429688 210.78125 318.402344 C 209.109375 318.292969 208.457031 315.765625 210.042969 315.203125 C 210.648438 316.332031 211.292969 317.425781 211.980469 318.476562 " fill-opacity="1" fill-rule="nonzero"/><path fill="#d74220" d="M 226.96875 333.445312 C 220.984375 332.988281 215 332.496094 209.035156 331.949219 C 207.15625 331.777344 206.390625 328.71875 208.550781 328.394531 C 212.445312 327.804688 216.402344 327.449219 220.371094 327.316406 C 221.789062 328.292969 223.3125 329.144531 224.957031 329.847656 C 226.09375 330.339844 227.210938 330.757812 228.308594 331.117188 C 227.871094 331.90625 227.421875 332.679688 226.96875 333.445312 " fill-opacity="1" fill-rule="nonzero"/><path fill="#5f2914" d="M 214.128906 149.808594 C 198.042969 149.808594 183.371094 155.847656 174.804688 160.257812 C 166.582031 164.492188 160.777344 169.410156 157.054688 175.296875 C 152.003906 183.277344 152.257812 191.253906 154.304688 201.539062 C 156.992188 215.070312 162.144531 227.785156 167.125 240.078125 C 169.824219 246.738281 172.609375 253.617188 174.980469 260.558594 L 183.003906 284.050781 C 188.324219 299.621094 193.644531 315.199219 198.960938 330.777344 C 200.769531 336.078125 204.140625 345.945312 209.488281 347.730469 C 211.519531 348.40625 213.699219 347.925781 216.152344 346.257812 C 224.160156 340.808594 230.1875 327.941406 235.035156 317.601562 C 235.566406 316.460938 236.085938 315.351562 236.589844 314.296875 C 242.605469 301.652344 247.511719 288.089844 251.167969 273.992188 C 258.621094 245.253906 260.632812 215.273438 256.984375 187.296875 C 256.828125 186.085938 256.640625 184.890625 256.433594 183.75 C 253.429688 167.042969 245.296875 156.796875 231.570312 152.429688 C 225.71875 150.566406 219.832031 149.808594 214.128906 149.808594 M 211.285156 349.546875 C 210.507812 349.546875 209.746094 349.425781 209.003906 349.175781 C 203.410156 347.3125 200.140625 338.953125 197.515625 331.269531 C 192.203125 315.691406 186.882812 300.117188 181.5625 284.542969 L 173.535156 261.050781 C 171.179688 254.152344 168.398438 247.289062 165.710938 240.652344 C 160.703125 228.289062 155.523438 215.503906 152.808594 201.835938 C 150.691406 191.183594 150.445312 182.890625 155.765625 174.480469 C 159.636719 168.359375 165.636719 163.265625 174.105469 158.902344 C 185.921875 152.820312 209.160156 143.699219 232.03125 150.976562 C 246.347656 155.535156 254.820312 166.164062 257.9375 183.476562 C 258.148438 184.644531 258.335938 185.863281 258.496094 187.097656 C 262.171875 215.269531 260.148438 245.449219 252.644531 274.375 C 248.960938 288.566406 244.023438 302.21875 237.96875 314.953125 C 237.464844 316.003906 236.949219 317.109375 236.414062 318.246094 C 231.492188 328.757812 225.363281 341.832031 217.011719 347.519531 C 215.027344 348.867188 213.109375 349.546875 211.285156 349.546875 " fill-opacity="1" fill-rule="nonzero"/><path fill="#f79326" d="M 242.019531 279.300781 C 241.257812 279.300781 240.539062 278.65625 240.445312 277.859375 C 240.03125 274.300781 241.195312 270.550781 242.183594 267 C 244.316406 266.792969 246.453125 266.664062 248.585938 266.609375 C 248.476562 266.996094 248.367188 267.378906 248.253906 267.765625 C 247.144531 271.578125 245.9375 275.945312 243.003906 278.871094 C 242.703125 279.171875 242.359375 279.300781 242.019531 279.300781 M 243.226562 262.796875 C 244.054688 259.046875 244.730469 255.265625 245.320312 251.472656 C 246.578125 243.328125 247.125 235.03125 246.949219 226.75 C 247.546875 226.742188 248.144531 226.738281 248.742188 226.738281 C 250.460938 226.738281 252.179688 226.761719 253.902344 226.804688 C 253.90625 228.230469 253.890625 229.652344 253.855469 231.066406 C 253.65625 239.332031 252.816406 247.644531 251.203125 255.769531 C 250.804688 257.777344 250.359375 259.777344 249.867188 261.769531 C 247.636719 261.992188 245.414062 262.335938 243.226562 262.796875 M 246.773438 221.976562 C 246.460938 216.195312 245.800781 210.441406 244.789062 204.765625 C 244.570312 203.539062 244.332031 202.3125 244.082031 201.089844 C 244.171875 201.105469 244.265625 201.113281 244.367188 201.113281 C 244.367188 201.113281 244.371094 201.113281 244.375 201.113281 C 245.464844 201.105469 246.554688 201.097656 247.644531 201.097656 C 248.792969 201.097656 249.941406 201.109375 251.085938 201.144531 C 251.113281 201.144531 251.132812 201.144531 251.15625 201.144531 C 251.324219 201.144531 251.480469 201.125 251.628906 201.089844 C 252.84375 207.878906 253.554688 214.765625 253.800781 221.617188 C 251.457031 221.660156 249.113281 221.78125 246.773438 221.976562 M 243.46875 198.285156 C 242.601562 194.515625 241.558594 190.78125 240.308594 187.117188 C 242.949219 186.9375 245.59375 186.851562 248.238281 186.851562 C 249.269531 190.28125 250.148438 193.769531 250.886719 197.292969 C 250.636719 197.285156 250.386719 197.28125 250.144531 197.28125 C 248.03125 197.28125 246.054688 197.511719 243.960938 198.058594 C 243.773438 198.109375 243.609375 198.1875 243.46875 198.285156 M 238.886719 183.199219 C 238.839844 183.078125 238.789062 182.953125 238.742188 182.832031 C 237.414062 179.449219 235.835938 176.160156 234.003906 172.996094 C 236.023438 172.394531 235.746094 168.949219 233.273438 168.785156 C 232.613281 168.742188 231.960938 168.714844 231.308594 168.707031 C 230.148438 166.925781 228.988281 165.148438 228.003906 163.277344 C 226.648438 160.691406 228.6875 158.367188 231.058594 158.367188 C 231.863281 158.367188 232.707031 158.636719 233.46875 159.25 C 237.039062 162.132812 239.46875 166.210938 241.542969 170.148438 C 243.601562 174.0625 245.335938 178.152344 246.777344 182.3125 C 244.140625 182.5 241.503906 182.800781 238.886719 183.199219 " fill-opacity="1" fill-rule="nonzero"/><path fill="#e96919" d="M 240.308594 187.117188 C 239.863281 185.800781 239.386719 184.496094 238.882812 183.203125 C 241.503906 182.800781 244.136719 182.5 246.773438 182.3125 C 246.8125 182.421875 246.851562 182.53125 246.886719 182.644531 C 247.363281 184.035156 247.8125 185.4375 248.238281 186.851562 C 245.59375 186.855469 242.949219 186.9375 240.308594 187.117188 " fill-opacity="1" fill-rule="nonzero"/><path fill="#e96919" d="M 253.902344 226.804688 C 252.183594 226.761719 250.460938 226.738281 248.738281 226.738281 C 248.144531 226.738281 247.546875 226.742188 246.953125 226.75 C 246.917969 225.15625 246.859375 223.566406 246.773438 221.976562 C 249.113281 221.78125 251.457031 221.660156 253.800781 221.617188 C 253.863281 223.351562 253.898438 225.082031 253.902344 226.804688 " fill-opacity="1" fill-rule="nonzero"/><path fill="#e96919" d="M 234.007812 172.996094 C 233.992188 172.972656 233.980469 172.953125 233.96875 172.925781 C 233.132812 171.492188 232.21875 170.097656 231.308594 168.707031 C 231.957031 168.714844 232.613281 168.742188 233.273438 168.785156 C 235.746094 168.949219 236.023438 172.394531 234.007812 172.996094 " fill-opacity="1" fill-rule="nonzero"/><path fill="#e96919" d="M 251.15625 201.144531 C 251.132812 201.144531 251.113281 201.144531 251.085938 201.144531 C 249.941406 201.109375 248.792969 201.097656 247.644531 201.097656 C 246.554688 201.097656 245.460938 201.105469 244.375 201.113281 C 244.371094 201.113281 244.367188 201.113281 244.363281 201.113281 C 244.265625 201.113281 244.171875 201.105469 244.082031 201.089844 C 243.890625 200.15625 243.683594 199.21875 243.472656 198.285156 C 243.609375 198.1875 243.773438 198.109375 243.960938 198.058594 C 246.050781 197.511719 248.03125 197.28125 250.144531 197.28125 C 250.386719 197.28125 250.636719 197.285156 250.890625 197.292969 C 251.152344 198.554688 251.398438 199.820312 251.625 201.089844 C 251.480469 201.125 251.324219 201.144531 251.15625 201.144531 " fill-opacity="1" fill-rule="nonzero"/><path fill="#e96919" d="M 242.183594 267 C 242.410156 266.191406 242.625 265.390625 242.808594 264.605469 C 242.953125 264.003906 243.089844 263.398438 243.226562 262.796875 C 245.417969 262.335938 247.636719 261.988281 249.867188 261.765625 C 249.46875 263.386719 249.042969 265 248.585938 266.609375 C 246.453125 266.664062 244.316406 266.792969 242.183594 267 " fill-opacity="1" fill-rule="nonzero"/><path fill="#f79326" d="M 229.890625 310.316406 C 229.378906 310.316406 228.859375 310.097656 228.613281 309.617188 C 227.539062 307.5 229.085938 304.722656 229.800781 302.644531 C 230.175781 301.546875 230.570312 300.464844 230.980469 299.386719 C 232.953125 299.542969 234.921875 299.765625 236.867188 300.003906 C 236.238281 301.609375 235.519531 303.179688 234.710938 304.714844 C 233.75 306.542969 232.484375 309.8125 230.242188 310.28125 C 230.128906 310.304688 230.011719 310.316406 229.890625 310.316406 M 237.980469 295.96875 C 236.160156 295.773438 234.347656 295.613281 232.535156 295.519531 C 232.613281 295.335938 232.691406 295.152344 232.773438 294.96875 C 233.195312 293.976562 234.027344 293.5625 234.902344 293.5625 C 236.265625 293.5625 237.742188 294.570312 237.980469 295.96875 " fill-opacity="1" fill-rule="nonzero"/><path fill="#e96919" d="M 236.867188 300.003906 C 234.917969 299.769531 232.953125 299.542969 230.980469 299.386719 C 231.472656 298.089844 231.992188 296.800781 232.535156 295.519531 C 234.34375 295.613281 236.160156 295.773438 237.980469 295.96875 C 238.042969 296.332031 238.019531 296.722656 237.890625 297.128906 C 237.578125 298.097656 237.238281 299.058594 236.867188 300.003906 " fill-opacity="1" fill-rule="nonzero"/><path fill="#b7c21e" d="M 199.269531 44.324219 C 198.042969 44.324219 196.746094 43.304688 197.105469 41.746094 C 198.15625 37.21875 197.792969 32.785156 197.347656 28.214844 C 197.265625 27.359375 198.054688 26.824219 198.816406 26.824219 C 199.289062 26.824219 199.753906 27.03125 199.984375 27.503906 C 202.316406 32.265625 202.265625 37.773438 201.089844 42.84375 C 200.851562 43.875 200.074219 44.324219 199.269531 44.324219 " fill-opacity="1" fill-rule="nonzero"/><path fill="#b7c21e" d="M 208.308594 75.023438 C 206.910156 75.023438 205.464844 73.839844 205.832031 72.03125 C 207.382812 64.425781 209.144531 56.867188 210.871094 49.296875 C 211.042969 48.550781 211.65625 48.210938 212.285156 48.210938 C 213.078125 48.210938 213.894531 48.753906 213.875 49.707031 C 213.699219 57.683594 212.644531 65.625 210.472656 73.308594 C 210.132812 74.507812 209.230469 75.023438 208.308594 75.023438 " fill-opacity="1" fill-rule="nonzero"/><path fill="#b7c21e" d="M 212.433594 97.503906 C 211.03125 97.503906 209.691406 96.128906 210.65625 94.578125 C 212.371094 91.835938 213.296875 88.753906 214.882812 85.980469 C 215.175781 85.472656 215.613281 85.257812 216.058594 85.257812 C 216.796875 85.257812 217.546875 85.859375 217.625 86.71875 C 217.941406 90.125 216.042969 93.917969 214.125 96.605469 C 213.675781 97.238281 213.050781 97.503906 212.433594 97.503906 " fill-opacity="1" fill-rule="nonzero"/><path fill="#b7c21e" d="M 183.390625 22.996094 C 182.488281 22.996094 181.554688 22.539062 181.128906 21.503906 C 179.535156 17.640625 178.035156 13.5 177.835938 9.300781 C 177.792969 8.449219 178.464844 7.988281 179.15625 7.988281 C 179.617188 7.988281 180.085938 8.191406 180.363281 8.617188 C 182.664062 12.132812 184.054688 16.367188 185.4375 20.3125 C 186.019531 21.972656 184.742188 22.996094 183.390625 22.996094 " fill-opacity="1" fill-rule="nonzero"/><path fill="#a2a91d" d="M 126.785156 46.382812 C 126.078125 46.382812 125.40625 46.0625 125.066406 45.304688 C 122.675781 39.945312 120.257812 34.527344 118.988281 28.773438 C 118.761719 27.742188 119.558594 27.015625 120.386719 27.015625 C 120.824219 27.015625 121.269531 27.21875 121.574219 27.6875 C 124.785156 32.625 126.957031 38.144531 129.101562 43.601562 C 129.707031 45.148438 128.179688 46.382812 126.785156 46.382812 " fill-opacity="1" fill-rule="nonzero"/><path fill="#a2a91d" d="M 148.390625 60.328125 C 147.425781 60.328125 146.503906 59.789062 146.214844 58.542969 C 144.8125 52.496094 143.367188 46.460938 141.90625 40.429688 C 141.617188 39.238281 142.707031 38.261719 143.71875 38.261719 C 144.234375 38.261719 144.726562 38.519531 145.007812 39.125 C 147.703125 44.957031 149.703125 50.929688 151.015625 57.21875 C 151.40625 59.097656 149.851562 60.328125 148.390625 60.328125 " fill-opacity="1" fill-rule="nonzero"/><path fill="#b7c21e" d="M 102.011719 122.652344 C 101.734375 122.652344 101.441406 122.59375 101.144531 122.464844 C 99.164062 121.605469 97.011719 120.925781 94.859375 120.714844 C 92.777344 120.511719 92.71875 117.542969 94.859375 117.4375 C 95.199219 117.421875 95.535156 117.410156 95.871094 117.410156 C 98.417969 117.410156 100.824219 117.910156 103.171875 118.996094 C 105.238281 119.957031 103.929688 122.652344 102.011719 122.652344 " fill-opacity="1" fill-rule="nonzero"/><path fill="#b7c21e" d="M 118.835938 116.847656 C 118.527344 116.847656 118.203125 116.777344 117.878906 116.625 C 115.671875 115.585938 113.589844 114.300781 111.621094 112.867188 C 110.429688 112 110.910156 110 112.300781 110 C 112.457031 110 112.621094 110.023438 112.796875 110.074219 C 115.265625 110.832031 117.710938 111.800781 119.992188 113.007812 C 122.070312 114.113281 120.777344 116.847656 118.835938 116.847656 " fill-opacity="1" fill-rule="nonzero"/><path fill="#b7c21e" d="M 139.117188 120.109375 C 138.6875 120.109375 138.242188 119.957031 137.832031 119.609375 C 136.832031 118.734375 135.761719 117.898438 134.820312 116.960938 C 133.902344 116.050781 132.875 115.085938 132.457031 113.847656 C 132.125 112.859375 133.003906 112.039062 133.917969 112.039062 C 134.023438 112.039062 134.128906 112.050781 134.230469 112.070312 C 135.476562 112.34375 136.589844 113.375 137.5625 114.160156 C 138.609375 115 139.570312 115.976562 140.554688 116.886719 C 141.988281 118.207031 140.652344 120.109375 139.117188 120.109375 " fill-opacity="1" fill-rule="nonzero"/><path fill="#a2a91d" d="M 102.886719 40.765625 C 102.375 40.765625 101.847656 40.5625 101.382812 40.074219 C 99.273438 37.863281 96.832031 35.996094 94.832031 33.683594 C 94.035156 32.761719 94.648438 31.371094 95.792969 31.371094 C 95.90625 31.371094 96.027344 31.386719 96.152344 31.414062 C 99.53125 32.226562 102.199219 34.441406 104.585938 36.878906 C 106.15625 38.484375 104.601562 40.765625 102.886719 40.765625 " fill-opacity="1" fill-rule="nonzero"/><path fill="#ffffff" d="M 205.96875 262.511719 C 209.894531 264.863281 215.21875 265.925781 220.851562 265.113281 C 226.191406 264.34375 230.792969 262.03125 233.898438 258.925781 C 224.53125 254.890625 213.671875 256.464844 205.96875 262.511719 " fill-opacity="1" fill-rule="nonzero"/><path fill="#ffffff" d="M 200.609375 249.316406 C 199.6875 250.277344 199.292969 251.648438 199.582031 253.660156 C 200.117188 257.347656 202.496094 260.429688 205.96875 262.511719 C 213.671875 256.464844 224.535156 254.890625 233.902344 258.925781 C 236.964844 255.863281 238.578125 252.023438 238.019531 248.121094 C 237.769531 246.410156 237.199219 245.277344 236.355469 244.566406 C 235.019531 245.867188 233.566406 247.054688 231.957031 248.089844 C 222.28125 254.558594 209.972656 255.308594 200.609375 249.316406 " fill-opacity="1" fill-rule="nonzero"/><path fill="#ffffff" d="M 218.355469 246.113281 C 210.457031 247.253906 203.292969 246.527344 200.609375 249.316406 C 209.972656 255.308594 222.28125 254.558594 231.957031 248.089844 C 233.566406 247.054688 235.019531 245.867188 236.351562 244.566406 C 233.304688 242.015625 226.65625 244.921875 218.355469 246.113281 " fill-opacity="1" fill-rule="nonzero"/><path fill="#2e1611" d="M 232.867188 244.304688 C 230.957031 244.304688 228.496094 244.851562 225.660156 245.476562 C 223.5 245.957031 221.046875 246.496094 218.464844 246.867188 C 215.902344 247.238281 213.375 247.414062 211.148438 247.574219 C 206.5 247.898438 202.484375 248.179688 200.980469 250.046875 C 200.324219 250.855469 200.113281 252.003906 200.339844 253.550781 C 200.851562 257.105469 203.226562 260.1875 207.023438 262.234375 C 210.898438 264.320312 215.769531 265.074219 220.742188 264.355469 C 230.925781 262.890625 238.335938 255.65625 237.261719 248.226562 C 237.03125 246.640625 236.503906 245.578125 235.652344 244.988281 C 234.945312 244.5 234.007812 244.304688 232.867188 244.304688 Z M 217.105469 266.144531 C 213.179688 266.144531 209.441406 265.265625 206.300781 263.574219 C 202.066406 261.296875 199.414062 257.8125 198.828125 253.769531 C 198.542969 251.78125 198.855469 250.25 199.792969 249.089844 C 201.714844 246.710938 205.832031 246.417969 211.042969 246.050781 C 213.242188 245.898438 215.738281 245.722656 218.25 245.363281 C 220.773438 244.996094 223.195312 244.460938 225.332031 243.988281 C 230.222656 242.910156 234.089844 242.054688 236.515625 243.734375 C 237.742188 244.578125 238.480469 245.976562 238.773438 248.011719 C 239.964844 256.269531 231.972656 264.28125 220.960938 265.867188 C 219.664062 266.054688 218.375 266.144531 217.105469 266.144531 " fill-opacity="1" fill-rule="nonzero"/><path fill="#2e1611" d="M 231.210938 255.871094 C 230.894531 255.871094 230.601562 255.671875 230.488281 255.355469 C 230.355469 254.960938 230.566406 254.523438 230.964844 254.386719 C 233.179688 253.628906 235.359375 252.746094 237.441406 251.765625 C 237.515625 251.730469 237.59375 251.707031 237.675781 251.699219 C 238.09375 251.648438 238.472656 251.945312 238.527344 252.363281 C 238.566406 252.710938 238.367188 253.03125 238.0625 253.15625 C 235.9375 254.15625 233.714844 255.054688 231.457031 255.828125 C 231.375 255.859375 231.292969 255.871094 231.210938 255.871094 " fill-opacity="1" fill-rule="nonzero"/><path fill="#2e1611" d="M 209.953125 259.40625 C 207.003906 259.40625 204.054688 259.207031 201.152344 258.816406 C 200.820312 258.78125 200.539062 258.523438 200.484375 258.179688 C 200.417969 257.761719 200.699219 257.371094 201.117188 257.308594 C 201.191406 257.292969 201.265625 257.292969 201.339844 257.304688 C 205.136719 257.816406 209.011719 257.992188 212.871094 257.816406 C 216.253906 257.664062 219.660156 257.242188 223 256.558594 C 223.414062 256.472656 223.8125 256.742188 223.898438 257.152344 C 223.984375 257.5625 223.71875 257.96875 223.304688 258.050781 C 219.886719 258.75 216.402344 259.183594 212.9375 259.339844 C 211.945312 259.382812 210.949219 259.40625 209.953125 259.40625 " fill-opacity="1" fill-rule="nonzero"/><path fill="#2e1611" d="M 185.238281 248.777344 C 185.542969 249.550781 185.886719 250.222656 186.25 250.734375 C 187.097656 251.933594 188.421875 252.890625 189.894531 252.933594 C 192.464844 253.011719 193.925781 250.957031 194.488281 248.671875 C 195.234375 245.609375 194.949219 241.679688 193.015625 239.074219 C 191.777344 237.40625 189.582031 236.324219 187.582031 236.886719 C 183.207031 238.117188 183.660156 244.785156 185.238281 248.777344 " fill-opacity="1" fill-rule="nonzero"/><path fill="#2e1611" d="M 190.910156 221.992188 C 190.320312 220.886719 188.828125 220.296875 187.09375 220.695312 C 184.75 221.238281 181.9375 222.878906 180.367188 224.726562 C 179.84375 225.339844 179.375 226.035156 179.195312 226.824219 C 177.664062 233.460938 188.765625 227.25 190.242188 225.386719 C 191.269531 224.089844 191.378906 222.875 190.910156 221.992188 " fill-opacity="1" fill-rule="nonzero"/><path fill="#2e1611" d="M 248.570312 241.109375 C 248.445312 241.863281 248.261719 242.535156 248.035156 243.070312 C 247.5 244.316406 246.488281 245.433594 245.167969 245.757812 C 242.863281 246.324219 241.144531 244.75 240.195312 242.792969 C 238.929688 240.175781 238.429688 236.570312 239.671875 233.84375 C 240.46875 232.101562 242.242188 230.699219 244.15625 230.820312 C 248.347656 231.089844 249.222656 237.199219 248.570312 241.109375 " fill-opacity="1" fill-rule="nonzero"/><path fill="#2e1611" d="M 235.519531 217.3125 C 235.863281 216.109375 237.203125 215.21875 238.980469 215.246094 C 241.386719 215.289062 244.480469 216.308594 246.402344 217.78125 C 247.042969 218.277344 247.644531 218.855469 247.988281 219.589844 C 250.871094 225.757812 238.71875 222.003906 236.882812 220.488281 C 235.605469 219.433594 235.25 218.273438 235.519531 217.3125 " fill-opacity="1" fill-rule="nonzero"/><g clip-path="url(#09e2e635c0)"><g clip-path="url(#d636243759)"><g clip-path="url(#954355a658)"><g clip-path="url(#468c42c3fb)"><path fill="#77b255" d="M 319.601562 143.148438 C 322.929688 134.816406 316.28125 122.933594 315.988281 125.089844 C 316.28125 122.933594 306.191406 132.539062 307.175781 141.457031 C 305.3125 139.007812 295.414062 131.074219 298.257812 142.4375 C 301.101562 153.804688 303.257812 154.097656 305.121094 156.546875 C 306.984375 158.996094 311.882812 155.269531 311.882812 155.269531 C 311.882812 155.269531 315.226562 160.117188 317.675781 158.253906 C 320.125 156.390625 321.902344 156.632812 327.679688 146.445312 C 333.457031 136.25 322.050781 141.285156 319.601562 143.148438 Z M 319.601562 143.148438 " fill-opacity="1" fill-rule="nonzero"/></g></g></g></g><g clip-path="url(#057219096f)"><g clip-path="url(#1634036c95)"><g clip-path="url(#de347fe1d9)"><g clip-path="url(#673ecc7056)"><path fill="#f4900c" d="M 323.890625 179.960938 C 320.730469 203.175781 306.21875 229.152344 300.828125 228.417969 C 295.4375 227.683594 288.394531 198.773438 291.550781 175.558594 C 294.710938 152.34375 301.5625 147.28125 311.679688 148.65625 C 321.800781 150.035156 327.046875 156.746094 323.890625 179.960938 Z M 323.890625 179.960938 " fill-opacity="1" fill-rule="nonzero"/></g></g></g></g><g clip-path="url(#81335fd5b9)"><g clip-path="url(#2cf2fa1d53)"><g clip-path="url(#94b256fadf)"><g clip-path="url(#6cfb5ccae7)"><path fill="#d67503" d="M 311.046875 165.035156 C 308.082031 164.632812 302.582031 163.859375 294.878906 160.640625 C 294.222656 162.484375 293.625 164.578125 293.089844 166.945312 C 302.699219 169.507812 314.152344 165.457031 311.046875 165.035156 Z M 308.714844 188.871094 C 305.539062 188.4375 299.449219 187.578125 290.855469 183.738281 C 290.761719 186.082031 290.75 188.445312 290.8125 190.796875 C 300.410156 193.328125 311.8125 189.292969 308.714844 188.871094 Z M 324.359375 176.015625 C 315.511719 177.253906 309.703125 176.472656 306.617188 176.054688 C 303.503906 175.628906 313.5 182.617188 323.460938 182.691406 C 323.617188 181.777344 324.226562 177.277344 324.359375 176.015625 Z M 315.539062 208.207031 C 316.441406 206.175781 317.3125 204.054688 318.136719 201.863281 C 309.960938 202.875 304.507812 202.160156 301.566406 201.761719 C 298.753906 201.378906 306.644531 207.050781 315.539062 208.207031 Z M 315.539062 208.207031 " fill-opacity="1" fill-rule="nonzero"/></g></g></g></g></svg>