<svg xmlns="http://www.w3.org/2000/svg" xmlns:xlink="http://www.w3.org/1999/xlink" width="500" zoomAndPan="magnify" viewBox="0 0 375 374.999991" height="500" preserveAspectRatio="xMidYMid meet" version="1.0"><path fill="#ea8c26" d="M 272.046875 195.207031 C 267.378906 209.171875 288.441406 219.207031 288.441406 219.207031 C 290.246094 224.386719 267.601562 208.765625 257.945312 219.878906 C 248.289062 230.988281 315.015625 315.378906 303.40625 324.460938 C 291.800781 333.542969 278.386719 289.082031 265.175781 295.636719 C 251.964844 302.195312 239.324219 250.078125 225.097656 253.914062 C 210.867188 257.746094 222.535156 243.851562 207.824219 244.878906 C 193.117188 245.90625 183.660156 286.804688 183.660156 286.804688 C 179.492188 289.519531 193.800781 245.890625 179.800781 241.261719 C 165.800781 236.632812 146.929688 288.054688 134.113281 280.78125 C 121.296875 273.511719 166.679688 237.066406 155.570312 227.402344 C 144.464844 217.738281 105.929688 240.242188 105.929688 240.242188 C 102.449219 241.472656 144.324219 217.855469 137.703125 204.675781 C 131.082031 191.496094 66.539062 215.082031 62.601562 200.867188 C 58.667969 186.652344 131.679688 192.363281 130.699219 177.664062 C 129.71875 162.964844 80.226562 162.558594 82.058594 147.957031 C 83.890625 133.359375 129.535156 163.53125 134.234375 149.558594 C 138.929688 135.585938 113.070312 109.152344 110.121094 105.003906 C 109.210938 102.097656 138.144531 136.003906 147.828125 124.886719 C 157.515625 113.769531 142.007812 97.414062 140.460938 95.84375 C 137.980469 93.332031 157.339844 113.964844 170.554688 107.425781 C 183.769531 100.890625 156.1875 42.628906 170.371094 38.699219 C 184.554688 34.765625 183.230469 101.25 197.9375 100.140625 C 212.644531 99.035156 213.863281 72.734375 213.863281 72.734375 C 217 74.671875 211.976562 98.703125 225.964844 103.308594 C 239.949219 107.910156 270.261719 44.464844 283.082031 51.753906 C 303.273438 60.546875 239.234375 107.996094 250.304688 117.683594 C 261.371094 127.375 277.957031 91.875 286.972656 103.53125 C 295.984375 115.191406 261.4375 126.921875 268.070312 140.074219 C 274.703125 153.226562 305.746094 145.347656 307.640625 146.511719 C 310.429688 150.035156 274.511719 152.710938 275.570312 167.410156 C 276.628906 182.109375 347.242188 169.125 345.328125 183.722656 C 343.421875 198.320312 276.710938 181.238281 272.042969 195.203125 Z M 272.046875 195.207031 " fill-opacity="1" fill-rule="nonzero"/><path fill="#ea8c26" d="M 178.882812 296.839844 L 153.992188 345.945312 C 144.828125 364.03125 167.507812 366.371094 171.539062 341.734375 Z M 178.882812 296.839844 " fill-opacity="1" fill-rule="evenodd"/><path fill="#ea8c26" d="M 291.574219 221.746094 L 337.949219 267.140625 C 355.027344 283.859375 374.929688 245.171875 345.5 245.320312 C 324.871094 245.425781 308.824219 231.785156 291.574219 221.746094 Z M 291.574219 221.746094 " fill-opacity="1" fill-rule="evenodd"/><path fill="#ea8c26" d="M 315.574219 146.007812 C 328.421875 144.285156 341.273438 138.800781 354.125 145.414062 C 366.75 151.914062 364.324219 126.652344 348.074219 133.101562 Z M 315.574219 146.007812 " fill-opacity="1" fill-rule="evenodd"/><path fill="#ea8c26" d="M 138.625 94.179688 L 114.375 31.609375 C 105.445312 8.570312 74.132812 29.964844 97.933594 48.925781 C 128.515625 73.292969 125.777344 79.484375 138.625 94.179688 Z M 138.625 94.179688 " fill-opacity="1" fill-rule="evenodd"/><path fill="#ea8c26" d="M 305.460938 91.746094 C 305.460938 92.023438 305.433594 92.300781 305.378906 92.574219 C 305.324219 92.847656 305.242188 93.113281 305.136719 93.371094 C 305.03125 93.628906 304.898438 93.871094 304.742188 94.105469 C 304.589844 94.335938 304.414062 94.550781 304.214844 94.746094 C 304.019531 94.945312 303.804688 95.121094 303.574219 95.273438 C 303.339844 95.429688 303.097656 95.558594 302.839844 95.667969 C 302.582031 95.773438 302.316406 95.855469 302.042969 95.910156 C 301.769531 95.960938 301.492188 95.988281 301.214844 95.988281 C 300.9375 95.988281 300.660156 95.960938 300.386719 95.910156 C 300.113281 95.855469 299.847656 95.773438 299.589844 95.667969 C 299.332031 95.558594 299.089844 95.429688 298.855469 95.273438 C 298.625 95.121094 298.410156 94.945312 298.214844 94.746094 C 298.015625 94.550781 297.839844 94.335938 297.6875 94.105469 C 297.53125 93.871094 297.402344 93.628906 297.292969 93.371094 C 297.1875 93.113281 297.105469 92.847656 297.050781 92.574219 C 296.996094 92.300781 296.972656 92.023438 296.972656 91.746094 C 296.972656 91.46875 296.996094 91.191406 297.050781 90.917969 C 297.105469 90.644531 297.1875 90.378906 297.292969 90.121094 C 297.402344 89.863281 297.53125 89.621094 297.6875 89.386719 C 297.839844 89.15625 298.015625 88.941406 298.214844 88.746094 C 298.410156 88.546875 298.625 88.371094 298.855469 88.21875 C 299.089844 88.0625 299.332031 87.929688 299.589844 87.824219 C 299.847656 87.71875 300.113281 87.636719 300.386719 87.582031 C 300.660156 87.527344 300.9375 87.5 301.214844 87.5 C 301.492188 87.5 301.769531 87.527344 302.042969 87.582031 C 302.316406 87.636719 302.582031 87.71875 302.839844 87.824219 C 303.097656 87.929688 303.339844 88.0625 303.574219 88.21875 C 303.804688 88.371094 304.019531 88.546875 304.214844 88.746094 C 304.414062 88.941406 304.589844 89.15625 304.742188 89.386719 C 304.898438 89.621094 305.03125 89.863281 305.136719 90.121094 C 305.242188 90.378906 305.324219 90.644531 305.378906 90.917969 C 305.433594 91.191406 305.460938 91.46875 305.460938 91.746094 Z M 305.460938 91.746094 " fill-opacity="1" fill-rule="nonzero"/><path fill="#ea8c26" d="M 8.875 71.261719 C 4.757812 75.59375 0.0117188 82.535156 2.4375 88 C 7.292969 98.925781 24.988281 105.730469 35.914062 100.875 C 41.375 98.449219 43.871094 89.917969 42.351562 84.136719 C 39.945312 74.996094 29.828125 67.386719 20.464844 66.109375 C 16.277344 65.539062 11.789062 68.195312 8.875 71.261719 Z M 8.875 71.261719 " fill-opacity="1" fill-rule="evenodd"/><path fill="#ea8c26" d="M 62.273438 111.542969 C 60.785156 113.109375 59.074219 115.613281 59.949219 117.585938 C 61.703125 121.53125 68.089844 123.988281 72.03125 122.234375 C 74.003906 121.359375 74.90625 118.277344 74.355469 116.191406 C 73.488281 112.894531 69.835938 110.144531 66.457031 109.683594 C 64.945312 109.480469 63.324219 110.4375 62.273438 111.542969 Z M 62.273438 111.542969 " fill-opacity="1" fill-rule="evenodd"/><path fill="#ea8c26" d="M 211.902344 13.675781 C 209.925781 15.761719 207.640625 19.097656 208.808594 21.722656 C 211.140625 26.976562 219.648438 30.25 224.902344 27.914062 C 227.53125 26.75 228.730469 22.648438 228 19.867188 C 226.84375 15.472656 221.976562 11.8125 217.476562 11.199219 C 215.460938 10.925781 213.304688 12.203125 211.902344 13.675781 Z M 211.902344 13.675781 " fill-opacity="1" fill-rule="evenodd"/><path fill="#ea8c26" d="M 343.761719 86.808594 C 343.761719 87.742188 343.539062 88.660156 343.101562 89.570312 " fill-opacity="1" fill-rule="nonzero"/><path fill="#ea8c26" d="M 214.398438 47.550781 C 213.527344 48.46875 212.519531 49.941406 213.035156 51.097656 C 214.0625 53.414062 217.816406 54.859375 220.132812 53.828125 C 221.289062 53.3125 221.820312 51.503906 221.496094 50.28125 C 220.988281 48.34375 218.84375 46.730469 216.855469 46.457031 C 215.96875 46.335938 215.015625 46.902344 214.398438 47.550781 Z M 214.398438 47.550781 " fill-opacity="1" fill-rule="evenodd"/><path fill="#ea8c26" d="M 205.195312 270 C 203.035156 272.273438 200.542969 275.914062 201.816406 278.78125 C 204.363281 284.515625 213.648438 288.085938 219.378906 285.539062 C 222.246094 284.265625 223.558594 279.789062 222.757812 276.757812 C 221.496094 271.960938 216.1875 267.96875 211.273438 267.296875 C 209.078125 267 206.722656 268.394531 205.195312 270 Z M 205.195312 270 " fill-opacity="1" fill-rule="evenodd"/><path fill="#ea8c26" d="M 101.21875 243.921875 L 53.121094 266.375 C 35.410156 274.644531 59.308594 301.007812 67.65625 278.433594 C 73.511719 262.605469 88.570312 254.242188 101.21875 243.921875 Z M 101.21875 243.921875 " fill-opacity="1" fill-rule="evenodd"/></svg>