<svg xmlns="http://www.w3.org/2000/svg" xmlns:xlink="http://www.w3.org/1999/xlink" width="500" zoomAndPan="magnify" viewBox="0 0 375 374.999991" height="500" preserveAspectRatio="xMidYMid meet" version="1.0"><defs><clipPath id="9415d2e241"><path d="M 75 37.5 L 328.5 37.5 L 328.5 277 L 75 277 Z M 75 37.5 " clip-rule="nonzero"/></clipPath><clipPath id="7e6f939f63"><path d="M 123 266 L 192 266 L 192 351.75 L 123 351.75 Z M 123 266 " clip-rule="nonzero"/></clipPath><clipPath id="c7d037b0a9"><path d="M 293 87 L 328.5 87 L 328.5 123 L 293 123 Z M 293 87 " clip-rule="nonzero"/></clipPath><clipPath id="65c7b5eaa0"><path d="M 37.5 134 L 74 134 L 74 167 L 37.5 167 Z M 37.5 134 " clip-rule="nonzero"/></clipPath></defs><path fill="#81a133" d="M 88.074219 241.730469 C 84.703125 249.796875 81.332031 257.867188 77.960938 265.933594 C 165.328125 281.933594 259.285156 257.347656 327.609375 200.605469 C 319.515625 192.792969 311.425781 184.976562 303.332031 177.160156 C 246.230469 230.597656 163.75 255.660156 88.074219 241.726562 Z M 88.074219 241.730469 " fill-opacity="1" fill-rule="nonzero"/><path fill="#c82131" d="M 152.613281 47.261719 C 130.058594 112.277344 107.503906 177.289062 85.714844 242.570312 C 86.53125 242.230469 87.347656 241.886719 89.792969 241.679688 L 85.863281 242.539062 C 163.355469 255.738281 246.355469 231.675781 304.757812 179.074219 C 257.769531 130.707031 208.050781 84.996094 155.910156 42.230469 C 155.203125 44.289062 154.496094 46.347656 152.613281 47.265625 Z M 152.613281 47.261719 " fill-opacity="1" fill-rule="nonzero"/><path fill="#feda60" d="M 283.988281 129.195312 C 285.875 132.125 287.792969 135.085938 290.328125 137.476562 C 292.863281 139.871094 296.121094 141.675781 299.601562 141.789062 C 303.089844 141.90625 306.742188 140.042969 308.09375 136.828125 C 313.683594 137.523438 319.53125 134.066406 321.613281 128.832031 C 323.695312 123.601562 321.820312 117.074219 317.28125 113.738281 C 320.777344 112.382812 323.988281 109.867188 325.332031 106.371094 C 326.683594 102.875 325.726562 98.398438 322.582031 96.359375 C 319.441406 94.320312 314.390625 95.804688 313.457031 99.429688 C 313.300781 97.246094 313.113281 94.96875 311.996094 93.089844 C 310.878906 91.207031 308.519531 89.863281 306.46875 90.632812 C 304.921875 91.210938 303.988281 92.757812 303.230469 94.222656 C 299.957031 100.519531 297.628906 107.296875 296.332031 114.269531 C 292.09375 113.6875 287.597656 115.730469 285.25 119.308594 C 282.902344 122.882812 283.007812 127.675781 283.988281 129.195312 Z M 283.988281 129.195312 " fill-opacity="1" fill-rule="nonzero"/><path fill="#feda60" d="M 76.722656 181.933594 C 79.375 178.863281 82.066406 175.714844 83.574219 171.949219 C 85.078125 168.1875 85.203125 163.621094 82.867188 160.304688 C 80.53125 156.988281 75.339844 155.679688 72.234375 158.289062 C 70.109375 151.671875 65.480469 146.203125 60.960938 140.921875 C 58.878906 138.492188 55.871094 135.808594 52.90625 137.007812 C 51.078125 137.75 50.078125 139.828125 50.015625 141.800781 C 49.957031 143.773438 50.652344 145.683594 51.339844 147.53125 C 50.464844 143.484375 44.945312 141.316406 41.546875 143.6875 C 38.539062 145.789062 37.972656 150.355469 39.738281 153.570312 C 41.5 156.789062 45.066406 158.707031 48.679688 159.324219 C 51.644531 159.832031 55.089844 159.75 57.078125 162.011719 C 52.300781 161.828125 47.625 165.273438 46.386719 169.886719 C 45.148438 174.5 47.464844 179.824219 51.691406 182.0625 C 55.917969 184.296875 61.625 183.222656 64.742188 179.597656 C 66.066406 182.671875 69.066406 184.953125 72.382812 185.410156 C 75.695312 185.863281 79.203125 184.476562 76.730469 181.933594 Z M 76.722656 181.933594 " fill-opacity="1" fill-rule="nonzero"/><path fill="#feda60" d="M 160.695312 273.984375 C 163.441406 283.851562 163.960938 294.335938 162.203125 304.429688 C 164.082031 309.75 165.3125 315.296875 165.851562 320.910156 C 169.148438 320.421875 172.441406 319.9375 175.742188 319.449219 C 178.960938 304.011719 182.175781 288.578125 185.394531 273.140625 C 185.746094 271.453125 185.976562 269.390625 184.640625 268.296875 C 183.726562 267.546875 182.421875 267.585938 181.238281 267.65625 C 177.527344 267.886719 173.816406 268.121094 170.101562 268.351562 C 168.140625 268.476562 166.117188 268.613281 164.359375 269.488281 C 162.597656 270.359375 161.148438 272.167969 160.695312 273.984375 Z M 160.695312 273.984375 " fill-opacity="1" fill-rule="nonzero"/><path fill="#feda60" d="M 212.109375 262.695312 C 218.253906 277.785156 220.984375 294.25 220.039062 310.511719 C 222.1875 312.234375 224.847656 313.320312 227.589844 313.597656 C 228.492188 313.6875 229.492188 313.664062 230.1875 313.078125 C 230.925781 312.457031 231.089844 311.40625 231.203125 310.453125 C 233.027344 294.886719 233.582031 279.171875 232.867188 263.515625 C 232.730469 260.546875 232.113281 256.957031 229.332031 255.917969 C 227.882812 255.371094 226.261719 255.742188 224.769531 256.171875 C 219.355469 257.730469 214.160156 260.039062 212.109375 262.699219 Z M 212.109375 262.695312 " fill-opacity="1" fill-rule="nonzero"/><path fill="#c82131" d="M 165.242188 324.851562 C 165.347656 323.171875 165.453125 321.492188 165.558594 319.8125 C 170.347656 320.746094 175.496094 319.707031 179.546875 316.988281 C 182.757812 322.78125 185.464844 328.847656 187.628906 335.101562 C 188.507812 337.640625 189.246094 340.632812 187.746094 342.859375 C 186.253906 345.074219 183.230469 345.523438 180.570312 345.765625 C 166.726562 347.039062 152.886719 348.3125 139.046875 349.585938 C 134.324219 350.019531 128.691406 350.066406 125.917969 346.226562 C 124.128906 343.753906 124.199219 340.3125 125.335938 337.488281 C 126.476562 334.660156 128.539062 332.320312 130.601562 330.078125 C 133.878906 326.519531 137.339844 322.984375 141.648438 320.785156 C 145.960938 318.589844 151.316406 317.914062 155.601562 320.15625 C 152.492188 317.441406 150.441406 313.199219 151.3125 309.164062 C 152.183594 305.128906 156.613281 301.917969 160.535156 303.203125 C 164.3125 304.4375 166.023438 308.902344 166.140625 312.871094 C 166.257812 316.84375 165.300781 320.847656 165.238281 324.851562 Z M 165.242188 324.851562 " fill-opacity="1" fill-rule="nonzero"/><path fill="#c82131" d="M 215.652344 315.363281 C 216.183594 312.921875 216.710938 310.488281 217.242188 308.046875 C 220.59375 311.847656 225.953125 313.765625 230.957031 312.960938 C 229.742188 310.125 229.292969 306.886719 230.175781 303.933594 C 231.058594 300.980469 233.40625 298.390625 236.402344 297.667969 C 239.402344 296.945312 242.90625 298.398438 244.144531 301.21875 C 245.078125 303.347656 244.667969 305.867188 243.609375 307.9375 C 242.550781 310.003906 240.910156 311.707031 239.296875 313.375 C 247.269531 309.59375 257.332031 312.007812 263.78125 318.027344 C 270.230469 324.046875 273.320312 333.0625 273.507812 341.878906 C 252.734375 346.433594 230.6875 345.007812 210.671875 337.820312 C 209.675781 337.460938 208.644531 337.066406 207.898438 336.316406 C 206.410156 334.8125 206.472656 332.390625 206.859375 330.3125 C 207.964844 324.4375 210.941406 318.933594 215.652344 315.363281 Z M 215.652344 315.363281 " fill-opacity="1" fill-rule="nonzero"/><path fill="#ffffff" d="M 85.175781 245.328125 C 84.597656 250.085938 82.730469 254.675781 79.820312 258.484375 C 161.507812 265.175781 245.34375 241.449219 311.390625 192.933594 C 308.746094 189.273438 306.71875 185.167969 305.414062 180.84375 C 245.046875 231.566406 163.09375 255.695312 85.175781 245.328125 Z M 85.175781 245.328125 " fill-opacity="0.34" fill-rule="nonzero"/><path fill="#ffffff" d="M 90.0625 244.15625 C 106.949219 199.351562 123.835938 154.550781 140.722656 109.75 C 135.242188 154.921875 134.933594 200.726562 139.8125 245.96875 C 148.207031 201.320312 156.613281 156.558594 159.9375 111.25 C 171.996094 153.941406 186.507812 195.941406 203.378906 236.972656 C 198.527344 189.960938 190.105469 143.320312 178.203125 97.582031 C 202.644531 137.800781 227.464844 178.515625 261.34375 211.1875 C 251.261719 173.234375 231.058594 138.878906 211.082031 105.066406 C 240.949219 131.328125 271.921875 156.328125 303.894531 179.984375 C 259.085938 219.710938 201.910156 245.292969 142.421875 252.242188 C 125.089844 254.265625 106.828125 254.605469 90.0625 244.15625 Z M 90.0625 244.15625 " fill-opacity="0.16" fill-rule="nonzero"/><path fill="#ffffff" d="M 162.605469 272.492188 C 163.738281 288.46875 164.871094 304.445312 166 320.421875 C 168.601562 302.769531 172.894531 285.367188 178.808594 268.53125 C 172.246094 269.6875 165.6875 270.851562 162.605469 272.488281 Z M 162.605469 272.492188 " fill-opacity="0.34" fill-rule="nonzero"/><path fill="#ffffff" d="M 211.585938 263.394531 C 215.675781 269.710938 216.882812 277.441406 217.398438 284.945312 C 217.917969 292.453125 217.847656 300.074219 219.765625 307.351562 C 220.128906 308.742188 220.597656 310.164062 221.570312 311.222656 C 222.542969 312.28125 224.160156 312.875 225.46875 312.273438 C 227.691406 311.253906 227.4375 308.078125 226.972656 305.683594 C 224.152344 291.179688 226.742188 276.210938 226.121094 261.449219 C 226.058594 259.976562 225.816406 258.253906 224.53125 257.53125 C 223.402344 256.894531 221.992188 257.347656 220.78125 257.804688 C 217.671875 258.988281 214.554688 260.171875 211.585938 263.394531 Z M 211.585938 263.394531 " fill-opacity="0.34" fill-rule="nonzero"/><path fill="#ffffff" d="M 159.261719 305.246094 C 157.324219 308.207031 157.449219 312.15625 158.722656 315.464844 C 159.992188 318.769531 162.261719 321.578125 164.496094 324.328125 C 160.894531 322.328125 157.292969 320.328125 153.691406 318.324219 C 152.441406 317.628906 151.128906 316.878906 150.421875 315.636719 C 149.226562 313.546875 150.171875 310.855469 151.621094 308.933594 C 152.683594 307.519531 154.070312 306.265625 155.769531 305.765625 C 157.46875 305.269531 159.503906 305.675781 159.265625 305.246094 Z M 159.261719 305.246094 " fill-opacity="0.34" fill-rule="nonzero"/><path fill="#ffffff" d="M 162.496094 324.445312 C 160.78125 322.644531 157.8125 323.050781 155.484375 323.933594 C 149.960938 326.023438 145.203125 330.058594 142.234375 335.15625 C 141.234375 336.878906 140.429688 339.027344 141.320312 340.8125 C 142.242188 342.65625 144.539062 343.277344 146.582031 343.589844 C 154.382812 344.78125 162.328125 344.425781 170.207031 344.070312 C 157.683594 347.285156 144.660156 347.925781 131.742188 348.542969 C 130.269531 348.613281 128.714844 348.667969 127.429688 347.949219 C 125.117188 346.65625 124.695312 343.503906 124.996094 340.875 C 125.902344 333.066406 131.105469 325.894531 138.246094 322.605469 C 145.390625 319.316406 154.222656 320.027344 162.496094 324.445312 Z M 162.496094 324.445312 " fill-opacity="0.34" fill-rule="nonzero"/><path fill="#ffffff" d="M 216.425781 309.28125 C 219.675781 309.726562 222.757812 311.308594 225.015625 313.6875 C 221.898438 317.324219 221.554688 322.839844 223.484375 327.222656 C 225.414062 331.601562 229.308594 334.902344 233.652344 336.921875 C 237.996094 338.941406 242.78125 339.796875 247.539062 340.351562 C 252.296875 340.90625 257.097656 341.183594 261.792969 342.136719 C 247.347656 345.15625 232.335938 343.371094 217.851562 340.550781 C 215.652344 340.125 213.433594 339.660156 211.429688 338.664062 C 209.425781 337.667969 207.628906 336.066406 206.867188 333.957031 C 205.96875 331.46875 206.625 328.71875 207.285156 326.15625 C 208.933594 319.742188 210.9375 312.792969 216.429688 309.28125 Z M 216.425781 309.28125 " fill-opacity="0.34" fill-rule="nonzero"/><path fill="#ffffff" d="M 40.121094 154.785156 C 41.800781 153.214844 44.5 154.066406 46.597656 154.996094 C 53.0625 157.867188 59.53125 160.738281 65.996094 163.609375 C 63.054688 156.695312 57.011719 151.675781 51.183594 146.933594 C 49.910156 145.902344 48.621094 144.855469 47.117188 144.199219 C 45.617188 143.539062 43.855469 143.308594 42.34375 143.9375 C 40.445312 144.730469 39.273438 146.78125 39.125 148.832031 C 38.972656 150.882812 39.699219 152.910156 40.121094 154.785156 Z M 40.121094 154.785156 " fill-opacity="0.34" fill-rule="nonzero"/><path fill="#ffffff" d="M 50.953125 143.632812 C 58.910156 147.390625 66.195312 152.5625 72.371094 158.832031 C 69.917969 150.757812 64.578125 143.597656 57.542969 138.9375 C 55.820312 137.796875 53.441406 136.828125 51.820312 138.109375 C 50.253906 139.351562 50.558594 141.769531 50.953125 143.632812 Z M 50.953125 143.632812 " fill-opacity="0.34" fill-rule="nonzero"/><path fill="#ffffff" d="M 69.617188 160.046875 C 67.390625 162.746094 66.058594 166.164062 65.863281 169.660156 C 65.800781 170.789062 65.917969 172.066406 66.769531 172.816406 C 67.910156 173.832031 69.738281 173.351562 71.007812 172.496094 C 72.816406 171.273438 74.167969 169.394531 74.75 167.292969 C 75.078125 166.105469 75.335938 164.640625 76.488281 164.203125 C 77.332031 163.886719 78.316406 164.34375 78.855469 165.066406 C 79.390625 165.785156 79.574219 166.710938 79.660156 167.609375 C 79.96875 170.6875 79.382812 173.855469 77.980469 176.617188 C 80.265625 174.140625 82.605469 171.585938 83.800781 168.433594 C 84.996094 165.285156 84.792969 161.367188 82.414062 158.984375 C 80.511719 157.082031 77.546875 156.515625 74.917969 157.074219 C 72.289062 157.632812 70.210938 159.332031 69.613281 160.050781 Z M 69.617188 160.046875 " fill-opacity="0.34" fill-rule="nonzero"/><path fill="#ffffff" d="M 50.425781 164.996094 C 48.246094 166.921875 47.125 169.972656 47.539062 172.851562 C 47.957031 175.726562 49.898438 178.339844 52.535156 179.5625 C 51.132812 178.222656 50.675781 175.992188 51.433594 174.207031 C 52.195312 172.425781 54.125 171.207031 56.0625 171.292969 C 58.6875 171.40625 61.257812 173.625 63.675781 172.601562 C 65.292969 171.917969 66.054688 169.882812 65.613281 168.1875 C 65.171875 166.496094 63.753906 165.179688 62.152344 164.480469 C 60.542969 163.777344 58.761719 163.613281 57.007812 163.570312 C 55 163.519531 52.289062 163.359375 50.425781 164.996094 Z M 50.425781 164.996094 " fill-opacity="0.34" fill-rule="nonzero"/><path fill="#ffffff" d="M 282.996094 127.136719 C 283.832031 132.925781 288.84375 137.855469 294.652344 138.605469 C 293.511719 136.335938 292.617188 133.9375 292 131.476562 C 291.769531 130.570312 291.605469 129.527344 292.167969 128.785156 C 292.789062 127.960938 294.019531 127.910156 295.011719 128.175781 C 296.007812 128.4375 296.957031 128.941406 297.988281 128.96875 C 299.726562 129.015625 301.242188 127.660156 301.976562 126.089844 C 303.492188 122.851562 302.171875 118.664062 299.253906 116.597656 C 296.339844 114.53125 292.195312 114.570312 289.117188 116.386719 C 286.039062 118.203125 282.1875 121.554688 282.996094 127.140625 Z M 282.996094 127.136719 " fill-opacity="0.34" fill-rule="nonzero"/><path fill="#ffffff" d="M 297.183594 114.589844 C 298.65625 116.988281 300.128906 119.390625 301.601562 121.789062 C 301.816406 122.140625 302.070312 122.519531 302.464844 122.632812 C 303.480469 122.921875 303.929688 121.449219 304.234375 120.441406 C 305.183594 117.304688 308.921875 116.199219 311.875 114.789062 C 316.625 112.515625 320.382812 108.253906 322.046875 103.261719 C 322.734375 101.195312 323.054688 98.855469 322.109375 96.894531 C 321.160156 94.933594 318.574219 93.675781 316.695312 94.773438 C 315.332031 95.566406 314.191406 97.441406 312.722656 96.875 C 311.839844 96.535156 311.519531 95.445312 311.5 94.5 C 311.480469 93.558594 311.628906 92.558594 311.226562 91.703125 C 310.574219 90.332031 308.683594 89.941406 307.265625 90.488281 C 305.851562 91.039062 304.824219 92.269531 303.925781 93.496094 C 299.417969 99.644531 293.179688 108.066406 297.183594 114.589844 Z M 297.183594 114.589844 " fill-opacity="0.34" fill-rule="nonzero"/><path fill="#000000" d="M 154.648438 44.9375 C 135.105469 95.894531 117.738281 147.683594 102.609375 200.117188 C 115.042969 164.488281 129.289062 129.488281 145.265625 95.300781 C 142.472656 138.648438 140.671875 182.0625 139.859375 225.492188 C 140.828125 180.679688 150.097656 136.503906 159.328125 92.640625 C 168.40625 131.257812 179.730469 169.34375 193.222656 206.644531 C 183.164062 166.757812 175.132812 126.359375 169.164062 85.660156 C 172.421875 88.335938 174.847656 92 176.035156 96.042969 C 174.886719 91.828125 173.738281 87.617188 172.589844 83.402344 C 195.34375 118.164062 219.308594 152.132812 244.429688 185.226562 C 231.503906 151.792969 215.980469 119.359375 198.042969 88.324219 C 208.128906 96.152344 218.21875 103.984375 228.304688 111.8125 C 207.863281 89.292969 186.628906 67.414062 163.429688 47.742188 C 161.300781 45.9375 158.832031 44.042969 156.054688 44.296875 C 153.277344 44.550781 151.082031 48.417969 154.648438 44.9375 Z M 154.648438 44.9375 " fill-opacity="0.13" fill-rule="nonzero"/><path fill="#000000" d="M 316.65625 193.566406 C 250.644531 246.367188 195.894531 270.421875 78.238281 260.46875 C 133.996094 278.949219 196.824219 275.082031 249.886719 249.894531 C 276.535156 237.246094 300.472656 219.640625 324.226562 202.148438 C 321.851562 199.707031 319.484375 197.269531 316.65625 193.570312 Z M 316.65625 193.566406 " fill-opacity="0.31" fill-rule="nonzero"/><path fill="#000000" d="M 154.089844 46.6875 L 127.660156 125.078125 C 133 109.285156 140.378906 94.191406 149.566406 80.285156 C 148.921875 87.429688 148.273438 94.570312 147.632812 101.714844 C 148.46875 97.808594 149.308594 93.90625 150.144531 89.996094 C 145.597656 109.078125 143.804688 128.8125 144.832031 148.402344 C 149.859375 123.671875 154.886719 98.9375 159.914062 74.207031 C 165.015625 117.011719 174.214844 159.324219 187.34375 200.382812 C 182.3125 160.089844 177.285156 119.792969 172.25 79.496094 C 190.734375 106.042969 209.21875 132.585938 227.699219 159.128906 C 212.679688 131.992188 197.660156 104.855469 182.636719 77.71875 C 195.210938 84.828125 207.78125 91.933594 220.355469 99.039062 C 199.878906 80.710938 179.402344 62.386719 154.085938 46.6875 Z M 154.089844 46.6875 " fill-opacity="0.12" fill-rule="nonzero"/><path fill="#ffffff" d="M 200.144531 154.125 C 196.226562 151.738281 193.382812 147.660156 192.488281 143.160156 C 191.597656 138.660156 192.675781 133.808594 195.382812 130.105469 C 197.203125 127.617188 199.789062 125.621094 202.777344 124.859375 C 205.765625 124.097656 209.148438 124.667969 211.5 126.664062 C 214.265625 129.011719 215.238281 132.824219 215.738281 136.414062 C 216.238281 139.980469 216.410156 143.660156 215.496094 147.144531 C 214.578125 150.628906 212.441406 153.917969 209.246094 155.578125 C 206.046875 157.238281 201.75 156.9375 200.144531 154.128906 Z M 200.144531 154.125 " fill-opacity="1" fill-rule="nonzero"/><path fill="#ffffff" d="M 150.320312 133.042969 C 147.839844 133.445312 146.0625 135.65625 144.933594 137.898438 C 141.332031 145.066406 142.164062 154.246094 146.996094 160.652344 C 148.808594 163.058594 151.453125 165.199219 154.460938 165.089844 C 157.515625 164.976562 160.007812 162.585938 161.6875 160.035156 C 164.953125 155.0625 166.300781 148.863281 165.390625 142.984375 C 164.792969 139.136719 163.140625 135.292969 160.058594 132.914062 C 156.976562 130.539062 152.289062 130.03125 150.320312 133.046875 Z M 150.320312 133.042969 " fill-opacity="1" fill-rule="nonzero"/><path fill="#000000" d="M 161.5625 149.429688 C 161.5625 150.175781 161.515625 150.910156 161.417969 151.640625 C 161.324219 152.367188 161.183594 153.074219 161 153.761719 C 160.816406 154.449219 160.585938 155.101562 160.320312 155.71875 C 160.050781 156.335938 159.746094 156.910156 159.402344 157.433594 C 159.058594 157.960938 158.6875 158.429688 158.285156 158.84375 C 157.882812 159.253906 157.457031 159.605469 157.011719 159.890625 C 156.5625 160.171875 156.101562 160.386719 155.628906 160.53125 C 155.152344 160.679688 154.675781 160.75 154.191406 160.75 C 153.707031 160.75 153.226562 160.679688 152.753906 160.53125 C 152.277344 160.386719 151.816406 160.171875 151.371094 159.890625 C 150.921875 159.605469 150.496094 159.253906 150.09375 158.84375 C 149.691406 158.429688 149.320312 157.960938 148.976562 157.433594 C 148.636719 156.910156 148.332031 156.335938 148.0625 155.71875 C 147.792969 155.101562 147.566406 154.449219 147.378906 153.761719 C 147.195312 153.074219 147.054688 152.367188 146.960938 151.640625 C 146.867188 150.910156 146.820312 150.175781 146.820312 149.429688 C 146.820312 148.6875 146.867188 147.953125 146.960938 147.222656 C 147.054688 146.492188 147.195312 145.785156 147.378906 145.097656 C 147.566406 144.414062 147.792969 143.761719 148.0625 143.140625 C 148.332031 142.523438 148.636719 141.953125 148.976562 141.425781 C 149.320312 140.902344 149.691406 140.433594 150.09375 140.019531 C 150.496094 139.605469 150.921875 139.257812 151.371094 138.972656 C 151.816406 138.6875 152.277344 138.472656 152.753906 138.328125 C 153.226562 138.183594 153.707031 138.109375 154.191406 138.109375 C 154.675781 138.109375 155.152344 138.183594 155.628906 138.328125 C 156.101562 138.472656 156.5625 138.6875 157.011719 138.972656 C 157.457031 139.257812 157.882812 139.605469 158.285156 140.019531 C 158.6875 140.433594 159.058594 140.902344 159.402344 141.425781 C 159.746094 141.953125 160.050781 142.523438 160.320312 143.140625 C 160.585938 143.761719 160.816406 144.414062 161 145.097656 C 161.183594 145.785156 161.324219 146.492188 161.417969 147.222656 C 161.515625 147.953125 161.5625 148.6875 161.5625 149.429688 Z M 161.5625 149.429688 " fill-opacity="1" fill-rule="nonzero"/><path fill="#ffffff" d="M 159.195312 145.9375 C 159.195312 146.453125 159.113281 146.953125 158.953125 147.429688 C 158.789062 147.90625 158.554688 148.324219 158.253906 148.691406 C 157.953125 149.054688 157.605469 149.335938 157.210938 149.535156 C 156.816406 149.730469 156.40625 149.832031 155.976562 149.832031 C 155.550781 149.832031 155.140625 149.730469 154.746094 149.535156 C 154.351562 149.335938 154.003906 149.054688 153.703125 148.691406 C 153.402344 148.324219 153.167969 147.90625 153.003906 147.429688 C 152.839844 146.953125 152.761719 146.453125 152.761719 145.9375 C 152.761719 145.421875 152.839844 144.925781 153.003906 144.449219 C 153.167969 143.972656 153.402344 143.550781 153.703125 143.1875 C 154.003906 142.820312 154.351562 142.539062 154.746094 142.34375 C 155.140625 142.144531 155.550781 142.046875 155.976562 142.046875 C 156.40625 142.046875 156.816406 142.144531 157.210938 142.34375 C 157.605469 142.539062 157.953125 142.820312 158.253906 143.1875 C 158.554688 143.550781 158.789062 143.972656 158.953125 144.449219 C 159.113281 144.925781 159.195312 145.421875 159.195312 145.9375 Z M 159.195312 145.9375 " fill-opacity="1" fill-rule="nonzero"/><path fill="#000000" d="M 213.136719 141.75 C 213.136719 142.492188 213.089844 143.226562 212.996094 143.957031 C 212.898438 144.6875 212.761719 145.394531 212.574219 146.082031 C 212.390625 146.765625 212.164062 147.417969 211.894531 148.039062 C 211.625 148.65625 211.320312 149.226562 210.976562 149.753906 C 210.636719 150.277344 210.261719 150.746094 209.859375 151.160156 C 209.457031 151.574219 209.03125 151.921875 208.585938 152.207031 C 208.140625 152.492188 207.679688 152.707031 207.203125 152.851562 C 206.730469 152.996094 206.25 153.066406 205.765625 153.066406 C 205.28125 153.066406 204.800781 152.996094 204.328125 152.851562 C 203.851562 152.707031 203.390625 152.492188 202.945312 152.207031 C 202.496094 151.921875 202.074219 151.574219 201.671875 151.160156 C 201.269531 150.746094 200.894531 150.277344 200.554688 149.753906 C 200.210938 149.226562 199.90625 148.65625 199.636719 148.039062 C 199.367188 147.417969 199.140625 146.765625 198.957031 146.082031 C 198.769531 145.394531 198.628906 144.6875 198.535156 143.957031 C 198.441406 143.226562 198.394531 142.492188 198.394531 141.75 C 198.394531 141.003906 198.441406 140.269531 198.535156 139.539062 C 198.628906 138.8125 198.769531 138.105469 198.957031 137.417969 C 199.140625 136.730469 199.367188 136.078125 199.636719 135.460938 C 199.90625 134.84375 200.210938 134.269531 200.554688 133.746094 C 200.894531 133.21875 201.269531 132.75 201.671875 132.335938 C 202.074219 131.925781 202.496094 131.574219 202.945312 131.289062 C 203.390625 131.007812 203.851562 130.792969 204.328125 130.648438 C 204.800781 130.5 205.28125 130.429688 205.765625 130.429688 C 206.25 130.429688 206.730469 130.5 207.203125 130.648438 C 207.679688 130.792969 208.140625 131.007812 208.585938 131.289062 C 209.03125 131.574219 209.457031 131.925781 209.859375 132.335938 C 210.261719 132.75 210.636719 133.21875 210.976562 133.746094 C 211.320312 134.269531 211.625 134.84375 211.894531 135.460938 C 212.164062 136.078125 212.390625 136.730469 212.574219 137.417969 C 212.761719 138.105469 212.898438 138.8125 212.996094 139.539062 C 213.089844 140.269531 213.136719 141.003906 213.136719 141.75 Z M 213.136719 141.75 " fill-opacity="1" fill-rule="nonzero"/><path fill="#ffffff" d="M 210.773438 138.257812 C 210.773438 138.773438 210.691406 139.269531 210.527344 139.746094 C 210.363281 140.222656 210.128906 140.644531 209.828125 141.007812 C 209.527344 141.375 209.179688 141.65625 208.785156 141.851562 C 208.390625 142.050781 207.980469 142.148438 207.554688 142.148438 C 207.125 142.148438 206.714844 142.050781 206.320312 141.851562 C 205.925781 141.65625 205.578125 141.375 205.277344 141.007812 C 204.976562 140.644531 204.742188 140.222656 204.582031 139.746094 C 204.417969 139.269531 204.335938 138.773438 204.335938 138.257812 C 204.335938 137.742188 204.417969 137.242188 204.582031 136.765625 C 204.742188 136.289062 204.976562 135.871094 205.277344 135.503906 C 205.578125 135.140625 205.925781 134.859375 206.320312 134.660156 C 206.714844 134.464844 207.125 134.363281 207.554688 134.363281 C 207.980469 134.363281 208.390625 134.464844 208.785156 134.660156 C 209.179688 134.859375 209.527344 135.140625 209.828125 135.503906 C 210.128906 135.871094 210.363281 136.289062 210.527344 136.765625 C 210.691406 137.242188 210.773438 137.742188 210.773438 138.257812 Z M 210.773438 138.257812 " fill-opacity="1" fill-rule="nonzero"/><path fill="#000000" d="M 147.367188 191.1875 C 150.007812 200.367188 155.800781 208.609375 163.550781 214.195312 C 168.746094 217.941406 175.332031 220.558594 181.535156 218.945312 C 185.511719 217.914062 188.867188 215.269531 191.839844 212.433594 C 200.996094 203.6875 207.71875 192.425781 211.070312 180.21875 C 202.914062 188.25 192.25 193.707031 180.964844 195.621094 C 169.675781 197.539062 157.8125 195.914062 147.363281 191.191406 Z M 147.367188 191.1875 " fill-opacity="1" fill-rule="nonzero"/><path fill="#c82131" d="M 224.308594 260.617188 C 230.058594 273.667969 229.273438 288.609375 227.300781 302.730469 C 227.050781 304.535156 226.78125 306.382812 227.160156 308.164062 C 227.535156 309.941406 228.707031 311.675781 230.457031 312.183594 C 229.371094 303.15625 231.558594 294.109375 232.800781 285.101562 C 234.042969 276.09375 234.203125 266.363281 229.542969 258.554688 C 228.992188 257.625 228.308594 256.683594 227.292969 256.316406 C 226.273438 255.953125 224.886719 256.484375 224.308594 260.617188 Z M 224.308594 260.617188 " fill-opacity="0.67" fill-rule="nonzero"/><path fill="#c82131" d="M 173.53125 269.847656 C 176.457031 276.886719 176.320312 284.816406 175.367188 292.375 C 174.414062 299.9375 172.691406 307.433594 172.597656 315.054688 C 172.582031 316.394531 172.808594 318.035156 174.050781 318.539062 C 175.132812 318.980469 176.402344 318.1875 176.910156 317.132812 C 177.417969 316.074219 177.371094 314.847656 177.332031 313.679688 C 176.953125 302 178.613281 290.191406 182.875 279.3125 C 183.59375 277.484375 184.390625 275.644531 184.53125 273.6875 C 184.675781 271.726562 184.019531 269.578125 182.375 268.503906 C 180.734375 267.425781 178.082031 267.964844 173.527344 269.847656 Z M 173.53125 269.847656 " fill-opacity="0.59" fill-rule="nonzero"/><path fill="#000000" d="M 239.617188 299.433594 C 238.605469 298.230469 236.460938 299.109375 235.84375 300.550781 C 235.226562 301.996094 235.5625 303.644531 235.667969 305.210938 C 235.960938 309.667969 234.144531 314.21875 230.863281 317.25 C 238.992188 317.914062 246.882812 321.273438 252.992188 326.679688 C 255.179688 328.617188 257.257812 331.066406 257.390625 333.984375 C 257.570312 337.78125 254.242188 341.027344 250.585938 342.078125 C 246.929688 343.128906 243.027344 342.511719 239.277344 341.882812 C 246.632812 342.542969 253.988281 343.199219 261.34375 343.855469 C 264.441406 344.132812 268.113281 344.175781 269.996094 341.699219 C 271.320312 339.953125 271.246094 337.53125 270.828125 335.382812 C 269.550781 328.796875 265.515625 322.789062 259.90625 319.109375 C 254.289062 315.429688 247.171875 314.125 240.617188 315.582031 C 242.769531 312.566406 245.011719 309.289062 245.042969 305.585938 C 245.074219 301.882812 241.730469 297.957031 239.617188 299.433594 Z M 239.617188 299.433594 " fill-opacity="0.51" fill-rule="nonzero"/><path fill="#ffffff" d="M 162.738281 196.625 C 162.230469 199.375 161.722656 202.128906 161.214844 204.882812 C 164.917969 206.140625 168.785156 206.898438 172.691406 207.125 C 173.203125 203.855469 173.441406 200.542969 173.402344 197.230469 C 169.945312 197.5 166.449219 197.320312 162.738281 196.621094 Z M 162.738281 196.625 " fill-opacity="1" fill-rule="nonzero"/><path fill="#ffffff" d="M 173.910156 197.300781 C 173.882812 199.574219 174.1875 201.847656 174.808594 204.035156 C 174.980469 204.621094 175.195312 205.242188 175.695312 205.597656 C 176.300781 206.03125 177.121094 205.9375 177.855469 205.824219 C 181.105469 205.320312 184.347656 204.742188 187.574219 204.09375 C 187.839844 204.039062 188.144531 203.957031 188.25 203.707031 C 188.328125 203.523438 188.265625 203.308594 188.203125 203.117188 C 187.230469 200.164062 186.257812 197.210938 185.285156 194.253906 C 181.113281 195.761719 176.710938 196.617188 173.90625 197.296875 Z M 173.910156 197.300781 " fill-opacity="1" fill-rule="nonzero"/><path fill="#ffffff" d="M 185.300781 194.75 C 186.210938 197.015625 187.371094 199.175781 188.753906 201.183594 C 189.078125 201.652344 189.441406 202.132812 189.976562 202.320312 C 190.65625 202.550781 191.390625 202.242188 192.027344 201.914062 C 194.460938 200.667969 196.730469 199.109375 198.769531 197.289062 C 197.71875 195.121094 196.664062 192.957031 195.613281 190.785156 C 191.667969 192.429688 187.726562 194.074219 185.300781 194.75 Z M 185.300781 194.75 " fill-opacity="1" fill-rule="nonzero"/><path fill="#ffffff" d="M 195.40625 191.304688 C 196.402344 192.96875 197.398438 194.632812 198.398438 196.300781 C 200.574219 194.832031 202.640625 193.199219 204.570312 191.421875 C 205.183594 190.859375 205.828125 190.179688 205.808594 189.347656 C 205.777344 187.921875 203.847656 187.066406 203.875 185.640625 C 199.804688 187.820312 195.953125 190.390625 195.40625 191.304688 Z M 195.40625 191.304688 " fill-opacity="1" fill-rule="nonzero"/><path fill="#ffffff" d="M 163.550781 196.8125 C 162.351562 198.960938 161.152344 201.113281 159.949219 203.265625 C 157.167969 202.597656 154.484375 201.515625 152.011719 200.078125 C 152.9375 197.667969 154.011719 195.320312 155.234375 193.050781 C 154.429688 194.109375 153.621094 195.167969 152.816406 196.230469 C 152.453125 196.710938 152.042969 197.222656 151.453125 197.359375 C 150.511719 197.582031 149.667969 196.757812 149.089844 195.976562 C 148.515625 195.195312 147.832031 194.296875 146.859375 194.285156 C 147.765625 193.054688 148.667969 191.820312 149.570312 190.589844 C 151.632812 192.011719 153.855469 193.191406 156.1875 194.105469 " fill-opacity="1" fill-rule="nonzero"/><path fill="#ffffff" d="M 176.222656 219.296875 C 175.914062 217.230469 175.601562 215.164062 175.292969 213.097656 C 175.222656 212.621094 175.15625 212.105469 175.390625 211.6875 C 175.679688 211.164062 176.320312 210.972656 176.898438 210.824219 C 179.726562 210.101562 182.550781 209.382812 185.378906 208.664062 C 186.230469 208.445312 187.144531 208.230469 187.972656 208.539062 C 189.078125 208.949219 189.644531 210.144531 190.105469 211.234375 C 190.324219 211.746094 190.542969 212.300781 190.402344 212.839844 C 190.207031 213.589844 189.410156 213.984375 188.695312 214.285156 C 184.238281 216.15625 179.722656 217.886719 176.222656 219.296875 Z M 176.222656 219.296875 " fill-opacity="1" fill-rule="nonzero"/><path fill="#ffffff" d="M 173.003906 219.230469 C 173.007812 216.625 173.015625 214.019531 173.019531 211.414062 C 169.953125 210.671875 166.882812 209.929688 163.8125 209.1875 C 163.441406 209.097656 163.03125 209.011719 162.691406 209.195312 C 162.445312 209.328125 162.285156 209.582031 162.140625 209.828125 C 161.238281 211.335938 160.335938 212.84375 159.433594 214.347656 C 163.875 217.261719 169.132812 218.914062 173.003906 219.230469 Z M 173.003906 219.230469 " fill-opacity="1" fill-rule="nonzero"/><path fill="#ffffff" d="M 192.402344 210.972656 C 191.820312 210.460938 191.230469 209.9375 190.800781 209.289062 C 190.371094 208.640625 190.117188 207.835938 190.28125 207.074219 C 190.515625 205.976562 191.523438 205.242188 192.457031 204.613281 C 194.503906 203.234375 196.550781 201.855469 198.597656 200.476562 C 199.550781 200.675781 200.234375 201.621094 200.320312 202.589844 C 200.40625 203.5625 199.988281 204.523438 199.378906 205.277344 C 198.769531 206.039062 197.976562 206.628906 197.195312 207.207031 C 195.21875 208.671875 193.246094 210.140625 192.402344 210.972656 Z M 192.402344 210.972656 " fill-opacity="1" fill-rule="nonzero"/><path fill="#ffffff" d="M 158.671875 211.394531 C 159.09375 211.078125 159.527344 210.753906 159.84375 210.332031 C 160.160156 209.90625 160.347656 209.359375 160.226562 208.839844 C 160.113281 208.355469 159.746094 207.976562 159.390625 207.628906 C 157.703125 205.972656 155.894531 204.429688 153.992188 203.023438 C 153.210938 203.664062 152.707031 204.632812 152.753906 205.851562 C 154.445312 207.734375 156.292969 209.472656 158.671875 211.394531 Z M 158.671875 211.394531 " fill-opacity="1" fill-rule="nonzero"/><path fill="#000000" d="M 205.582031 107.214844 C 201.351562 106.144531 196.722656 106.738281 192.898438 108.839844 C 191.699219 109.496094 190.488281 110.429688 190.214844 111.773438 C 189.882812 113.402344 191.144531 115.019531 192.675781 115.667969 C 194.210938 116.3125 195.941406 116.226562 197.601562 116.121094 C 203.386719 115.75 209.160156 115.285156 214.925781 114.726562 C 211.992188 109.179688 205.148438 106.003906 199.015625 107.347656 " fill-opacity="1" fill-rule="nonzero"/><path fill="#000000" d="M 156.648438 113.132812 C 148.230469 112.679688 139.746094 117.433594 135.746094 124.851562 C 142.492188 122.183594 149.582031 120.394531 156.785156 119.542969 C 157.851562 119.414062 158.953125 119.300781 159.890625 118.777344 C 160.828125 118.257812 161.566406 117.207031 161.367188 116.148438 C 161.167969 115.089844 160.140625 114.402344 159.148438 113.96875 C 156.289062 112.71875 152.949219 112.59375 156.644531 113.132812 Z M 156.648438 113.132812 " fill-opacity="1" fill-rule="nonzero"/><path fill="#000000" d="M 118.125 209.875 C 114.597656 212.78125 112.847656 218.417969 113.945312 223.34375 C 114.167969 224.351562 114.515625 225.347656 115.117188 226.105469 C 115.71875 226.863281 116.621094 227.339844 117.480469 227.148438 C 119.050781 226.800781 119.738281 224.601562 119.9375 222.71875 C 120.394531 218.449219 119.808594 214.027344 118.128906 209.875 Z M 118.125 209.875 " fill-opacity="1" fill-rule="nonzero"/><path fill="#000000" d="M 150.386719 216.046875 C 148.046875 218.9375 146.9375 222.789062 147.386719 226.476562 C 147.507812 227.492188 147.761719 228.523438 148.394531 229.320312 C 149.027344 230.117188 150.128906 230.609375 151.097656 230.285156 C 152.621094 229.777344 152.929688 227.769531 152.832031 226.164062 C 152.621094 222.722656 151.78125 219.316406 150.386719 216.046875 Z M 150.386719 216.046875 " fill-opacity="1" fill-rule="nonzero"/><path fill="#000000" d="M 219.574219 192.523438 C 217.726562 197.8125 219.191406 204.113281 223.191406 208.039062 C 224.078125 208.914062 225.265625 209.722656 226.480469 209.441406 C 227.863281 209.125 228.582031 207.472656 228.371094 206.074219 C 228.15625 204.671875 227.269531 203.480469 226.414062 202.351562 C 223.964844 199.128906 221.519531 195.910156 219.574219 192.523438 Z M 219.574219 192.523438 " fill-opacity="1" fill-rule="nonzero"/><path fill="#000000" d="M 250.886719 173.488281 C 252.644531 177.234375 254.40625 180.972656 256.167969 184.71875 C 257.027344 186.542969 258.449219 188.691406 260.445312 188.363281 C 261.777344 188.144531 262.6875 186.761719 262.753906 185.414062 C 262.820312 184.0625 262.21875 182.769531 261.492188 181.628906 C 258.707031 177.25 253.789062 174.296875 250.886719 173.488281 Z M 250.886719 173.488281 " fill-opacity="1" fill-rule="nonzero"/><path fill="#000000" d="M 231.863281 127.941406 C 230.960938 132.726562 232.191406 137.878906 235.160156 141.742188 C 235.867188 142.664062 236.710938 143.546875 237.800781 143.960938 C 238.890625 144.371094 240.273438 144.203125 241.003906 143.296875 C 241.914062 142.167969 241.492188 140.492188 240.886719 139.171875 C 238.929688 134.882812 235.457031 131.304688 231.863281 127.9375 Z M 231.863281 127.941406 " fill-opacity="1" fill-rule="nonzero"/><path fill="#000000" d="M 177.949219 149.832031 C 176.984375 152.78125 175.300781 155.441406 174.085938 158.300781 C 172.867188 161.15625 172.132812 164.425781 173.167969 167.355469 C 174.203125 170.285156 177.523438 172.542969 180.453125 171.507812 C 182.414062 170.8125 183.722656 168.847656 184.105469 166.804688 C 184.484375 164.765625 184.070312 162.652344 183.449219 160.671875 C 182.226562 156.746094 180.199219 153.082031 177.949219 149.832031 Z M 177.949219 149.832031 " fill-opacity="1" fill-rule="nonzero"/><path fill="#000000" d="M 131.117188 153.628906 C 127.085938 155.226562 123.527344 158 120.996094 161.519531 C 120.230469 162.578125 119.542969 163.746094 119.378906 165.042969 C 119.210938 166.339844 119.679688 167.785156 120.792969 168.46875 C 122.363281 169.429688 124.507812 168.488281 125.605469 167.007812 C 126.699219 165.527344 127.074219 163.65625 127.679688 161.917969 C 129.03125 158.050781 131.671875 154.644531 131.117188 153.628906 Z M 131.117188 153.628906 " fill-opacity="1" fill-rule="nonzero"/><path fill="#000000" d="M 168.757812 92.816406 C 168.894531 94.464844 168.242188 96.058594 167.695312 97.621094 C 167.152344 99.183594 166.703125 100.902344 167.246094 102.464844 C 167.789062 104.027344 169.714844 105.195312 171.152344 104.375 C 172.296875 103.722656 172.597656 102.195312 172.5 100.878906 C 172.289062 98.007812 170.6875 95.273438 168.757812 92.816406 Z M 168.757812 92.816406 " fill-opacity="1" fill-rule="nonzero"/><path fill="#000000" d="M 184.023438 85.546875 C 185.492188 87.882812 186.957031 90.21875 188.421875 92.554688 C 188.882812 93.285156 189.425781 94.078125 190.269531 94.265625 C 191.347656 94.503906 192.417969 93.527344 192.609375 92.4375 C 192.800781 91.347656 192.320312 90.246094 191.6875 89.339844 C 189.734375 86.535156 186.109375 85.003906 184.023438 85.546875 Z M 184.023438 85.546875 " fill-opacity="1" fill-rule="nonzero"/><path fill="#000000" d="M 169.863281 321.398438 C 171.273438 324.289062 172.699219 327.222656 173.285156 330.382812 C 173.875 333.542969 173.535156 337.011719 171.65625 339.621094 C 169.9375 342 167.183594 343.382812 164.457031 344.460938 C 156.929688 347.441406 148.875 348.789062 140.890625 350.113281 C 154.472656 348.457031 168.054688 346.796875 181.640625 345.144531 C 183.296875 344.941406 185.0625 344.695312 186.324219 343.605469 C 187.949219 342.207031 188.28125 339.835938 188.25 337.695312 C 188.195312 333.875 187.332031 330.070312 185.730469 326.605469 C 184.367188 323.65625 182.347656 320.839844 179.402344 319.46875 C 176.464844 318.097656 172.488281 318.597656 169.863281 321.40625 Z M 169.863281 321.398438 " fill-opacity="0.45" fill-rule="nonzero"/><path fill="#c82131" d="M 307.191406 91.601562 C 308.039062 100.878906 305.199219 110.4375 299.425781 117.75 C 305.15625 111.917969 309.351562 104.597656 311.488281 96.710938 C 311.914062 95.140625 312.25 93.40625 311.558594 91.933594 C 310.871094 90.457031 308.722656 89.613281 307.191406 91.601562 Z M 307.191406 91.601562 " fill-opacity="0.58" fill-rule="nonzero"/><path fill="#c82131" d="M 319.664062 96.375 C 320.429688 96.117188 321.289062 96.691406 321.597656 97.4375 C 321.910156 98.183594 321.804688 99.039062 321.625 99.828125 C 320.585938 104.371094 317.28125 108.074219 313.652344 111.003906 C 310.023438 113.933594 305.957031 116.316406 302.519531 119.46875 C 307.109375 117.078125 311.695312 114.6875 316.285156 112.292969 C 318.296875 111.242188 320.324219 110.183594 322.101562 108.769531 C 323.875 107.351562 325.402344 105.539062 326.113281 103.382812 C 326.824219 101.230469 326.625 98.703125 325.253906 96.894531 C 323.886719 95.078125 321.269531 94.199219 319.664062 96.375 Z M 319.664062 96.375 " fill-opacity="0.58" fill-rule="nonzero"/><path fill="#c82131" d="M 316.050781 115.011719 C 313.289062 115.972656 310.617188 117.199219 308.089844 118.675781 C 307.707031 118.902344 307.28125 119.199219 307.25 119.644531 C 307.210938 120.210938 307.886719 120.601562 308.449219 120.527344 C 309.011719 120.457031 309.488281 120.09375 309.984375 119.816406 C 312.105469 118.613281 314.992188 118.949219 316.777344 120.605469 C 318.566406 122.265625 319.113281 125.117188 318.066406 127.316406 C 316.980469 129.605469 314.574219 130.910156 312.316406 132.058594 C 310.492188 132.988281 308.667969 133.917969 306.839844 134.851562 C 310.683594 136.453125 315.402344 135.328125 318.382812 132.417969 C 321.363281 129.507812 322.609375 125.050781 321.957031 120.9375 C 321.636719 118.925781 320.839844 116.894531 319.261719 115.597656 C 317.691406 114.300781 315.230469 113.953125 316.046875 115.011719 Z M 316.050781 115.011719 " fill-opacity="0.58" fill-rule="nonzero"/><path fill="#c82131" d="M 302.925781 125.515625 C 302.8125 128.003906 302.679688 130.585938 301.519531 132.792969 C 299.566406 136.511719 294.597656 138.3125 290.714844 136.703125 C 293.128906 138.554688 295.628906 140.445312 298.570312 141.203125 C 301.511719 141.957031 305.046875 141.285156 306.796875 138.800781 C 308.15625 136.867188 308.167969 134.230469 307.40625 131.988281 C 306.640625 129.746094 305.199219 127.8125 302.925781 125.515625 Z M 302.925781 125.515625 " fill-opacity="0.58" fill-rule="nonzero"/><path fill="#c82131" d="M 66.355469 175.988281 C 66.363281 177.1875 67.355469 178.21875 68.503906 178.566406 C 69.652344 178.914062 70.898438 178.695312 72.027344 178.28125 C 74.664062 177.3125 76.890625 175.257812 78.0625 172.699219 C 79.234375 170.144531 79.34375 167.121094 78.359375 164.488281 C 79.152344 167.015625 79.835938 169.601562 80.007812 172.242188 C 80.183594 174.886719 79.824219 177.613281 78.617188 179.972656 C 77.414062 182.332031 75.304688 184.292969 72.746094 184.984375 C 70.1875 185.671875 67.210938 184.9375 65.507812 182.90625 C 63.804688 180.878906 63.675781 177.585938 66.355469 175.984375 Z M 66.355469 175.988281 " fill-opacity="0.58" fill-rule="nonzero"/><path fill="#c82131" d="M 48.496094 173.433594 C 49.925781 177.082031 54.113281 179.421875 57.96875 178.726562 C 61.828125 178.03125 64.933594 174.375 64.996094 170.457031 C 66.472656 174.414062 65.445312 179.179688 62.476562 182.179688 C 61.304688 183.363281 59.796875 184.304688 58.132812 184.441406 C 55.808594 184.640625 53.589844 183.230469 52.183594 181.375 C 50.773438 179.515625 50.039062 177.25 48.492188 173.433594 Z M 48.496094 173.433594 " fill-opacity="0.58" fill-rule="nonzero"/><path fill="#c82131" d="M 42.492188 145.707031 C 41.585938 147.292969 41.871094 149.351562 42.808594 150.921875 C 43.746094 152.484375 45.242188 153.632812 46.785156 154.605469 C 52.667969 158.308594 59.578125 159.941406 66.347656 161.511719 C 63.003906 163.355469 58.933594 163.492188 55.199219 162.679688 C 51.46875 161.867188 48 160.179688 44.566406 158.503906 C 43.117188 157.796875 41.652344 157.078125 40.4375 156.015625 C 39.222656 154.953125 38.273438 153.492188 38.175781 151.886719 C 38.015625 149.222656 40.117188 147.019531 42.492188 145.707031 Z M 42.492188 145.707031 " fill-opacity="0.58" fill-rule="nonzero"/><path fill="#c82131" d="M 55.160156 138.234375 C 53.882812 138.179688 52.933594 139.578125 52.972656 140.855469 C 53.015625 142.128906 53.742188 143.269531 54.445312 144.339844 C 56.554688 147.542969 58.703125 150.789062 61.597656 153.308594 C 64.496094 155.820312 68.292969 157.554688 72.105469 157.148438 C 70.867188 157.757812 70.222656 159.113281 69.484375 160.285156 C 68.75 161.457031 67.59375 162.628906 66.21875 162.464844 C 65.15625 162.339844 64.371094 161.449219 63.6875 160.625 C 60.484375 156.75 57.285156 152.871094 54.082031 148.996094 C 53.023438 147.714844 51.949219 146.40625 51.316406 144.871094 C 50.683594 143.332031 50.550781 141.503906 51.359375 140.050781 C 52.167969 138.597656 54.085938 137.734375 55.160156 138.238281 Z M 55.160156 138.234375 " fill-opacity="0.58" fill-rule="nonzero"/><g clip-path="url(#9415d2e241)"><path fill="#000000" d="M 123.347656 276.238281 C 116.589844 276.238281 110.789062 275.902344 105.296875 275.207031 C 94.53125 273.847656 85.394531 271.113281 77.363281 266.84375 C 75.730469 265.976562 74.933594 264.078125 75.453125 262.308594 C 97.519531 187.363281 123.371094 112.566406 152.292969 39.988281 C 152.765625 38.804688 153.785156 37.929688 155.027344 37.636719 C 156.265625 37.351562 157.570312 37.6875 158.515625 38.539062 C 223.433594 97.117188 277.082031 147.644531 327.347656 197.550781 C 328.101562 198.296875 328.515625 199.320312 328.496094 200.382812 C 328.476562 201.445312 328.023438 202.453125 327.242188 203.171875 C 302.476562 225.984375 272.273438 243.890625 237.476562 256.382812 C 205.535156 267.855469 170.777344 274.453125 134.167969 275.992188 C 130.273438 276.15625 126.691406 276.238281 123.34375 276.238281 Z M 83.847656 261.378906 C 99.363281 268.5625 117.734375 268.894531 133.84375 268.21875 C 169.664062 266.714844 203.644531 260.269531 234.84375 249.0625 C 267.253906 237.425781 295.523438 220.988281 318.945312 200.183594 C 270.695312 152.371094 219.175781 103.847656 157.460938 48.074219 C 129.859375 117.785156 105.113281 189.5 83.847656 261.378906 Z M 83.847656 261.378906 " fill-opacity="1" fill-rule="nonzero"/></g><g clip-path="url(#7e6f939f63)"><path fill="#000000" d="M 135.425781 351.710938 C 133.578125 351.710938 131.734375 351.695312 129.882812 351.664062 C 128.941406 351.648438 127.519531 351.621094 126.183594 350.863281 C 124.238281 349.757812 123.203125 347.621094 123.105469 344.519531 C 122.851562 336.449219 126.285156 328.410156 132.296875 323.019531 C 137.109375 318.699219 143.433594 316.199219 149.867188 315.953125 C 149.296875 314.414062 148.988281 312.867188 148.957031 311.355469 C 148.886719 307.574219 150.632812 304.058594 153.515625 302.183594 C 155.402344 300.953125 157.671875 300.554688 159.761719 300.925781 C 159.789062 291.054688 159.125 281.808594 158.484375 272.832031 C 158.378906 271.402344 159.457031 270.160156 160.886719 270.058594 C 162.316406 269.957031 163.558594 271.03125 163.660156 272.460938 C 164.402344 282.792969 165.167969 293.480469 164.894531 305.15625 C 164.871094 306.226562 164.191406 307.167969 163.191406 307.535156 C 162.1875 307.898438 161.0625 307.613281 160.355469 306.8125 C 159.492188 305.835938 157.621094 305.707031 156.347656 306.53125 C 154.976562 307.429688 154.113281 309.28125 154.148438 311.261719 C 154.195312 313.648438 155.410156 315.839844 156.421875 317.257812 C 157.023438 318.101562 157.066406 319.226562 156.527344 320.109375 C 155.992188 320.996094 154.976562 321.476562 153.949219 321.335938 C 147.449219 320.421875 140.648438 322.5 135.765625 326.882812 C 130.882812 331.265625 128.089844 337.796875 128.296875 344.359375 C 128.34375 345.808594 128.675781 346.308594 128.753906 346.355469 C 128.9375 346.457031 129.667969 346.472656 129.980469 346.476562 C 146.929688 346.777344 164.027344 345.671875 180.800781 343.183594 C 182.84375 342.882812 184.769531 342.527344 185.914062 341.492188 C 186.332031 341.121094 186.597656 340.503906 186.585938 339.960938 C 186.574219 339.574219 186.429688 339.28125 186.125 339.035156 C 185.339844 338.402344 184.996094 337.367188 185.242188 336.382812 C 186.566406 331.136719 184.140625 325.441406 179.214844 322.214844 C 178.054688 321.457031 177.695312 319.917969 178.40625 318.722656 C 178.4375 318.671875 178.441406 318.5625 178.378906 318.433594 C 178.273438 318.207031 178.011719 318.050781 177.640625 317.992188 C 176.308594 317.785156 175.355469 316.589844 175.453125 315.242188 C 176.574219 299.601562 178.765625 283.886719 181.96875 268.535156 C 182.261719 267.132812 183.636719 266.234375 185.039062 266.523438 C 186.441406 266.816406 187.34375 268.191406 187.050781 269.59375 C 184.023438 284.089844 181.914062 298.914062 180.773438 313.691406 C 181.769531 314.285156 182.566406 315.148438 183.074219 316.21875 C 183.492188 317.105469 183.667969 318.0625 183.605469 318.996094 C 188.933594 323.253906 191.609375 329.855469 190.570312 336.238281 C 191.320312 337.273438 191.742188 338.503906 191.777344 339.832031 C 191.832031 341.898438 190.9375 343.960938 189.390625 345.355469 C 186.988281 347.515625 183.726562 348 181.566406 348.320312 C 166.339844 350.578125 150.847656 351.714844 135.433594 351.714844 Z M 135.425781 351.710938 " fill-opacity="1" fill-rule="nonzero"/></g><path fill="#000000" d="M 257.554688 346.800781 C 256.175781 346.800781 254.800781 346.753906 253.441406 346.6875 C 237.683594 345.902344 222.023438 343.226562 206.898438 338.734375 C 205.894531 338.4375 205.167969 337.5625 205.058594 336.519531 C 204.773438 333.851562 205.132812 331.144531 206.101562 328.644531 C 205.320312 322.324219 208.035156 315.921875 212.929688 312.371094 C 213.117188 310.070312 214.207031 307.902344 215.953125 306.363281 C 216.558594 291.597656 214.652344 277.351562 210.273438 264.003906 C 209.828125 262.640625 210.570312 261.175781 211.933594 260.726562 C 213.292969 260.28125 214.761719 261.023438 215.207031 262.386719 C 219.902344 276.707031 221.878906 291.996094 221.082031 307.824219 C 221.042969 308.671875 220.585938 309.441406 219.871094 309.890625 C 218.644531 310.65625 217.957031 312.066406 218.121094 313.476562 C 218.234375 314.5 217.734375 315.5 216.839844 316.015625 C 212.753906 318.375 210.488281 323.527344 211.335938 328.542969 C 211.421875 329.046875 211.355469 329.558594 211.152344 330.023438 C 210.554688 331.371094 210.222656 332.816406 210.167969 334.28125 C 224.339844 338.34375 238.976562 340.773438 253.703125 341.507812 C 262.585938 341.945312 266.957031 340.761719 269.910156 339.195312 C 268.898438 333.496094 266.578125 326.226562 261.257812 320.933594 C 255.921875 315.621094 248.058594 313.441406 241.226562 315.382812 C 240.160156 315.683594 239.023438 315.277344 238.390625 314.375 C 237.753906 313.46875 237.765625 312.257812 238.414062 311.363281 C 239.765625 309.5 241.167969 307.566406 241.710938 305.519531 C 242.109375 304.015625 241.992188 302.035156 240.832031 301 C 240.144531 300.390625 239.015625 300.066406 237.722656 300.097656 C 237.066406 300.113281 236.355469 300.214844 235.597656 300.324219 C 234.578125 300.46875 233.421875 300.636719 232.117188 300.640625 L 232.105469 300.640625 C 231.332031 300.640625 230.601562 300.296875 230.105469 299.703125 C 229.613281 299.101562 229.410156 298.3125 229.558594 297.550781 C 232.109375 284.519531 231.53125 270.886719 227.882812 258.117188 C 227.488281 256.738281 228.289062 255.304688 229.664062 254.910156 C 231.042969 254.515625 232.480469 255.316406 232.875 256.695312 C 236.425781 269.132812 237.238281 282.351562 235.25 295.136719 C 236 295.03125 236.769531 294.933594 237.582031 294.914062 C 240.214844 294.835938 242.601562 295.628906 244.285156 297.128906 C 246.757812 299.332031 247.714844 303.148438 246.726562 306.855469 C 246.480469 307.792969 246.132812 308.675781 245.730469 309.515625 C 252.675781 309.347656 259.757812 312.128906 264.917969 317.261719 C 270.363281 322.683594 273.960938 330.605469 275.316406 340.171875 C 275.457031 341.171875 275.007812 342.164062 274.160156 342.710938 C 269.070312 346.011719 263.289062 346.808594 257.554688 346.808594 Z M 218.492188 307.695312 Z M 218.492188 307.695312 " fill-opacity="1" fill-rule="nonzero"/><path fill="#000000" d="M 278.957031 154.761719 C 277.5 154.761719 276.539062 153.871094 276.128906 153.488281 L 275.480469 152.886719 C 274.609375 153.132812 273.636719 152.914062 272.949219 152.238281 C 272.300781 151.601562 272.058594 150.703125 272.226562 149.875 L 270.214844 148.007812 C 269.6875 147.519531 269.386719 146.835938 269.382812 146.121094 C 269.148438 145.964844 268.9375 145.765625 268.757812 145.53125 C 267.890625 144.390625 268.109375 142.761719 269.25 141.898438 C 274.003906 138.28125 278.390625 134.15625 282.289062 129.636719 C 282.765625 129.085938 283.453125 128.757812 284.179688 128.738281 C 284.917969 128.71875 285.613281 129.007812 286.121094 129.53125 C 288.699219 132.199219 291.558594 134.605469 294.621094 136.695312 C 295.265625 137.132812 295.679688 137.839844 295.742188 138.617188 C 295.808594 139.394531 295.527344 140.160156 294.964844 140.703125 L 281.832031 153.429688 C 281.425781 153.824219 280.46875 154.753906 278.992188 154.769531 C 278.976562 154.769531 278.964844 154.769531 278.953125 154.769531 Z M 278.957031 154.761719 " fill-opacity="1" fill-rule="nonzero"/><path fill="#000000" d="M 101.375 189.960938 C 101.058594 189.960938 100.742188 189.90625 100.433594 189.785156 C 93.574219 187.117188 86.808594 183.992188 80.324219 180.5 C 79.097656 179.839844 78.613281 178.320312 79.226562 177.070312 L 83.667969 168.058594 C 84.242188 166.894531 85.585938 166.332031 86.816406 166.742188 L 105.144531 172.847656 C 105.84375 173.078125 106.410156 173.59375 106.703125 174.269531 C 106.996094 174.945312 106.992188 175.710938 106.6875 176.378906 L 103.117188 184.242188 C 103.023438 184.441406 102.878906 184.757812 102.644531 185.101562 C 103.757812 185.726562 104.269531 187.085938 103.792969 188.304688 C 103.394531 189.332031 102.414062 189.960938 101.375 189.960938 Z M 101.375 189.960938 " fill-opacity="1" fill-rule="nonzero"/><path fill="#000000" d="M 128.191406 248.695312 C 113.988281 248.695312 99.878906 247.523438 86.074219 245.164062 C 85.015625 244.980469 84.300781 243.976562 84.484375 242.917969 C 84.664062 241.859375 85.671875 241.144531 86.730469 241.328125 C 124.144531 247.714844 163.816406 245.261719 201.460938 234.234375 C 239.109375 223.210938 273.832031 203.867188 301.875 178.304688 C 302.671875 177.582031 303.902344 177.636719 304.628906 178.433594 C 305.351562 179.226562 305.292969 180.457031 304.5 181.179688 C 276.019531 207.140625 240.769531 226.777344 202.558594 237.96875 C 178.234375 245.09375 153.070312 248.691406 128.191406 248.691406 Z M 128.191406 248.695312 " fill-opacity="1" fill-rule="nonzero"/><path fill="#000000" d="M 175.230469 221.164062 C 174.777344 221.164062 174.328125 221.148438 173.878906 221.117188 C 169.289062 220.804688 164.609375 218.863281 159.960938 215.351562 C 151.414062 208.886719 146.3125 199.792969 145.605469 189.734375 C 145.550781 188.933594 145.992188 188.179688 146.71875 187.839844 C 147.449219 187.496094 148.3125 187.640625 148.894531 188.195312 C 150.285156 189.527344 152.09375 190.660156 154.585938 191.753906 C 161.234375 194.679688 168.824219 195.75 176.539062 194.847656 C 183.695312 194.007812 191.019531 191.425781 197.722656 187.378906 C 203.957031 183.609375 207.867188 179.519531 209.671875 174.875 C 210.039062 173.933594 211.058594 173.429688 212.023438 173.710938 C 212.992188 173.988281 213.585938 174.960938 213.394531 175.949219 C 211.066406 187.949219 205.648438 199.207031 197.71875 208.515625 C 194.292969 212.535156 190.941406 215.492188 187.472656 217.5625 C 183.496094 219.929688 179.289062 221.164062 175.226562 221.164062 Z M 150.132812 193.878906 C 151.730469 201.035156 155.953125 207.441406 162.308594 212.246094 C 166.339844 215.296875 170.324219 216.976562 174.144531 217.238281 C 178.792969 217.554688 182.875 215.773438 185.484375 214.222656 C 188.578125 212.378906 191.613281 209.6875 194.757812 205.996094 C 199.90625 199.949219 203.9375 193.035156 206.667969 185.617188 C 204.722656 187.398438 202.417969 189.089844 199.734375 190.710938 C 192.5625 195.046875 184.699219 197.8125 176.992188 198.714844 C 168.59375 199.699219 160.300781 198.523438 153.023438 195.320312 C 151.964844 194.855469 151.007812 194.378906 150.136719 193.882812 Z M 150.132812 193.878906 " fill-opacity="1" fill-rule="nonzero"/><path fill="#000000" d="M 217.851562 178.824219 C 217.742188 178.824219 217.632812 178.816406 217.523438 178.792969 C 212.730469 177.984375 208.285156 175.0625 205.636719 170.984375 C 205.050781 170.082031 205.304688 168.875 206.210938 168.292969 C 207.109375 167.707031 208.316406 167.964844 208.902344 168.867188 C 210.964844 172.046875 214.433594 174.324219 218.171875 174.960938 C 219.234375 175.140625 219.945312 176.144531 219.765625 177.203125 C 219.605469 178.152344 218.785156 178.824219 217.847656 178.824219 Z M 217.851562 178.824219 " fill-opacity="1" fill-rule="nonzero"/><path fill="#000000" d="M 141.097656 196.292969 C 140.503906 196.292969 139.914062 196.023438 139.535156 195.507812 C 138.890625 194.648438 139.070312 193.425781 139.929688 192.785156 C 141.875 191.335938 143.882812 189.839844 145.433594 188.054688 C 146.558594 186.761719 147.929688 184.710938 148.085938 182.324219 C 148.15625 181.25 149.082031 180.433594 150.15625 180.511719 C 151.230469 180.578125 152.042969 181.507812 151.972656 182.578125 C 151.789062 185.324219 150.546875 188.097656 148.375 190.605469 C 146.550781 192.707031 144.371094 194.335938 142.257812 195.90625 C 141.910156 196.167969 141.5 196.292969 141.097656 196.292969 Z M 141.097656 196.292969 " fill-opacity="1" fill-rule="nonzero"/><path fill="#000000" d="M 194.089844 117.515625 C 193.773438 117.515625 193.460938 117.507812 193.144531 117.488281 C 190.464844 117.328125 188.515625 116.070312 187.933594 114.128906 C 187.414062 112.40625 188.078125 110.515625 189.75 108.941406 C 193.320312 105.59375 198.375 105.289062 201.984375 105.625 C 208.660156 106.246094 215.039062 109.105469 219.945312 113.679688 C 220.5625 114.253906 220.738281 115.164062 220.378906 115.929688 C 220.019531 116.695312 219.203125 117.136719 218.367188 117.03125 C 213.496094 116.40625 207.117188 115.800781 200.980469 116.683594 C 200.417969 116.765625 199.832031 116.859375 199.269531 116.953125 C 197.59375 117.230469 195.875 117.515625 194.089844 117.515625 Z M 199.773438 109.410156 C 195.621094 109.410156 193.414062 110.84375 192.417969 111.78125 C 191.804688 112.355469 191.621094 112.875 191.660156 113.011719 C 191.714844 113.191406 192.335938 113.542969 193.378906 113.605469 C 195.066406 113.707031 196.796875 113.417969 198.632812 113.113281 C 199.21875 113.019531 199.820312 112.917969 200.425781 112.832031 C 204.210938 112.285156 208.035156 112.261719 211.570312 112.460938 C 208.492188 110.839844 205.105469 109.820312 201.625 109.496094 C 200.96875 109.4375 200.351562 109.410156 199.773438 109.410156 Z M 199.773438 109.410156 " fill-opacity="1" fill-rule="nonzero"/><path fill="#000000" d="M 134.316406 128.390625 C 133.792969 128.390625 133.273438 128.175781 132.898438 127.777344 C 132.320312 127.164062 132.203125 126.246094 132.613281 125.503906 C 135.855469 119.636719 141.03125 114.941406 147.183594 112.277344 C 150.511719 110.839844 155.414062 109.558594 159.84375 111.636719 C 161.921875 112.609375 163.140625 114.199219 163.183594 116.003906 C 163.230469 118.03125 161.769531 119.828125 159.273438 120.8125 C 157.292969 121.59375 155.253906 121.902344 153.285156 122.203125 C 152.71875 122.289062 152.132812 122.382812 151.570312 122.476562 C 145.460938 123.539062 139.585938 126.097656 135.148438 128.199219 C 134.878906 128.328125 134.59375 128.386719 134.316406 128.386719 Z M 154.707031 114.453125 C 153.148438 114.453125 151.160156 114.796875 148.730469 115.847656 C 145.523438 117.234375 142.621094 119.257812 140.199219 121.75 C 143.5 120.460938 147.140625 119.300781 150.90625 118.640625 C 151.507812 118.539062 152.113281 118.445312 152.699219 118.355469 C 154.539062 118.078125 156.273438 117.8125 157.847656 117.191406 C 158.820312 116.808594 159.300781 116.285156 159.296875 116.097656 C 159.292969 115.953125 158.957031 115.515625 158.195312 115.160156 C 157.476562 114.824219 156.320312 114.453125 154.707031 114.453125 Z M 154.707031 114.453125 " fill-opacity="1" fill-rule="nonzero"/><path fill="#000000" d="M 205.097656 158.832031 C 201.296875 158.832031 197.769531 156.824219 195.164062 153.171875 C 192.699219 149.722656 191.34375 145.164062 191.34375 140.34375 C 191.34375 135.523438 192.699219 130.972656 195.164062 127.519531 C 197.769531 123.867188 201.296875 121.855469 205.097656 121.855469 C 208.902344 121.855469 212.425781 123.867188 215.035156 127.519531 C 217.496094 130.96875 218.855469 135.523438 218.855469 140.34375 C 218.855469 145.164062 217.496094 149.71875 215.035156 153.171875 C 212.425781 156.824219 208.902344 158.832031 205.097656 158.832031 Z M 205.097656 125.753906 C 199.660156 125.753906 195.234375 132.300781 195.234375 140.347656 C 195.234375 148.394531 199.660156 154.941406 205.097656 154.941406 C 210.535156 154.941406 214.960938 148.394531 214.960938 140.347656 C 214.960938 132.300781 210.535156 125.753906 205.097656 125.753906 Z M 205.097656 125.753906 " fill-opacity="1" fill-rule="nonzero"/><path fill="#000000" d="M 154.058594 165.847656 C 150.257812 165.847656 146.726562 163.835938 144.121094 160.1875 C 141.660156 156.738281 140.300781 152.179688 140.300781 147.359375 C 140.300781 142.539062 141.660156 137.988281 144.121094 134.535156 C 146.726562 130.882812 150.253906 128.871094 154.058594 128.871094 C 157.859375 128.871094 161.386719 130.882812 163.992188 134.535156 C 166.457031 137.984375 167.8125 142.539062 167.8125 147.359375 C 167.8125 152.179688 166.457031 156.734375 163.992188 160.1875 C 161.386719 163.835938 157.859375 165.847656 154.058594 165.847656 Z M 154.058594 132.769531 C 148.621094 132.769531 144.195312 139.316406 144.195312 147.363281 C 144.195312 155.410156 148.621094 161.957031 154.058594 161.957031 C 159.496094 161.957031 163.921875 155.410156 163.921875 147.363281 C 163.921875 139.316406 159.496094 132.769531 154.058594 132.769531 Z M 154.058594 132.769531 " fill-opacity="1" fill-rule="nonzero"/><path fill="#000000" d="M 284.992188 134.449219 C 284.203125 134.449219 283.460938 133.964844 283.167969 133.183594 C 281.921875 129.851562 281.628906 126.449219 282.320312 123.351562 C 283.113281 119.792969 285.21875 116.742188 288.09375 114.976562 C 291.28125 113.027344 295.367188 112.816406 298.503906 114.445312 C 301.414062 115.960938 303.578125 119.046875 304.296875 122.707031 C 305.121094 126.882812 303.460938 129.613281 301.636719 130.78125 C 299.554688 132.109375 296.679688 131.945312 294.304688 130.371094 C 292.433594 129.128906 291.207031 127.335938 290.125 125.753906 C 289.519531 124.867188 289.746094 123.65625 290.632812 123.050781 C 291.519531 122.441406 292.734375 122.671875 293.339844 123.558594 C 294.261719 124.910156 295.21875 126.308594 296.460938 127.132812 C 297.351562 127.722656 298.699219 128.042969 299.542969 127.503906 C 300.609375 126.824219 300.78125 124.984375 300.480469 123.464844 C 299.984375 120.953125 298.574219 118.875 296.707031 117.902344 C 294.757812 116.886719 292.175781 117.042969 290.128906 118.296875 C 288.175781 119.496094 286.675781 121.703125 286.121094 124.195312 C 285.597656 126.5625 285.835938 129.199219 286.816406 131.828125 C 287.191406 132.835938 286.679688 133.953125 285.671875 134.332031 C 285.449219 134.414062 285.21875 134.453125 284.992188 134.453125 Z M 284.992188 134.449219 " fill-opacity="1" fill-rule="nonzero"/><path fill="#000000" d="M 311.359375 138.011719 C 311.039062 138.011719 310.722656 137.996094 310.40625 137.960938 C 308.054688 137.695312 305.996094 136.414062 304.894531 134.535156 C 304.0625 133.105469 303.871094 131.382812 304.285156 129.859375 C 303.136719 129.179688 302.253906 127.945312 301.742188 126.292969 C 301.632812 125.933594 301.542969 125.585938 301.453125 125.25 C 301.273438 124.542969 301.101562 123.878906 300.804688 123.425781 C 300.265625 122.59375 300.4375 121.492188 301.199219 120.863281 C 306.015625 116.894531 310.257812 114.347656 314.542969 112.84375 C 315.636719 112.460938 316.933594 112.121094 318.289062 112.476562 C 320.539062 113.074219 321.621094 115.246094 321.976562 115.960938 C 323.792969 119.609375 324.289062 123.675781 323.375 127.410156 C 322.398438 131.402344 319.742188 134.878906 316.277344 136.710938 C 314.652344 137.570312 312.972656 138.011719 311.363281 138.011719 Z M 308.597656 130.039062 C 308.507812 130.113281 308.425781 130.1875 308.359375 130.261719 C 307.875 130.800781 307.828125 131.835938 308.257812 132.570312 C 308.730469 133.382812 309.726562 133.96875 310.84375 134.09375 C 312.246094 134.253906 313.582031 133.734375 314.453125 133.273438 C 316.957031 131.953125 318.875 129.417969 319.59375 126.492188 C 320.277344 123.6875 319.878906 120.484375 318.488281 117.699219 C 317.921875 116.558594 317.496094 116.296875 317.289062 116.242188 C 316.910156 116.140625 316.15625 116.40625 315.835938 116.519531 C 312.332031 117.746094 308.808594 119.796875 304.839844 122.929688 C 305 123.394531 305.117188 123.851562 305.226562 124.28125 C 305.308594 124.589844 305.378906 124.878906 305.464844 125.152344 C 305.730469 126.003906 306.097656 126.46875 306.339844 126.546875 C 306.46875 126.585938 306.648438 126.570312 306.847656 126.519531 C 307.183594 126.304688 307.515625 126.121094 307.8125 125.949219 L 314.976562 121.957031 C 315.886719 121.449219 317.035156 121.746094 317.582031 122.632812 C 318.128906 123.519531 317.882812 124.675781 317.019531 125.261719 C 314.730469 126.824219 312.3125 128.242188 309.835938 129.484375 C 309.527344 129.640625 309.101562 129.851562 308.597656 130.039062 Z M 308.597656 130.039062 " fill-opacity="1" fill-rule="nonzero"/><path fill="#000000" d="M 300.449219 143.511719 C 300.328125 143.511719 300.207031 143.511719 300.082031 143.503906 C 297.367188 143.367188 295.269531 141.804688 293.414062 140.429688 C 292.132812 139.472656 290.917969 138.570312 289.640625 138.195312 C 288.609375 137.894531 288.015625 136.8125 288.320312 135.78125 C 288.621094 134.75 289.699219 134.15625 290.734375 134.460938 C 292.679688 135.03125 294.234375 136.1875 295.742188 137.304688 C 297.355469 138.503906 298.746094 139.539062 300.28125 139.617188 C 301.402344 139.667969 302.6875 139.152344 303.808594 138.1875 C 304.984375 137.175781 305.929688 135.777344 306.800781 134.429688 C 307.382812 133.527344 308.589844 133.265625 309.492188 133.851562 C 310.394531 134.433594 310.652344 135.640625 310.070312 136.542969 C 309.046875 138.125 307.917969 139.789062 306.347656 141.136719 C 304.558594 142.675781 302.480469 143.511719 300.453125 143.511719 Z M 300.449219 143.511719 " fill-opacity="1" fill-rule="nonzero"/><g clip-path="url(#c7d037b0a9)"><path fill="#000000" d="M 302.277344 122.667969 C 302.09375 122.667969 301.90625 122.65625 301.714844 122.628906 C 299.988281 122.402344 298.96875 121.136719 296.167969 117.453125 L 295.078125 117.035156 C 294.589844 116.847656 294.203125 116.472656 293.996094 115.996094 C 293.785156 115.519531 293.777344 114.980469 293.972656 114.496094 L 302.335938 93.503906 C 302.960938 91.933594 304.257812 88.675781 307.382812 87.96875 C 310.003906 87.375 313.382812 89.183594 314.238281 92.820312 C 314.488281 93.890625 314.503906 94.949219 314.375 95.984375 C 314.558594 95.824219 314.746094 95.667969 314.9375 95.519531 C 317.195312 93.738281 319.851562 93.023438 322.230469 93.558594 C 325.648438 94.324219 328.25 97.785156 328.28125 101.609375 C 328.308594 104.660156 326.886719 107.742188 324.28125 110.292969 C 322.113281 112.414062 319.539062 113.84375 317.050781 115.226562 L 305.539062 121.609375 C 304.761719 122.042969 303.632812 122.667969 302.285156 122.667969 Z M 307.351562 112.0625 C 306.003906 114.261719 304.519531 116.4375 302.90625 118.589844 C 303.171875 118.46875 303.449219 118.3125 303.640625 118.207031 L 315.152344 111.820312 C 317.414062 110.566406 319.757812 109.265625 321.550781 107.511719 C 323.367188 105.734375 324.398438 103.597656 324.382812 101.644531 C 324.363281 99.648438 323.011719 97.726562 321.371094 97.359375 C 320.160156 97.085938 318.652344 97.539062 317.335938 98.574219 C 315.960938 99.660156 314.863281 101.238281 313.800781 102.765625 L 307.34375 112.0625 Z M 298.308594 114.125 C 298.550781 114.257812 298.765625 114.441406 298.9375 114.664062 C 299.25 115.078125 299.585938 115.515625 299.914062 115.945312 L 304.089844 109.933594 C 306.347656 106.234375 308.195312 102.480469 309.613281 98.710938 C 310.253906 97.003906 310.796875 95.21875 310.445312 93.710938 C 310.175781 92.558594 309.0625 91.578125 308.242188 91.765625 C 307.25 91.988281 306.527344 93.5 305.953125 94.945312 Z M 298.308594 114.125 " fill-opacity="1" fill-rule="nonzero"/></g><path fill="#000000" d="M 69.097656 175.976562 C 68.199219 175.976562 67.351562 175.726562 66.613281 175.226562 C 64.253906 173.617188 64.46875 170.449219 64.539062 169.410156 C 64.914062 163.785156 66.511719 159.824219 69.414062 157.308594 C 73.636719 153.65625 80.5 153.941406 84.402344 157.933594 C 88.308594 161.925781 88.433594 168.792969 84.679688 172.925781 C 83.960938 173.722656 82.726562 173.78125 81.933594 173.058594 C 81.136719 172.335938 81.074219 171.105469 81.800781 170.3125 C 84.132812 167.738281 84.050781 163.136719 81.621094 160.652344 C 79.195312 158.167969 74.589844 157.976562 71.964844 160.25 C 69.886719 162.050781 68.726562 165.128906 68.421875 169.667969 C 68.300781 171.507812 68.6875 171.921875 68.808594 172.003906 C 69.128906 172.222656 70.085938 171.933594 71.015625 171.164062 C 73.113281 169.410156 74.570312 166.859375 75.003906 164.15625 C 75.175781 163.097656 76.175781 162.375 77.238281 162.546875 C 78.300781 162.71875 79.019531 163.714844 78.847656 164.777344 C 78.265625 168.390625 76.320312 171.808594 73.507812 174.152344 C 72.070312 175.351562 70.519531 175.972656 69.097656 175.972656 Z M 69.097656 175.976562 " fill-opacity="1" fill-rule="nonzero"/><path fill="#000000" d="M 58.152344 185.371094 C 55.609375 185.371094 52.957031 184.332031 50.886719 182.425781 C 48.730469 180.441406 47.140625 177.574219 46.160156 173.90625 C 45.074219 169.839844 45.578125 166.574219 47.613281 164.464844 C 49.082031 162.941406 51.261719 162.136719 54.265625 162.011719 C 58.539062 161.832031 62.832031 162.726562 66.675781 164.59375 C 67.363281 164.929688 67.789062 165.632812 67.773438 166.394531 C 67.742188 167.523438 67.796875 168.648438 67.859375 169.835938 C 67.960938 171.902344 68.070312 174.042969 67.6875 176.214844 C 66.949219 180.433594 64.359375 183.769531 60.929688 184.925781 C 60.042969 185.222656 59.105469 185.371094 58.15625 185.371094 Z M 55.347656 165.878906 C 55.042969 165.878906 54.734375 165.886719 54.429688 165.898438 C 52.46875 165.980469 51.15625 166.394531 50.414062 167.164062 C 49.035156 168.59375 49.515625 171.371094 49.921875 172.898438 C 50.707031 175.84375 51.917969 178.085938 53.523438 179.5625 C 55.308594 181.207031 57.785156 181.878906 59.683594 181.234375 C 61.730469 180.546875 63.367188 178.308594 63.851562 175.542969 C 64.160156 173.804688 64.066406 171.972656 63.96875 170.03125 C 63.929688 169.234375 63.886719 168.421875 63.871094 167.59375 C 61.175781 166.464844 58.269531 165.878906 55.347656 165.878906 Z M 55.347656 165.878906 " fill-opacity="1" fill-rule="nonzero"/><path fill="#000000" d="M 65.292969 175.449219 C 65.234375 175.449219 65.179688 175.449219 65.121094 175.441406 L 54.480469 174.523438 C 53.40625 174.433594 52.613281 173.488281 52.707031 172.417969 C 52.796875 171.347656 53.738281 170.554688 54.8125 170.644531 L 65.453125 171.5625 C 66.527344 171.65625 67.316406 172.597656 67.226562 173.667969 C 67.140625 174.683594 66.289062 175.449219 65.292969 175.449219 Z M 65.292969 175.449219 " fill-opacity="1" fill-rule="nonzero"/><g clip-path="url(#65c7b5eaa0)"><path fill="#000000" d="M 65.972656 166.859375 C 65.757812 166.859375 65.539062 166.820312 65.332031 166.75 L 45.429688 159.761719 C 43.230469 158.988281 39.136719 157.550781 37.867188 153.847656 C 36.964844 151.207031 37.933594 148.464844 38.574219 146.652344 C 39.058594 145.277344 39.964844 142.714844 42.378906 141.78125 C 45.085938 140.730469 47.617188 142.429688 49.027344 143.597656 C 48.71875 141.941406 48.855469 140.308594 49.441406 138.90625 C 50.5625 136.234375 53.304688 134.585938 55.957031 134.988281 C 58.609375 135.394531 60.328125 137.625 61.355469 138.953125 L 71.863281 152.570312 C 72.371094 153.222656 73.0625 154.121094 73.320312 155.296875 C 73.601562 156.570312 73.460938 158.585938 71.199219 160.9375 C 71.078125 161.066406 70.949219 161.195312 70.820312 161.328125 C 69.929688 162.226562 69.007812 163.160156 67.71875 165.773438 C 67.382812 166.453125 66.695312 166.859375 65.972656 166.859375 Z M 44.136719 145.34375 C 44.007812 145.34375 43.890625 145.367188 43.789062 145.40625 C 43.132812 145.660156 42.660156 146.777344 42.246094 147.945312 C 41.613281 149.738281 41.125 151.328125 41.554688 152.589844 C 42.160156 154.355469 44.539062 155.324219 46.722656 156.089844 L 63.953125 162.136719 C 63.714844 161.921875 63.480469 161.707031 63.242188 161.488281 L 47.121094 147.089844 C 45.824219 145.929688 44.820312 145.347656 44.140625 145.347656 Z M 65.859375 158.609375 L 67.039062 159.660156 C 67.402344 159.246094 67.738281 158.90625 68.050781 158.589844 C 68.167969 158.46875 68.285156 158.355469 68.394531 158.238281 C 69.203125 157.394531 69.625 156.605469 69.523438 156.132812 C 69.449219 155.808594 69.097656 155.347656 68.785156 154.945312 L 58.277344 141.332031 C 57.367188 140.15625 56.398438 138.992188 55.367188 138.835938 C 54.5 138.703125 53.453125 139.410156 53.035156 140.414062 C 52.585938 141.488281 52.683594 142.914062 53.304688 144.328125 C 53.9375 145.773438 55.023438 147.105469 56.171875 148.449219 C 59.457031 152.289062 62.648438 155.640625 65.859375 158.613281 Z M 65.859375 158.609375 " fill-opacity="1" fill-rule="nonzero"/></g><path fill="#000000" d="M 74.085938 186.886719 C 72.484375 186.886719 70.9375 186.34375 69.566406 185.765625 C 68.191406 185.183594 66.621094 184.453125 65.359375 183.152344 C 65.25 183.042969 65.136719 182.9375 65.023438 182.835938 C 63.722656 181.628906 62.4375 180.035156 63.660156 176.40625 C 64.003906 175.386719 65.109375 174.839844 66.125 175.183594 C 67.148438 175.527344 67.691406 176.632812 67.347656 177.648438 C 66.828125 179.195312 67.007812 179.363281 67.671875 179.980469 C 67.832031 180.132812 67.996094 180.28125 68.148438 180.441406 C 68.902344 181.222656 70.0625 181.746094 71.085938 182.183594 C 72.40625 182.742188 73.769531 183.214844 74.828125 182.890625 C 76.289062 182.445312 77.0625 180.480469 77.328125 179.660156 C 77.539062 179.003906 77.703125 178.320312 77.878906 177.59375 C 78.199219 176.269531 78.527344 174.894531 79.179688 173.558594 C 79.722656 172.441406 80.417969 171.492188 81.089844 170.574219 C 81.722656 169.71875 82.316406 168.90625 82.703125 168.058594 C 83.9375 165.371094 82.949219 161.722656 80.503906 159.921875 C 78.058594 158.121094 74.316406 158.160156 71.800781 160.007812 C 69.265625 161.867188 66.976562 165.742188 67.695312 168.75 C 67.945312 169.796875 67.300781 170.847656 66.257812 171.097656 C 65.210938 171.347656 64.160156 170.703125 63.910156 169.65625 C 62.761719 164.859375 65.933594 159.488281 69.496094 156.871094 C 73.390625 154.011719 78.992188 153.972656 82.8125 156.785156 C 86.730469 159.667969 88.234375 165.332031 86.242188 169.679688 C 85.691406 170.882812 84.949219 171.894531 84.230469 172.875 C 83.632812 173.6875 83.070312 174.457031 82.679688 175.257812 C 82.214844 176.214844 81.945312 177.324219 81.664062 178.5 C 81.476562 179.265625 81.289062 180.058594 81.03125 180.851562 C 80.058594 183.863281 78.261719 185.90625 75.964844 186.609375 C 75.332031 186.800781 74.703125 186.882812 74.082031 186.882812 Z M 74.085938 186.886719 " fill-opacity="1" fill-rule="nonzero"/><path fill="#000000" d="M 231.289062 319.230469 C 231.097656 319.230469 230.90625 319.179688 230.734375 319.070312 C 230.324219 318.8125 230.144531 318.300781 230.308594 317.84375 C 231.082031 315.695312 230.785156 314.230469 230.292969 311.800781 L 230.261719 311.65625 C 230.136719 311.035156 229.992188 310.394531 229.855469 309.777344 C 229.417969 307.832031 228.960938 305.8125 228.929688 303.734375 C 228.914062 302.492188 229.058594 300.222656 229.535156 297.9375 C 230.105469 295.214844 230.949219 293.382812 232.050781 292.503906 C 232.496094 292.148438 233.152344 292.21875 233.507812 292.664062 C 233.867188 293.113281 233.796875 293.765625 233.347656 294.125 C 232.347656 294.925781 230.933594 299.054688 231.007812 303.703125 C 231.035156 305.566406 231.445312 307.390625 231.882812 309.320312 C 232.023438 309.949219 232.171875 310.597656 232.300781 311.246094 L 232.328125 311.386719 C 232.632812 312.894531 232.890625 314.15625 232.859375 315.480469 C 237.4375 312.167969 243.617188 310.855469 250.289062 311.859375 C 250.855469 311.945312 251.246094 312.472656 251.160156 313.039062 C 251.074219 313.609375 250.546875 314 249.980469 313.910156 C 242.769531 312.828125 236.226562 314.652344 232.027344 318.917969 C 231.828125 319.125 231.558594 319.226562 231.289062 319.226562 Z M 231.289062 319.230469 " fill-opacity="1" fill-rule="nonzero"/><path fill="#000000" d="M 226.730469 314.429688 C 225.558594 314.429688 224.386719 314.277344 223.25 313.972656 C 220.433594 313.210938 217.90625 311.515625 216.132812 309.199219 C 215.785156 308.746094 215.867188 308.09375 216.324219 307.746094 C 216.78125 307.398438 217.429688 307.484375 217.777344 307.9375 C 219.28125 309.894531 221.414062 311.320312 223.792969 311.964844 C 226.171875 312.609375 228.738281 312.449219 231.019531 311.515625 C 231.546875 311.296875 232.15625 311.550781 232.371094 312.082031 C 232.589844 312.613281 232.335938 313.21875 231.804688 313.4375 C 230.191406 314.097656 228.460938 314.429688 226.730469 314.429688 Z M 226.730469 314.429688 " fill-opacity="1" fill-rule="nonzero"/><path fill="#000000" d="M 227.414062 319.703125 C 223.296875 319.703125 219.183594 318.242188 216.042969 315.542969 C 215.359375 314.953125 214.523438 314.136719 214.152344 313.023438 C 213.695312 311.664062 214.105469 310.203125 215.148438 309.464844 C 215.621094 309.136719 216.265625 309.246094 216.59375 309.714844 C 216.925781 310.1875 216.8125 310.832031 216.34375 311.160156 C 216.0625 311.359375 215.960938 311.898438 216.117188 312.359375 C 216.332031 312.992188 216.882812 313.523438 217.398438 313.964844 C 221.089844 317.140625 226.3125 318.371094 231.035156 317.179688 C 231.589844 317.039062 232.15625 317.378906 232.296875 317.933594 C 232.433594 318.488281 232.097656 319.054688 231.542969 319.195312 C 230.191406 319.535156 228.804688 319.699219 227.414062 319.699219 Z M 227.414062 319.703125 " fill-opacity="1" fill-rule="nonzero"/><path fill="#000000" d="M 148.4375 342.921875 C 141.648438 342.921875 134.878906 342.492188 128.207031 341.628906 C 127.640625 341.554688 127.238281 341.035156 127.3125 340.464844 C 127.386719 339.898438 127.90625 339.496094 128.476562 339.570312 C 147.949219 342.09375 168.296875 340.863281 187.328125 336.011719 C 187.882812 335.867188 188.449219 336.207031 188.589844 336.761719 C 188.730469 337.316406 188.394531 337.882812 187.839844 338.023438 C 175.078125 341.273438 161.726562 342.921875 148.4375 342.921875 Z M 148.4375 342.921875 " fill-opacity="1" fill-rule="nonzero"/><path fill="#000000" d="M 250.964844 335.210938 C 237.082031 335.210938 223.132812 333.445312 209.820312 329.964844 C 209.265625 329.816406 208.929688 329.25 209.078125 328.699219 C 209.222656 328.140625 209.789062 327.808594 210.34375 327.957031 C 229.859375 333.058594 250.75 334.425781 270.761719 331.902344 C 271.328125 331.828125 271.847656 332.234375 271.921875 332.800781 C 271.992188 333.371094 271.589844 333.890625 271.019531 333.960938 C 264.402344 334.792969 257.691406 335.210938 250.960938 335.210938 Z M 250.964844 335.210938 " fill-opacity="1" fill-rule="nonzero"/><path fill="#000000" d="M 165.144531 326.535156 C 164.878906 326.535156 164.621094 326.4375 164.425781 326.25 C 161.949219 323.878906 158.402344 322.441406 153.273438 321.722656 C 148.285156 321.027344 144.6875 321.433594 141.609375 323.058594 C 141.105469 323.324219 140.476562 323.128906 140.207031 322.625 C 139.941406 322.113281 140.136719 321.488281 140.644531 321.222656 C 145.113281 318.871094 149.894531 319.15625 153.5625 319.671875 C 158.207031 320.324219 161.691406 321.550781 164.355469 323.492188 C 164.746094 320.332031 165.066406 317.109375 164.902344 313.945312 C 164.6875 309.746094 163.640625 306.210938 161.785156 303.433594 C 161.46875 302.957031 161.597656 302.3125 162.074219 301.996094 C 162.550781 301.679688 163.195312 301.804688 163.515625 302.28125 C 165.578125 305.375 166.742188 309.265625 166.976562 313.839844 C 167.179688 317.828125 166.667969 321.796875 166.175781 325.636719 C 166.125 326.027344 165.863281 326.355469 165.492188 326.484375 C 165.378906 326.523438 165.261719 326.542969 165.148438 326.542969 Z M 165.144531 326.535156 " fill-opacity="1" fill-rule="nonzero"/><path fill="#000000" d="M 167.996094 326.742188 C 167.078125 326.742188 166.160156 326.6875 165.242188 326.574219 C 164.675781 326.5 164.269531 325.980469 164.34375 325.414062 C 164.414062 324.84375 164.933594 324.441406 165.503906 324.511719 C 170.832031 325.183594 176.511719 323.582031 180.703125 320.222656 C 181.148438 319.867188 181.800781 319.9375 182.160156 320.382812 C 182.519531 320.832031 182.445312 321.484375 182 321.84375 C 178.03125 325.019531 173.046875 326.742188 167.996094 326.742188 Z M 167.996094 326.742188 " fill-opacity="1" fill-rule="nonzero"/><path fill="#000000" d="M 167.019531 321.730469 C 166.644531 321.730469 166.269531 321.722656 165.894531 321.707031 C 165.320312 321.679688 164.878906 321.195312 164.902344 320.625 C 164.929688 320.050781 165.414062 319.605469 165.984375 319.632812 C 170.996094 319.851562 176.058594 318.453125 180.242188 315.695312 C 180.71875 315.378906 181.363281 315.507812 181.679688 315.988281 C 181.996094 316.464844 181.863281 317.109375 181.386719 317.425781 C 177.152344 320.21875 172.089844 321.730469 167.019531 321.730469 Z M 167.019531 321.730469 " fill-opacity="1" fill-rule="nonzero"/></svg>